<?xml version="1.0" encoding="UTF-8" standalone="no"?><!DOCTYPE svg PUBLIC "-//W3C//DTD SVG 1.1//EN" "http://www.w3.org/Graphics/SVG/1.1/DTD/svg11.dtd"><svg width="100%" height="100%" viewBox="0 0 518 274" version="1.1" xmlns="http://www.w3.org/2000/svg" xmlns:xlink="http://www.w3.org/1999/xlink" xml:space="preserve" xmlns:serif="http://www.serif.com/" style="fill-rule:evenodd;clip-rule:evenodd;stroke-linejoin:round;stroke-miterlimit:2;"><g><g><path d="M128.966,9.133c1.134,0.72 2.269,1.439 3.403,2.159c-20.171,16.423 -36.59,57.026 -22.503,79.23c12.837,20.233 42.779,20.779 60.551,8.862c3.237,-2.17 19.849,-16.252 22.224,-19.055c12.839,-15.152 15.433,-20.964 16.354,-23.027c1.267,0.039 2.535,0.078 3.802,0.117c-1.247,6.103 -8.197,14.508 -8.225,14.955c-0.219,3.462 -1.617,2.613 -4.043,5.007c-0.242,0.239 -3.605,3.558 -1.629,3.932c3.498,0.662 16.566,0.67 18.008,0.671c4.653,0.003 4.569,-0.589 9.14,0.607c2.081,0.07 4.162,0.14 6.243,0.21c9.524,0.602 11.286,0.55 12.268,0.522c3.931,-0.115 3.708,0.962 7.694,1.226c17,1.123 16.96,1.703 18.432,1.558c1.657,-0.163 1.353,0.585 3.067,1.058c0.567,0.157 13.131,1.144 30.724,4.55c1.01,0.236 2.019,0.471 3.029,0.707l1.558,0.424c7.312,0.552 7.672,1.928 30.342,-4.247c-0.051,2.824 0.414,2.644 0.336,5.315c-2.225,-1.013 -2.246,-0.68 -4.609,-0.047c-25.118,6.725 -25.498,4.746 -27.665,5.369c-4.759,1.367 -2.86,-3.735 -7.79,-4.706c-46.649,-9.188 -93.109,-8.971 -101.239,-8.933c-16.576,0.077 -28.554,40.368 -76.854,21.124c-5.068,-2.019 -5.959,1.284 -15.801,5.028c-2.162,0.786 -2.04,0.796 -4.071,1.862c-15.094,8.839 -24.706,12.783 -27.51,14.15c-1.911,1.121 -8.884,5.429 -9.44,5.718c-6.083,3.162 -10.443,1.889 -7.52,8.051c-4.378,1.021 -4.819,0.77 -6.721,4.74c-0.476,-1.72 0.418,-5.207 -3.824,-2.804c-36.137,20.471 -39.195,25.237 -41.368,28.625c-0.477,-2.574 -0.677,-2.382 -1.868,-4.622c36.852,-29.226 109.284,-62.297 109.883,-64.463c0.292,-1.054 -4.675,-7.14 -5.144,-7.714c-0.282,-0.47 -1.766,-2.94 -3.309,-6.004c-2.666,-5.543 -3.433,-11.206 -3.57,-12.215c-0.033,-0.375 -0.052,-0.341 -0.669,-4.664c0.397,-5.405 1.368,-39.528 28.309,-63.277Z" style="fill:#fbd4cf;stroke:#f68fba;stroke-width:3.13px;"/><path d="M154.197,14.114c0.14,1.446 0.28,2.893 0.421,4.339c4.729,4.19 7.676,4.836 8.442,5.005c2.353,2.349 2.327,2.186 4.81,4.363c2.522,1.173 2.225,1.489 4.61,3.051c1.155,0.757 2.108,1.796 3.263,2.552l1.322,1.625l2.721,0.998c1.712,0.948 1.824,0.113 3.492,0.847c0.401,0.176 -0.045,0.812 4.551,3.047l-1.08,1.772c-0.897,-0.019 -0.713,2.177 -1.611,2.158c-0.945,-0.02 -1.056,-1.592 -1.755,-2.229c-2.945,-2.68 -4.352,-1.488 -4.645,-1.239c-11.878,10.062 -15.603,26.682 -37.219,40.888c-11.905,7.823 -3.78,10.407 -2.937,10.269c10.003,-1.637 2.29,4.119 1.782,4.262c-9.474,2.671 -6.462,-6.601 -12.433,-6.839c-0.891,-0.036 -11.578,-0.462 -8.576,-7.113c2.225,-4.928 4.453,2.657 7.01,2.643c4.803,-0.026 7.104,-1.124 5.845,-12.101c-0.446,-3.884 -0.891,-7.771 20.55,-44.342c2.988,-5.097 0.237,-5.192 -4.641,-8.401l2.836,-0.856c0.622,-0.521 1.244,-1.042 1.866,-1.564c0.459,-1.045 0.917,-2.089 1.376,-3.134Z" style="fill:#fbd4cf;stroke:#f68fba;stroke-width:3.13px;"/><path d="M16.409,176.085c-2.196,11.074 2.452,8.902 2.863,9.249c16.662,-9.312 33.902,-28.457 65.046,-37.482c30.793,-8.924 31.128,-7.508 33.851,-6.831c-39.07,46.617 -55.193,32.299 -84.036,85.926" style="fill:none;stroke:#f68fba;stroke-width:3.13px;stroke-linecap:round;stroke-miterlimit:1.5;"/><path d="M477.93,34.159c1.836,-0.09 9.683,-0.472 22.974,0.301c1.532,0.426 3.065,0.852 4.597,1.277c2.462,1.015 2.525,0.635 4.923,2.183c3.971,2.563 4.325,1.802 4.585,2.111c0.369,0.438 -0.263,1.122 -0.286,1.695c-0.059,1.45 1.252,3.247 -2.672,5.253c-0,0 -2.949,2.826 -3.205,3.072c-1.585,0.495 -3.17,0.99 -4.755,1.485l-1.403,0.125c-1.597,0.462 -3.194,0.925 -4.791,1.387c-1.052,0.261 -2.104,0.521 -3.155,0.782c-2.421,-0.591 -2.293,-0.196 -4.52,0.715c-1.564,0.272 -3.129,0.543 -4.693,0.815c-2.257,-0.821 -2.165,-0.847 -4.513,-1.254c0.384,-2.402 0.548,-2.303 0.324,-4.815c11.208,2.911 31.01,-4.408 28.556,-7.412c-1.272,-1.557 -9.657,-3.241 -10.525,-3.416c-1.854,-0.857 -1.89,-3.199 -2.888,-1.336c-0.261,0.487 0.564,1.143 0.303,1.63c-1.053,5.077 -1.266,8.304 -5.425,5.019c-1.598,-1.262 -1.033,-1.477 -0.952,-3.56c0.081,-0.249 1.011,-3.118 1.011,-3.118c-0.179,-0.188 -0.228,0.047 -3.18,0.653c-24.907,-0.92 -31.436,3.937 -33.623,5.565c-1.953,-2.942 -1.975,-2.855 -2.721,-4.264c7.192,-2.376 7.057,-2.796 26.033,-4.892Z" style="fill:#fbd4cf;fill-opacity:0.99;stroke:#f68fba;stroke-width:3.13px;"/><path d="M153.496,5.03c0.279,1.987 0.557,3.974 0.836,5.961l-0.135,3.124c-0.459,1.045 -0.917,2.089 -1.376,3.134c-0.622,0.521 -1.244,1.042 -1.866,1.564l-2.836,0.856c-2.351,-1.666 -2.492,-1.166 -4.731,-2.875c-0.708,-0.685 -4.532,-4.385 -11.019,-5.501c-1.134,-0.72 -2.269,-1.439 -3.403,-2.159c10.177,-7.285 16.616,-12.001 23.053,-7.025c2.148,1.661 1.077,2.13 1.477,2.921Z" style="fill:#fbd4cf;stroke:#f68fba;stroke-width:3.13px;"/><path d="M394.784,61.291c0.77,1.553 1.566,1.098 1.72,3.47c0,0 0.19,2.743 0.206,2.982c-3.632,-2.905 -3.913,-0.443 -15.963,5.733c-3.968,1.134 -3.912,1.11 -7.221,3.546c-4.66,3.604 -20.932,10.491 -22.807,11.284c-4.513,1.91 -2.963,4.362 -5.303,6.795c-1.24,0.424 -2.48,0.849 -3.72,1.273c-0.212,-0.168 -0.185,-0.177 -1.952,-2.461c0.078,-2.67 -0.388,-2.491 -0.336,-5.315c19.94,-7.358 52.009,-25.531 55.376,-27.308Z" style="fill:#fbd4cf;stroke:#f68fba;stroke-width:3.13px;"/><path d="M144.847,180.08c1.539,0.008 3.078,0.017 4.618,0.025c-3.481,2.624 -4.44,0.201 -7.801,2.741c-0.536,0.405 -7.481,2.893 -7.685,3.051c-0.558,0.429 -8.883,3.483 -8.987,3.539c-5.229,2.844 -5.575,1.764 -10.746,4.613c-3.337,1.839 -9.669,4.473 -10.986,5.679c-3.141,2.874 -3.436,2.233 -7.294,3.844c-8.236,3.437 -7.579,4.645 -8.331,4.804c-0.483,0.102 -1.754,0.371 -5.616,2.556c-17.19,9.728 -17.364,9.246 -18.557,10.463c-1.545,1.575 -1.683,1.336 -10.612,6.435c-6.841,3.906 -8.453,3.931 -9.258,3.944c3.54,-4.807 71.449,-41.478 81.486,-45.148c17.403,-6.363 18.109,-6.418 19.771,-6.545Z" style="fill:#fbd4cf;fill-opacity:0.53;stroke:#f68fba;stroke-width:3.13px;"/><path d="M187.829,39.94c5.557,1.443 6.097,4.668 13.572,-0.102c3.706,3.727 3.905,3.59 9.243,3.832c2.86,0.13 5.518,5.258 5.804,5.567c-0.575,1.484 0.264,1.741 -1.22,3.153c-0.059,0.056 -0.02,0.001 -2.43,5.029c-1.267,-0.039 -2.535,-0.078 -3.802,-0.117c-10.083,-9.316 -11.897,-6.643 -22.246,-15.59l1.08,-1.772Z" style="fill:#fbd4cf;stroke:#f68fba;stroke-width:3.13px;"/><path d="M320.949,186.742c1.14,-0.22 2.28,-0.44 3.42,-0.66c0.217,0.192 9.719,5.703 13.907,9.063c3.429,2.751 3.805,1.999 4.089,2.241c3.804,3.232 3.243,3.665 3.583,3.92c1.449,1.083 1.981,0.139 10.82,7.568c9.368,7.874 9.494,7.556 10.272,8.269c8.459,7.754 7.96,8.156 17.142,15.06c-1.131,0.101 -2.262,0.202 -3.393,0.303c-3.056,-2.541 -3.331,-1.981 -6.071,-4.677c-0.198,-0.384 0.019,-0.899 -0.179,-1.284c-1.285,-2.5 -2.553,-1.258 -2.952,-1.455c-1.085,-0.948 -2.726,-1.764 -2.979,-1.89c-2.884,-1.434 -1.612,-3.882 -4.689,-4.265c-1.171,-0.146 -7.044,-5.913 -7.615,-6.473c-0.312,-0.565 0.076,-0.6 -0.256,-1.2c-1.406,-2.546 -2.33,-1.25 -2.875,-1.542c-1.096,-1 -1.493,-0.411 -4.545,-3.392c-0.319,-0.559 0.103,-0.598 -0.235,-1.192c-1.338,-2.35 -2.484,-1.326 -2.9,-1.548c-1.234,-1.124 -24.126,-16.516 -24.544,-16.846Z" style="fill:#fbd4cf;fill-opacity:0.78;stroke:#f68fba;stroke-width:3.13px;"/><path d="M383.675,233.898c2.061,0.737 2.727,-0.139 29.097,21.961c15.08,12.638 15.969,13.272 14.608,14.166" style="fill:none;stroke:#f68fba;stroke-width:3.13px;stroke-linecap:round;stroke-miterlimit:1.5;"/><path d="M411.662,219.989c2.634,1.488 2.507,1.396 5.355,2.302c3.638,3.862 16.282,20.425 17.66,22.23c7.654,10.027 8.464,9.546 12.381,21.392c-1.365,2.806 -1.346,2.793 -1.475,3.03c-0.475,0.878 -0.7,0.571 -1.184,1.465c-1.183,-7.75 -1.98,-7.422 -6.003,-14.104c-0.109,-0.182 -0.044,-0.191 -0.596,-2.581c-0.976,-1.501 -0.014,-1.784 -1.189,-3.322c-0.259,-0.339 -0.648,0.158 -4.048,-3.477c-0.254,-0.272 0.556,-0.734 -2.321,-4.032c-8.634,-9.896 -8.446,-9.908 -9.205,-10.748c-0.738,-2.826 -0.918,-2.644 -3.158,-4.531c-2.503,-2.35 -4.472,-2.646 -6.218,-7.624Z" style="fill:#fbd4cf;fill-opacity:0.72;stroke:#f68fba;stroke-width:3.13px;"/><path d="M221.59,165.24c8.173,-3.941 26.781,-1.946 29.099,-1.697c0.632,0.068 0.929,0.97 1.549,1.11c0.954,0.216 0.945,-1.843 12.223,0.296c0.686,0.13 0.899,1.196 1.571,1.384c0.536,0.15 1.038,-0.461 1.593,-0.497c4.713,-0.31 4.415,1.436 9.214,1.628c4.827,0.193 4.367,1.252 6.072,1.902c4.372,1.667 4.748,-0.181 9.118,1.714c3.185,1.381 3.037,1.448 6.319,2.549c-0.802,0.13 -0.707,-0.224 -1.501,-0.095c-0.283,0.046 -0.257,0.066 -3.473,0.895c-16.948,-4.025 -16.475,-5.318 -21.119,-5.742c-8.639,-0.789 -8.462,-1.514 -9.208,-1.551c-7.05,-0.35 -6.898,-0.581 -13.817,-1.524c-13.809,-1.883 -13.772,-0.029 -27.641,-0.371Z" style="fill:#fbd4cf;fill-opacity:0.38;stroke:#f68fba;stroke-width:3.13px;"/><path d="M223.176,103.259c-13.497,6.875 -12.285,-9.957 -3.249,-11.334c5.719,-0.872 11.335,3.681 3.249,11.334Z" style="fill:#fbd4cf;stroke:#f68fba;stroke-width:3.13px;"/><path d="M250.902,95.619c7.063,-6.185 11.957,1.554 11.8,2.937c-1.466,12.937 -19.198,6.293 -11.8,-2.937Z" style="fill:#fbd4cf;stroke:#f68fba;stroke-width:3.13px;"/><path d="M497.952,30.445c2.981,0.834 2.867,0.736 6.045,1.248c6.38,1.028 14.362,7.105 14.118,10.068c-0.593,7.209 -8.283,8.167 -9.27,8.29c0.256,-0.246 3.205,-3.072 3.205,-3.072c3.924,-2.005 2.613,-3.803 2.672,-5.253c0.023,-0.572 0.655,-1.256 0.286,-1.695c-0.26,-0.309 -0.614,0.453 -4.585,-2.111c-2.398,-1.548 -2.461,-1.168 -4.923,-2.183c-0.664,-0.334 -0.092,-2.37 -4.597,-1.277c-13.291,-0.774 -21.138,-0.391 -22.974,-0.301c0.759,-0.545 0.714,-1.839 1.473,-2.384c0.982,-0.705 9.554,3.172 18.55,-1.331Z" style="fill:#fbd4cf;fill-opacity:0.56;stroke:#f68fba;stroke-width:3.13px;"/><path d="M361.268,133.835c-0.451,0.669 -5.02,7.441 -10.02,1.118c-0.287,-0.363 -0.5,-3.862 -0.52,-4.2c-0.47,-7.743 14.437,-10.405 10.54,3.082Z" style="fill:#fbd4cf;stroke:#f68fba;stroke-width:3.13px;"/><path d="M387.487,192.054c3.09,1.505 6.102,2.617 6.644,2.817c1.605,2.958 2.642,3.998 2.936,4.293c0.257,0.562 -0.347,1.289 -0.091,1.851c0,0 3.039,1.378 3.303,1.498c0.937,1.239 0.905,1.122 2.027,2.297c11.242,11.77 12.012,14.685 14.711,17.481c-2.848,-0.906 -2.722,-0.814 -5.355,-2.302c-1.135,-1.066 -1.069,-1.07 -17.428,-19.158c-0.941,-1.04 0.243,-1.424 -0.666,-2.595c-0.214,-0.275 -0.56,0.112 -3.179,-2.982c-0.223,-0.264 -0.208,-0.215 -2.903,-3.201Z" style="fill:#fbd4cf;fill-opacity:0.69;stroke:#f68fba;stroke-width:3.13px;"/><path d="M394.678,175.974c2.532,-0.55 2.456,-0.187 4.996,-0.785c5.18,3.085 32.455,16.996 35.293,18.443l-3.473,0.74c-0.726,-0.201 -0.709,0.063 -1.351,-0.374c-8.699,-5.91 -22.219,-10.549 -23.01,-12.3c-1.036,-2.295 -7.557,-2.726 -12.455,-5.724Z" style="fill:#fbd4cf;fill-opacity:0.65;stroke:#f68fba;stroke-width:3.13px;"/><path d="M270.732,123.184c-13.81,3.941 -7.872,-10.083 -3.271,-9.842c4.229,0.221 5.207,-0.492 6.56,3.55c1.23,3.673 -2.34,5.109 -3.289,6.292Z" style="fill:#fbd4cf;stroke:#f68fba;stroke-width:3.13px;"/><path d="M424.155,47.79c0.059,0.427 -0.676,0.71 -0.617,1.137c0.375,2.7 0.817,2.648 -0.193,5.083c-1.597,-0.544 -1.563,-2.353 -5.484,-0.474c-9.871,4.73 -13.581,4.662 -15.406,9.775c-0.692,-1.799 -2.63,-4.479 -2.895,-4.844c9.381,-5.294 13.908,-7.93 24.595,-10.677Z" style="fill:#fbd4cf;stroke:#f68fba;stroke-width:3.13px;"/><path d="M413.628,68.23c1.554,0.083 3.108,0.167 4.661,0.25c-3.908,2.108 -4.13,1.34 -9.27,4.284c-5.991,3.432 -5.852,3.664 -6.444,3.734c-3.571,0.425 -2.681,2.55 -6.144,3.078c-4.434,0.676 -3.038,3.614 -7.383,4.218c-4.17,0.58 -3.444,2.681 -7.603,2.996l-1.911,-0.811c29.403,-15.935 31.226,-16.64 34.094,-17.75Z" style="fill:#fbd4cf;fill-opacity:0.48;stroke:#f68fba;stroke-width:3.13px;"/><path d="M365.846,146.108c-0.098,-0.725 -1.135,-8.415 3.172,-8.582c1.324,-0.051 4.25,0.845 5.698,4.095c0.908,2.038 -1.945,13.837 -8.87,4.487Z" style="fill:#fbd4cf;stroke:#f68fba;stroke-width:3.13px;"/><path d="M201.401,39.837c19.174,-8.366 15.1,8.761 15.047,9.399c-0.286,-0.309 -2.944,-5.437 -5.804,-5.567c-5.337,-0.242 -5.537,-0.106 -9.243,-3.832Z" style="fill:#fbd4cf;stroke:#f68fba;stroke-width:3.13px;"/><path d="M448.637,39.954c-0.283,3.153 -1.54,7.358 -1.727,7.984c-2.368,-1.829 -1.381,-3.834 -4.299,-3.154c-8.911,2.076 -8.168,3.605 -11.284,4.98c-1.911,-1.83 -2.143,-1.34 -3.973,-3.1c10.839,-5.414 19.511,-6.49 21.283,-6.71Z" style="fill:#fbd4cf;stroke:#f68fba;stroke-width:3.13px;"/><path d="M293.374,174.429c3.216,-0.829 3.19,-0.849 3.473,-0.895c0.794,-0.129 0.699,0.225 1.501,0.095c6.903,1.977 15.066,7.516 16.875,7.73c1.05,0.125 0.929,0.248 9.145,4.723c-1.14,0.22 -2.28,0.44 -3.42,0.66c-1.577,-0.436 -12.615,-5.229 -13.15,-5.668c-6.193,-5.092 -7.211,-2.947 -14.425,-6.645Z" style="fill:#fbd4cf;fill-opacity:0.57;stroke:#f68fba;stroke-width:3.13px;"/><path d="M341.559,169.19c2.787,-2.71 2.52,-2.918 2.825,-3.051c2.093,-0.913 6.635,1.228 7.208,4.654c1.372,8.208 -9.245,8.111 -10.033,-1.603Z" style="fill:#fbd4cf;stroke:#f68fba;stroke-width:3.13px;"/><path d="M431.494,194.372l3.473,-0.74c0.868,0.687 17.143,8.444 27.574,13.939c-1.108,0.237 -2.215,0.474 -3.323,0.71c-0.27,-0.049 -23.739,-10.641 -27.724,-13.909Z" style="fill:#fbd4cf;fill-opacity:0.46;stroke:#f68fba;stroke-width:3.13px;"/><path d="M390.198,144.541c-6.677,13.408 -12.062,-5.581 -5.956,-6.221c5.233,-0.549 5.883,5.536 5.956,6.221Z" style="fill:#fbd4cf;stroke:#f68fba;stroke-width:3.13px;"/><path d="M293.722,100.028c2.581,6.524 -0.737,7.978 -7.293,5.5c-4.14,-1.565 -0.436,-12.565 7.293,-5.5Z" style="fill:#fbd4cf;stroke:#f68fba;stroke-width:3.13px;"/><path d="M192.434,102.737c10.895,6.552 -2.304,10.76 -5.718,6.178c-3.988,-5.351 5.047,-6.121 5.718,-6.178Z" style="fill:#fbd4cf;stroke:#f68fba;stroke-width:3.13px;"/><path d="M481.34,49.29c0.225,2.512 0.06,2.413 -0.324,4.815c-7.244,0.415 -7.246,0.704 -7.817,0.447c0,0 -0.286,-3.55 -0.311,-3.859c1.624,-2.46 1.121,-2.75 3.406,-4.552c3.402,-2.684 4.614,-1.215 5.046,3.149Z" style="fill:#fbd4cf;stroke:#f68fba;stroke-width:3.13px;"/><path d="M451.897,39.051c0.745,1.408 0.767,1.322 2.721,4.264c0.507,6.27 -1.102,7.372 -7.233,5.954l-0.474,-1.331c0.187,-0.626 1.444,-4.831 1.727,-7.984l3.26,-0.903Z" style="fill:#fbd4cf;stroke:#f68fba;stroke-width:3.13px;"/><path d="M95.761,135.519c-5.497,1.875 -8.011,-0.035 -5.145,-4.98c0.284,-0.49 3.509,-6.054 6.908,-1.557c2.48,3.28 1.269,3.721 -1.763,6.537Z" style="fill:#fbd4cf;stroke:#f68fba;stroke-width:3.13px;"/><path d="M82.474,186.266c2.344,-2.15 2.496,-1.761 5.455,-3.084c10.651,5.236 -5.485,13.019 -6.161,5.928c-0.022,-0.233 0.052,-0.211 0.706,-2.844Z" style="fill:#fbd4cf;stroke:#f68fba;stroke-width:3.13px;"/><path d="M242.852,115.234c-0.515,0.452 -1.031,0.904 -1.546,1.357c-4.05,0.597 -5.419,1.364 -5.971,-2.721c-1.105,-8.179 14.21,-6.039 7.518,1.364Z" style="fill:#fbd4cf;stroke:#f68fba;stroke-width:3.13px;"/><path d="M324.413,121.417c-0.456,-0.081 -6.444,-1.147 -3.433,-4.664c2.622,-3.062 3.305,-1.501 6.62,-2.043c4.287,-0.701 6.047,6.095 -3.187,6.707Z" style="fill:#fbd4cf;stroke:#f68fba;stroke-width:3.13px;"/><path d="M410.439,164.441c-3.605,-4.277 -2.535,-6.855 3.053,-6.511c7.958,0.49 4.028,10.886 -3.053,6.511Z" style="fill:#fbd4cf;stroke:#f68fba;stroke-width:3.13px;"/><path d="M374.92,200.061c-0.41,-0.419 -4.545,-4.642 -0.99,-7.255c4.082,-3.001 13.898,11.109 0.99,7.255Z" style="fill:#fbd4cf;stroke:#f68fba;stroke-width:3.13px;"/><path d="M206.242,118.448c0.336,-10.818 10.718,-5.259 8.079,-1.301c-2.175,3.262 -2.601,2.745 -6.357,3.644c-0.62,-1.407 -0.694,-1.237 -1.722,-2.343Z" style="fill:#fbd4cf;stroke:#f68fba;stroke-width:3.13px;"/><path d="M399.56,58.467c0.265,0.366 2.203,3.045 2.895,4.844c0.136,0.977 0.273,1.955 0.409,2.932c-3.295,2.147 -3.802,4.692 -6.154,1.499c-0.016,-0.239 -0.206,-2.982 -0.206,-2.982c-0.154,-2.372 -0.95,-1.917 -1.72,-3.47c4.192,-2.44 4.149,-2.383 4.775,-2.824Z" style="fill:#fbd4cf;stroke:#f68fba;stroke-width:3.13px;"/><path d="M103.73,117.19c1.972,-1.465 1.94,-1.211 4.175,-1.707c3.316,2.175 4.085,3.005 1.497,6.003c-1.683,1.949 -3.635,3.404 -6.216,0.148c-0.603,-0.76 -0.338,-0.697 -0.362,-1.546c-0.046,-1.628 0.427,-1.367 0.906,-2.898Z" style="fill:#fbd4cf;stroke:#f68fba;stroke-width:3.13px;"/><path d="M292.167,118.51c0.567,0.016 7.515,0.214 5.568,4.385c-1.839,3.939 -15.276,1.012 -5.568,-4.385Z" style="fill:#fbd4cf;stroke:#f68fba;stroke-width:3.13px;"/><path d="M69.517,148.039c-2.772,-0.725 -3.628,-0.594 -3.187,-3.485c1.156,-7.579 11.596,-2.43 5.937,2.678c-0.917,0.269 -1.833,0.538 -2.75,0.806Z" style="fill:#fbd4cf;stroke:#f68fba;stroke-width:3.13px;"/><path d="M57.245,141.531c1.932,3.163 1.728,3.712 -1.377,6.327c-3.659,3.082 -5.193,-1.168 -5.344,-1.587c1.901,-3.97 2.343,-3.718 6.721,-4.74Z" style="fill:#fbd4cf;stroke:#f68fba;stroke-width:3.13px;"/><path d="M127.782,153.422c3.124,0.075 3.156,-0.078 3.374,0.081c4.715,3.435 -3.719,7.831 -5.94,5.991c-1.278,-1.059 -0.212,-4.814 0.118,-5.177c0.585,-0.642 1.863,-0.253 2.448,-0.896Z" style="fill:#fbd4cf;stroke:#f68fba;stroke-width:3.13px;"/><path d="M425.885,62.385c3.639,1.033 3.516,1.047 7.29,1.94c-6.993,1.295 -6.905,1.521 -7.516,1.473c-4.008,-0.316 -3.389,1.865 -7.37,2.683c-1.554,-0.083 -3.108,-0.167 -4.661,-0.25c2.215,-1.045 2.058,-1.083 4.376,-2.065c0.644,-0.273 0.434,-0.45 7.881,-3.78Z" style="fill:#fbd4cf;fill-opacity:0.4;stroke:#f68fba;stroke-width:3.13px;"/><path d="M476.476,56.21c-6.899,2.039 -11.516,2.031 -18.577,3.434c-4.647,-0.663 -4.558,-0.648 -9.172,-1.189c3.421,-0.487 3.564,-2.109 13.913,-0.863c1.104,0.133 0.984,-1.234 13.836,-1.382Z" style="fill:#fbd4cf;fill-opacity:0.42;stroke:#f68fba;stroke-width:3.13px;"/><path d="M100.541,173.742c1.921,-1.348 3.841,-2.695 5.762,-4.043c8.354,4.567 -4.278,8.501 -5.779,5.438c-0.205,-0.417 0.222,-0.977 0.018,-1.395Z" style="fill:#fbd4cf;stroke:#f68fba;stroke-width:3.13px;"/><path d="M393.24,159.867c1.632,-2.199 1.136,-2.939 3.31,-2.931c6.154,0.022 3.026,11.037 -2.679,5.764c-1.795,-1.659 -0.452,-2.028 -0.631,-2.833Z" style="fill:#fbd4cf;stroke:#f68fba;stroke-width:3.13px;"/><path d="M244.584,133.714c-2.576,-0.546 -3.131,-0.351 -3.242,-2.947c-0.012,-0.272 -0.087,-2.024 1.762,-2.915c3.466,-1.67 10.638,5.077 1.48,5.862Z" style="fill:#fbd4cf;stroke:#f68fba;stroke-width:3.13px;"/><path d="M355.323,187.581c0.973,-2.425 0.22,-3.618 2.884,-3.492c0.263,0.012 1.815,0.086 2.52,2.125c1.255,3.626 -5.255,10.712 -5.405,1.367Z" style="fill:#fbd4cf;stroke:#f68fba;stroke-width:3.13px;"/><path d="M355.323,187.581c0.973,-2.425 0.22,-3.618 2.884,-3.492c0.263,0.012 1.815,0.086 2.52,2.125c1.255,3.626 -5.255,10.712 -5.405,1.367Z" style="fill:#fbd4cf;stroke:#f68fba;stroke-width:3.13px;"/><path d="M373.603,165.771c3.069,0.887 3.02,0.759 6.085,0.247c1.457,0.337 1.402,0.447 10.724,4.657l-3.407,0.7c-6.13,-1.63 -5.759,-2.453 -11.812,-4.272l-1.59,-1.333Z" style="fill:#fbd4cf;fill-opacity:0.57;stroke:#f68fba;stroke-width:3.13px;"/><path d="M103.041,165.756l3.262,3.943c-1.921,1.348 -3.841,2.695 -5.762,4.043l-3.44,-3.19c2.794,-2.633 2.775,-2.394 5.94,-4.796Z" style="fill:#fbd4cf;stroke:#f68fba;stroke-width:3.13px;"/><path d="M364.197,204.398c5.552,-6.943 7.831,1.378 4.756,4.69c-0.439,-0.208 -0.987,0.508 -1.426,0.3c-2.533,-1.199 -1.764,-1.789 -3.33,-4.99Z" style="fill:#fbd4cf;stroke:#f68fba;stroke-width:3.13px;"/><path d="M85.784,179.386c0.715,1.265 1.43,2.53 2.145,3.795c-2.959,1.323 -3.111,0.934 -5.455,3.084c-1.233,-0.586 -2.466,-1.171 -3.699,-1.757c2.878,-3.368 3.18,-2.837 7.009,-5.122Z" style="fill:#fbd4cf;stroke:#f68fba;stroke-width:3.13px;"/><path d="M137.117,172.111c-2.747,-1.495 -2.741,-1.454 -2.751,-1.551c-0.062,-0.556 1.02,-3.525 1.626,-3.792c3.755,-1.655 8.851,3.935 1.125,5.343Z" style="fill:#fbd4cf;stroke:#f68fba;stroke-width:3.13px;"/><path d="M344.415,189.314c-0.391,-0.263 -4.186,-2.823 -3.279,-4.89c1.099,-2.506 11.289,-1.421 3.279,4.89Z" style="fill:#fbd4cf;stroke:#f68fba;stroke-width:3.13px;"/><path d="M448.727,58.454c4.615,0.541 4.525,0.526 9.172,1.189c-0.739,0.109 -5.969,0.883 -9.214,1.516c-4.45,-0.507 -8.455,-1.109 -9.189,-1.219c4.605,-1.382 4.545,-1.002 9.23,-1.486Z" style="fill:#fbd4cf;fill-opacity:0.44;stroke:#f68fba;stroke-width:3.13px;"/><path d="M378.16,86.295l1.374,-0.315l1.911,0.811c-2.352,2.402 -2.232,2.549 -3.136,2.851c-2.673,0.892 -2.723,0.213 -2.936,0.314c-1.709,0.807 -0.452,3.336 -7.691,4.418c2.291,-1.605 1.854,-2.12 4.529,-3.172c0.004,-0.001 4.66,-4.019 5.949,-4.908Z" style="fill:#fbd4cf;fill-opacity:0.35;stroke:#f68fba;stroke-width:3.13px;"/><path d="M387.004,171.375l3.407,-0.7c4.029,3.375 4.521,2.193 9.263,4.513c-2.54,0.599 -2.464,0.235 -4.996,0.785c-0.672,-0.246 -3.736,-1.37 -7.674,-4.599Z" style="fill:#fbd4cf;fill-opacity:0.51;stroke:#f68fba;stroke-width:3.13px;"/><path d="M220.367,121.868c2.657,-2.171 4.102,-0.684 4.346,-0.434c4.404,4.529 -5.651,6.397 -5.518,3.094c0.039,-0.968 1.133,-1.692 1.172,-2.66Z" style="fill:#fbd4cf;stroke:#f68fba;stroke-width:3.13px;"/><path d="M439.497,59.941c0.733,0.11 4.739,0.713 9.189,1.219c-4.587,0.682 -4.475,0.746 -9.066,1.183c-4.802,-0.153 -4.637,-0.468 -9.325,-0.806c4.567,-1.501 4.491,-1.096 9.203,-1.596Z" style="fill:#fbd4cf;fill-opacity:0.51;stroke:#f68fba;stroke-width:3.13px;"/><path d="M184.707,50.386c-0.421,-0.134 -5.837,-1.859 -3.983,-3.819c2.882,-3.048 12.414,1.282 3.983,3.819Z" style="fill:#fbd4cf;stroke:#f68fba;stroke-width:3.13px;"/><path d="M380.747,73.476c0.017,1.362 0.033,2.724 0.05,4.086l-1.422,0.161c-2.074,1.134 -2.028,1.004 -3.822,2.539c-0.676,-1.08 -1.352,-2.16 -2.028,-3.24c3.309,-2.436 3.253,-2.412 7.221,-3.546Z" style="fill:#fbd4cf;stroke:#f68fba;stroke-width:3.13px;"/><path d="M201.405,57.034c-4.879,7.882 -7.447,-1.196 -5.5,-2.405c1.59,-0.987 5.137,2.09 5.5,2.405Z" style="fill:#fbd4cf;stroke:#f68fba;stroke-width:3.13px;"/><path d="M134.555,16.101c0.868,0.313 1.736,0.627 2.604,0.94c0.806,0.913 1.612,1.826 2.418,2.739c-3.792,3.462 -10.574,0.077 -5.022,-3.679Z" style="fill:#fbd4cf;stroke:#f68fba;stroke-width:3.13px;"/><path d="M362.809,95.497c1.13,0.111 2.26,0.221 3.39,0.332c-0.631,0.545 -4.423,3.825 -9.222,4.856c-1.108,-0.152 -2.216,-0.304 -3.323,-0.456c3.49,-1.74 8.427,-4.347 9.156,-4.732Z" style="fill:#fbd4cf;fill-opacity:0.4;stroke:#f68fba;stroke-width:3.13px;"/><path d="M155.09,15.622c2.692,2.168 3.126,1.533 5.3,4.268c1.443,1.816 1.284,1.823 2.67,3.567c-0.767,-0.168 -3.713,-0.815 -8.442,-5.005c0.157,-0.944 0.315,-1.887 0.472,-2.831Z" style="fill:#fbd4cf;fill-opacity:0.95;stroke:#f68fba;stroke-width:3.13px;"/><path d="M153.963,158.095c-7.379,-2.754 0.78,-6.769 2.421,-3.949c1.436,2.469 0.095,2.411 -2.421,3.949Z" style="fill:#fbd4cf;stroke:#f68fba;stroke-width:3.13px;"/><path d="M345.416,95.101c0.687,1.193 1.373,2.387 2.06,3.58c-2.846,1.222 -2.736,1.136 -5.825,2.029c0.015,-1.446 0.03,-2.891 0.045,-4.337c1.24,-0.424 2.48,-0.849 3.72,-1.273Z" style="fill:#fbd4cf;stroke:#f68fba;stroke-width:3.13px;"/><path d="M207.77,166.721c-4.461,1.731 -4.445,1.192 -9.32,1.954c-1.523,-0.407 -3.045,-0.814 -4.568,-1.221c7.085,-1.095 6.945,-1.706 13.888,-0.733Z" style="fill:#fbd4cf;fill-opacity:0.36;stroke:#f68fba;stroke-width:3.13px;"/><path d="M350.61,101.795c-0.623,2.09 -1.246,4.18 -1.869,6.27c-0.425,-0.204 -6.972,-3.353 -3.954,-4.367c1.953,-0.656 1.937,-0.188 4.005,-0.847c0.16,-0.051 -0,0 1.818,-1.055Z" style="fill:#fbd4cf;fill-opacity:0.87;stroke:#f68fba;stroke-width:3.13px;"/><path d="M193.882,167.454c1.523,0.407 3.045,0.814 4.568,1.221c-7.754,2.375 -7.837,1.198 -9.089,1.117c-1.042,-0.209 -2.084,-0.418 -3.126,-0.627c2.549,-0.57 5.098,-1.14 7.648,-1.71Z" style="fill:#fbd4cf;fill-opacity:0.3;stroke:#f68fba;stroke-width:3.13px;"/><path d="M459.217,208.281c1.108,-0.237 2.215,-0.474 3.323,-0.71c3.883,0.602 3.687,1.011 7.402,2.218l-3.036,1.42c-2.808,-0.465 -7.101,-2.631 -7.689,-2.927Z" style="fill:#fbd4cf;fill-opacity:0.53;stroke:#f68fba;stroke-width:3.13px;"/><path d="M184.629,61.259c-8.177,-3.46 0.353,-5.425 1.57,-4.167c1.999,2.067 -1.263,3.986 -1.57,4.167Z" style="fill:#fbd4cf;stroke:#f68fba;stroke-width:3.13px;"/><path d="M131.074,29.659c-0.563,-0.037 -1.034,0.599 -1.597,0.562c-4.922,-0.327 0.122,-8.393 2.947,-3.835c1.139,1.839 -0.038,1.694 -1.349,3.273Z" style="fill:#fbd4cf;stroke:#f68fba;stroke-width:3.13px;"/><path d="M77.186,130.847c5.944,4.92 -3.101,6.06 -3.31,3.062c-0.185,-2.649 0.969,-1.919 3.31,-3.062Z" style="fill:#fbd4cf;stroke:#f68fba;stroke-width:3.13px;"/><path d="M77.186,130.847c5.944,4.92 -3.101,6.06 -3.31,3.062c-0.185,-2.649 0.969,-1.919 3.31,-3.062Z" style="fill:#fbd4cf;stroke:#f68fba;stroke-width:3.13px;"/><path d="M138.671,29.444c2.835,-1.517 2.897,-2.478 4.248,-1.213c2.143,2.008 -3.58,8.895 -4.248,1.213Z" style="fill:#fbd4cf;stroke:#f68fba;stroke-width:3.13px;"/><path d="M105.786,111.75c0.706,1.244 1.413,2.488 2.119,3.733c-2.235,0.496 -2.203,0.242 -4.175,1.707c-0.672,-1.193 -1.344,-2.385 -2.015,-3.578c2.031,-1.066 1.909,-1.076 4.071,-1.862Z" style="fill:#fbd4cf;stroke:#f68fba;stroke-width:3.13px;"/><path d="M364.197,204.398c1.566,3.201 0.797,3.792 3.33,4.99c0.439,0.208 0.987,-0.508 1.426,-0.3c-1.262,2.653 -1.23,2.63 -1.445,2.975c-2.623,-1.386 -2.404,-1.505 -4.634,-3.275c-0.046,-0.527 -0.093,-1.053 -0.139,-1.58c0.533,-1.568 0.358,-1.569 1.461,-2.81Z" style="fill:#fbd4cf;stroke:#f68fba;stroke-width:3.13px;"/><path d="M69.517,148.039c0.917,-0.269 1.833,-0.538 2.75,-0.806c0.654,1.23 1.309,2.461 1.963,3.691c-1.53,0.505 -3.06,1.011 -4.59,1.516c-0.613,-2.293 -0.683,-2.214 -0.123,-4.4Z" style="fill:#fbd4cf;stroke:#f68fba;stroke-width:3.13px;"/><path d="M425.885,62.385c1.47,-0.283 2.939,-0.565 4.409,-0.848c4.688,0.338 4.523,0.652 9.325,0.806c-3.394,0.747 -3.411,0.363 -6.444,1.982c-3.774,-0.893 -3.651,-0.907 -7.29,-1.94Z" style="fill:#fbd4cf;fill-opacity:0.53;stroke:#f68fba;stroke-width:3.13px;"/><path d="M171.204,53.825c3.222,-5.625 5.648,-1.739 4.769,0.409c-1.72,4.203 -4.558,-0.09 -4.769,-0.409Z" style="fill:#fbd4cf;stroke:#f68fba;stroke-width:3.13px;"/><path d="M166.347,174.011c1.476,0.259 2.952,0.518 4.429,0.777c-0.619,0.096 -4.473,0.694 -7.675,1.548c-1.503,-0.357 -3.005,-0.713 -4.508,-1.07c3.752,-1.318 3.676,-1.133 7.755,-1.256Z" style="fill:#fbd4cf;fill-opacity:0.33;stroke:#f68fba;stroke-width:3.13px;"/><path d="M186.234,169.164c1.042,0.209 2.084,0.418 3.126,0.627c-3.183,1.252 -3.039,1.162 -6.26,1.991c-1.534,-0.449 -3.069,-0.897 -4.603,-1.346c3.856,-1.148 3.788,-0.995 7.738,-1.273Z" style="fill:#fbd4cf;fill-opacity:0.34;stroke:#f68fba;stroke-width:3.13px;"/><path d="M207.77,166.721c2.349,-0.943 1.976,-1.671 4.586,-1.84c3.942,-0.256 3.821,0.101 7.593,0.988c-4.06,0.284 -8.12,0.568 -12.179,0.852Z" style="fill:#fbd4cf;fill-opacity:0.33;stroke:#f68fba;stroke-width:3.13px;"/><path d="M170.862,172.14c2.378,0.498 2.28,0.213 4.695,0.702c-1.594,0.649 -3.187,1.298 -4.781,1.947c-1.476,-0.259 -2.952,-0.518 -4.429,-0.777c1.505,-0.624 3.01,-1.247 4.514,-1.871Z" style="fill:#fbd4cf;fill-opacity:0.3;stroke:#f68fba;stroke-width:3.13px;"/><path d="M153.964,176.734c1.509,0.381 3.018,0.762 4.527,1.143c-1.534,0.505 -3.068,1.009 -4.601,1.514c-2.243,-0.608 -2.168,-0.524 -4.396,-0.744c1.49,-0.637 2.98,-1.275 4.471,-1.912Z" style="fill:#fbd4cf;fill-opacity:0.32;stroke:#f68fba;stroke-width:3.13px;"/><path d="M158.592,175.266c1.503,0.357 3.005,0.713 4.508,1.07c-1.537,0.514 -3.073,1.027 -4.61,1.541c-1.509,-0.381 -3.018,-0.762 -4.527,-1.143c1.543,-0.489 3.086,-0.979 4.628,-1.468Z" style="fill:#fbd4cf;fill-opacity:0.38;stroke:#f68fba;stroke-width:3.13px;"/><path d="M149.493,178.646c2.228,0.221 2.154,0.136 4.396,0.744c-1.475,0.238 -2.95,0.476 -4.425,0.714c-1.539,-0.008 -3.078,-0.017 -4.618,-0.025c1.549,-0.478 3.098,-0.956 4.647,-1.434Z" style="fill:#fbd4cf;fill-opacity:0.36;stroke:#f68fba;stroke-width:3.13px;"/><path d="M111.011,143.092l-1.53,1.33c-1.089,0.373 -2.178,0.747 -3.267,1.12c-0.951,-0.282 -1.903,-0.564 -2.854,-0.846c3.682,-1.396 3.612,-1.147 7.651,-1.604Z" style="fill:#fbd4cf;fill-opacity:0.65;stroke:#f68fba;stroke-width:3.13px;"/><path d="M371.998,164.492c2.367,0.021 2.269,0.173 4.543,0.189c1.049,0.445 2.098,0.891 3.147,1.336c-3.065,0.512 -3.016,0.639 -6.085,-0.247l-1.604,-1.278Z" style="fill:#fbd4cf;fill-opacity:0.6;stroke:#f68fba;stroke-width:3.13px;"/><path d="M104.895,89.288c1.542,3.064 3.026,5.534 3.309,6.004c-1.103,-2.001 -2.206,-4.002 -3.309,-6.004Z" style="fill:#fbd4cf;fill-opacity:0.93;stroke:#f68fba;stroke-width:3.13px;"/><path d="M153.496,5.03c0.268,0.772 1.765,0.598 2.033,1.37c0.162,0.466 -0.031,0.453 -0.425,6.152l-0.772,-1.562c-0.279,-1.987 -0.557,-3.974 -0.836,-5.961Z" style="fill:#fbd4cf;fill-opacity:0.92;stroke:#f68fba;stroke-width:3.13px;"/><path d="M417.88,227.613c2.24,1.887 2.42,1.705 3.158,4.531c-1.951,-2.069 -2.128,-1.81 -3.158,-4.531Z" style="fill:#fbd4cf;fill-opacity:0.89;stroke:#f68fba;stroke-width:3.13px;"/><path d="M397.067,199.164c2.104,1.143 2.063,1.079 3.212,3.349c-0.264,-0.12 -3.303,-1.498 -3.303,-1.498c-0.257,-0.562 0.347,-1.289 0.091,-1.851Z" style="fill:#fbd4cf;fill-opacity:0.25;stroke:#f68fba;stroke-width:3.13px;"/><path d="M154.332,10.991l0.772,1.562l-0.013,3.07c-0.157,0.944 -0.315,1.887 -0.472,2.831c-0.14,-1.446 -0.28,-2.893 -0.421,-4.339l0.135,-3.124Z" style="fill:#fbd4cf;fill-opacity:0.96;stroke:#f68fba;stroke-width:3.13px;"/><path d="M226.049,82.591c0.704,-0.193 0.93,-1.265 1.634,-1.458c0.525,-0.144 0.98,0.545 1.523,0.592c1.638,0.142 1.442,0.503 3.087,1.076c-2.081,-0.07 -4.162,-0.14 -6.243,-0.21Z" style="fill:#fbd4cf;fill-opacity:0.95;stroke:#f68fba;stroke-width:3.13px;"/><path d="M370.536,162.699c3.171,0.707 3.087,0.635 6.004,1.983c-2.274,-0.016 -2.176,-0.168 -4.543,-0.189l-1.462,-1.794Z" style="fill:#fbd4cf;fill-opacity:0.75;stroke:#f68fba;stroke-width:3.13px;"/><path d="M488.241,37.75c2.952,-0.606 3,-0.841 3.18,-0.653c0,0 -0.93,2.868 -1.011,3.118l-2.169,-2.465Z" style="fill:#fbd4cf;stroke:#f68fba;stroke-width:3.13px;"/><path d="M441.316,165.722c1.449,0.598 1.822,-0.383 3.23,1.332c0.717,0.873 0.558,0.874 1.336,1.822c-1.522,-1.052 -3.044,-2.103 -4.566,-3.155Z" style="fill:#fbd4cf;fill-opacity:0.87;stroke:#f68fba;stroke-width:3.13px;"/><path d="M16.043,179.032c-1.136,0.623 -2.273,1.246 -3.409,1.868c-0,0 1.865,-1.362 3.409,-1.868Z" style="fill:#fbd4cf;fill-opacity:0.26;stroke:#f68fba;stroke-width:3.13px;"/><path d="M367.682,94.374c-0.494,0.485 -0.988,0.97 -1.483,1.455c-1.13,-0.111 -2.26,-0.221 -3.39,-0.332c1.624,-0.374 3.248,-0.749 4.873,-1.123Z" style="fill:#fbd4cf;fill-opacity:0.4;stroke:#f68fba;stroke-width:3.13px;"/><path d="M502.688,51.661c-2.328,1.223 -2.257,0.973 -4.791,1.387c1.597,-0.462 3.194,-0.925 4.791,-1.387Z" style="fill:#fbd4cf;fill-opacity:0.24;stroke:#f68fba;stroke-width:3.13px;"/><path d="M508.846,50.05c-2.087,1.498 -2.123,1.222 -4.755,1.485c1.585,-0.495 3.17,-0.99 4.755,-1.485Z" style="fill:#fbd4cf;fill-opacity:0.25;stroke:#f68fba;stroke-width:3.13px;"/><path d="M500.904,34.46c4.506,-1.092 3.933,0.943 4.597,1.277c-1.532,-0.426 -3.065,-0.852 -4.597,-1.277Z" style="fill:#fbd4cf;fill-opacity:0.93;stroke:#f68fba;stroke-width:3.13px;"/><path d="M496.786,38.756c0.261,-0.487 -0.564,-1.143 -0.303,-1.63c0.999,-1.864 1.034,0.478 2.888,1.336c-0.862,0.098 -1.723,0.196 -2.585,0.294Z" style="fill:#fbd4cf;stroke:#f68fba;stroke-width:3.13px;"/><path d="M490.222,54.544c2.227,-0.912 2.099,-1.306 4.52,-0.715c-2.24,0.502 -2.136,0.51 -4.52,0.715Z" style="fill:#fbd4cf;fill-opacity:0.24;stroke:#f68fba;stroke-width:3.13px;"/><path d="M447.456,170.362c0.057,0.028 2.024,-0.629 3.065,1.534c0.346,0.718 -0.261,0.699 0.08,1.408l-3.145,-2.943Z" style="fill:#fbd4cf;fill-opacity:0.84;stroke:#f68fba;stroke-width:3.13px;"/><path d="M371.587,225.091c0.399,0.197 1.666,-1.044 2.952,1.455c0.198,0.384 -0.019,0.899 0.179,1.284c-1.542,-1.477 -2.87,-2.532 -3.13,-2.739Z" style="fill:#fbd4cf;fill-opacity:0.3;stroke:#f68fba;stroke-width:3.13px;"/><path d="M304.479,91.715c1.529,0.377 3.058,0.754 4.587,1.131l-1.558,-0.424c-1.01,-0.236 -2.019,-0.471 -3.029,-0.707Z" style="fill:#fbd4cf;fill-opacity:0.98;stroke:#f68fba;stroke-width:3.13px;"/><path d="M353.757,103.367c-0.798,0.839 -0.639,0.86 -1.532,2.686c-0.215,-0.322 -0.902,-0.001 -1.117,-0.323c-1.319,-1.972 0.549,-1.371 2.649,-2.363Z" style="fill:#fbd4cf;fill-opacity:0.03;stroke:#f68fba;stroke-width:3.13px;"/><path d="M100.657,72.41c0.617,4.323 0.636,4.288 0.669,4.664c-0.206,-0.729 -1.48,-0.797 -1.686,-1.526c-0.072,-0.254 0.075,-0.232 1.017,-3.137Z" style="fill:#fbd4cf;fill-opacity:0.98;stroke:#f68fba;stroke-width:3.13px;"/><path d="M353.173,209.721c0.545,0.292 1.469,-1.004 2.875,1.542c0.331,0.6 -0.056,0.635 0.256,1.2c-1.549,-1.471 -2.871,-2.534 -3.131,-2.742Z" style="fill:#fbd4cf;fill-opacity:0.36;stroke:#f68fba;stroke-width:3.13px;"/><path d="M345.493,203.589c0.416,0.222 1.562,-0.801 2.9,1.548c0.338,0.594 -0.083,0.632 0.235,1.192c-1.551,-1.467 -2.876,-2.531 -3.135,-2.74Z" style="fill:#fbd4cf;fill-opacity:0.38;stroke:#f68fba;stroke-width:3.13px;"/><path d="M361.361,207.293l1.375,-0.085c0.046,0.527 0.093,1.053 0.139,1.58l-1.513,-1.495Z" style="fill:#fbd4cf;stroke:#f68fba;stroke-width:3.13px;"/><path d="M175.743,33.423c0.261,0.106 0.243,0.121 4.043,2.623l-2.721,-0.998l-1.322,-1.625Z" style="fill:#fbd4cf;fill-opacity:0.99;stroke:#f68fba;stroke-width:3.13px;"/><path d="M206.242,118.448c1.028,1.106 1.102,0.935 1.722,2.343c-0.574,-0.781 -1.148,-1.562 -1.722,-2.343Z" style="fill:#fbd4cf;stroke:#f68fba;stroke-width:3.13px;"/><path d="M206.242,118.448c1.028,1.106 1.102,0.935 1.722,2.343c-0.574,-0.781 -1.148,-1.562 -1.722,-2.343Z" style="fill:#fbd4cf;stroke:#f68fba;stroke-width:3.13px;"/></g><path d="M206.242,118.448c1.028,1.106 1.102,0.935 1.722,2.343c-0.574,-0.781 -1.148,-1.562 -1.722,-2.343Z" style="fill:#fbd4cf;stroke:#f68fba;stroke-width:3.13px;"/><path d="M425.394,269.671c4.966,3.113 6.409,3.17 8.133,3.134c1.282,-0.026 -1.201,-4.841 -1.399,-5.225c4.066,3.302 3.656,3.853 8.457,5.851c-0.202,-3.55 -0.577,-3.426 -1.776,-6.808c5.29,1.904 5.466,2.266 5.704,1.743c0.585,-1.286 -1.38,-4.508 -1.593,-4.857c1.544,0.257 3.089,0.514 4.633,0.771c-0.176,-4.441 -0.059,-4.885 -10.081,-14.172" style="fill:none;stroke:#f68fba;stroke-width:3.13px;stroke-linecap:round;stroke-miterlimit:1.5;"/><path d="M18.493,161.325c-9.521,0.581 -12.624,4.433 -18.655,13c10.632,0.242 9.822,-2.23 18.488,-8.232c-10.217,5.666 -10.307,7.578 -14.013,11.301c7.338,-0.505 6.938,-1.484 13.578,-5.025" style="fill:none;stroke:#f68fd2;stroke-width:3.13px;stroke-linecap:round;stroke-miterlimit:1.5;"/><path d="M45.933,210.378c-9.861,2.367 -11.553,11.664 -11.805,13.049c4.407,-0.717 5.394,0.159 15.312,-8.863c-1.03,0.754 -16.092,11.789 -10.665,11.871c11.4,0.17 10.618,-2.475 19.329,-9.756" style="fill:none;stroke:#f68fd2;stroke-width:3.13px;stroke-linecap:round;stroke-miterlimit:1.5;"/><path d="M347.954,110.274c1.727,0.611 3.308,-1.663 9.38,3.318c4.359,3.576 49.075,31.117 55.558,34.798c28.244,16.037 26.709,18.061 55.171,33.868" style="fill:none;stroke:#f68fba;stroke-width:3.13px;stroke-linecap:round;stroke-miterlimit:1.5;"/><path d="M464.048,208.574c1.162,0.301 0.717,1.172 13.369,6.813c-2.221,-5.028 -2.604,-4.719 -6.764,-10.681c5.53,2.901 11.061,5.802 16.591,8.702c-2.979,-3.183 -5.959,-6.366 -8.938,-9.548c4.786,2.414 4.582,2.543 9.744,4.052c-1.878,-13.135 -15.566,-16.624 -23.033,-27.601" style="fill:none;stroke:#f68fba;stroke-width:3.13px;stroke-linecap:round;stroke-miterlimit:1.5;"/><path d="M370.692,167.055c25.779,29.147 28.034,28.73 26.931,33.121" style="fill:none;stroke:#f68fba;stroke-width:3.13px;stroke-linecap:round;stroke-miterlimit:1.5;"/><path d="M433.567,269.725c-0.184,-0.958 -0.535,-2.781 -7.347,-9.73" style="fill:none;stroke:#f68fba;stroke-width:3.13px;stroke-linecap:round;stroke-miterlimit:1.5;"/><path d="M440.368,268.617c-0.252,-0.724 -1.121,-3.216 -5.59,-7.786" style="fill:none;stroke:#f68fba;stroke-width:3.13px;stroke-linecap:round;stroke-miterlimit:1.5;"/><path d="M126.243,55.008c-3.519,-1.684 -5.626,-2.244 -7.32,-10.178c-0.499,-2.338 1.054,-1.602 1.303,-0.941c0.391,1.037 1.513,8.241 7.477,9.414c1.293,0.254 5.812,-1.209 3.777,0.954c-1.373,1.46 -4.832,0.826 -5.237,0.751Z" style="fill:#360300;stroke:#f68fba;stroke-width:3.13px;"/><path d="M126.243,55.008c-3.519,-1.684 -5.626,-2.244 -7.32,-10.178c-0.499,-2.338 1.054,-1.602 1.303,-0.941c0.391,1.037 1.513,8.241 7.477,9.414c1.293,0.254 5.812,-1.209 3.777,0.954c-1.373,1.46 -4.832,0.826 -5.237,0.751Z" style="fill:#360300;stroke:#f68fba;stroke-width:3.13px;"/><path d="M171.243,80.004c-3.519,-1.684 -5.626,-2.244 -7.32,-10.178c-0.499,-2.338 1.054,-1.602 1.303,-0.941c0.391,1.037 1.513,8.241 7.477,9.414c1.293,0.254 5.812,-1.209 3.777,0.954c-1.373,1.46 -4.832,0.826 -5.237,0.751Z" style="fill:#360300;stroke:#f68fba;stroke-width:3.13px;"/><path d="M355.323,187.581c0.973,-2.425 0.22,-3.618 2.884,-3.492c0.263,0.012 1.815,0.086 2.52,2.125c1.255,3.626 -5.255,10.712 -5.405,1.367Z" style="fill:#fbd4cf;stroke:#f68fba;stroke-width:3.13px;"/><path d="M77.186,130.847c5.944,4.92 -3.101,6.06 -3.31,3.062c-0.185,-2.649 0.969,-1.919 3.31,-3.062Z" style="fill:#fbd4cf;stroke:#f68fba;stroke-width:3.13px;"/></g></svg>