<?xml version="1.0" encoding="UTF-8" standalone="no"?><!DOCTYPE svg PUBLIC "-//W3C//DTD SVG 1.1//EN" "http://www.w3.org/Graphics/SVG/1.1/DTD/svg11.dtd"><svg width="100%" height="100%" viewBox="0 0 234 384" version="1.1" xmlns="http://www.w3.org/2000/svg" xmlns:xlink="http://www.w3.org/1999/xlink" xml:space="preserve" xmlns:serif="http://www.serif.com/" style="fill-rule:evenodd;clip-rule:evenodd;stroke-linejoin:round;stroke-miterlimit:2;"><g><path d="M87.507,332.402c-1.003,-16.011 -0.669,-16.474 -1.964,-16.889c-4.119,-1.32 -3.948,0.646 -4.598,4.877c-2.131,13.868 -8.912,37.636 -12.314,45.137c-7.54,16.627 -38.327,18.503 -45.588,-4.714c-11.338,-36.251 -9.699,-53.775 -14.141,-61.216c-1.278,-2.14 -7.155,-11.984 -7.769,-30.176c-1.185,-35.066 6.984,-54.194 11.611,-68.289c0.561,-1.71 -2.246,-1.871 -2.786,-5.209c-2.77,-17.153 7.099,-24.08 7.657,-27.713c3.235,-21.074 5.255,-21.109 3.757,-24.863c-4.991,-12.509 -10.849,-19.264 -5.778,-59.217c0.348,-2.743 -4.035,-2.371 -4.59,-8.235c-1.329,-14.069 5.168,-24.636 6.204,-27.051c0.717,-1.672 -9.201,-14.976 -5.061,-31.425c6.947,-27.603 26.366,-4.203 30.276,-0.218c3.512,3.579 5.455,-0.228 12.7,-1.668c4.806,-0.956 -4.367,-1.96 -3.254,-6.373c1.395,-5.532 16.498,-4.21 16.664,-4.267c1.142,-0.393 0.132,-5.154 8.168,-2.523c8.11,2.656 7.764,8.284 11.408,4.747c8.411,-8.163 21.679,-7.292 18.801,-2.336c-3.4,5.855 5.88,-2.781 21.298,6.953c3.593,2.268 1.2,5.787 1.706,6.455c2.334,3.083 5.172,-7.5 18.109,-13.296c14.582,-6.533 20.576,21.876 10.905,39.389c-2.199,3.983 8.163,10.062 6.522,27.171c-0.538,5.612 -3.23,3.468 -4.577,4.7c-0.847,0.775 -0.296,0.956 0.211,4.338c0.767,5.121 6.243,41.674 -8.275,64.196c-4.554,7.065 -3.219,7.552 -3.317,15.99c-0.189,16.221 0.215,23.42 2.963,23.692c5.693,0.565 44.524,4.418 61.963,35.706c3.543,6.357 4.75,5.408 8.95,11.327c9.654,13.608 9.885,30.851 8.826,34.352c-1.415,4.675 -4.876,2.892 -5.328,3.172c-1.079,0.668 1.953,24.123 -12.283,38.65c-4.978,5.08 -3.273,5.992 -5.581,15.924c-6.212,26.732 -11.543,46.216 -24.374,48.36c-37.465,6.262 -29.303,-31.925 -32.946,-34.182c-1.129,-0.699 -0.234,0.837 -5.421,15.692c-4.415,12.644 -9.183,30.128 -29.832,28.636c-22.144,-1.6 -24.578,-10.343 -28.919,-49.608Z" style="fill:#f9cacf;stroke:#7abfbf;stroke-width:0.75px;"/><path d="M42.097,84.84c8.028,-3.6 7.834,-3.964 11.368,-7.374c2.167,-2.091 3.898,5.321 12.821,8.673c15.086,5.666 20.548,-4.426 22.231,-3.178c1.742,1.292 5.987,6.622 17.428,4.29c8.853,-1.804 13.826,-9.851 14.598,-11.098c1.93,-3.122 5.457,6.068 19.144,6.924c10.898,0.681 14.403,-8.146 14.925,-9.46c1.806,-4.549 4.3,18.623 4.315,18.837c4.187,57.087 -26.164,61.605 -21.409,64.276c1.583,0.889 8.692,-6.639 8.484,-3.645c-1.913,27.534 2.719,39.028 3.985,42.171c3.745,9.294 11.032,11.942 7.735,7.4c-3.202,-4.412 -7.36,-14.51 -4.555,-14.362c4.994,0.263 34.404,3.519 52.447,25.687c5.963,7.326 4.693,8.226 11.082,15.148c13.861,15.016 13.696,39.794 9.719,33.82c-2.564,-3.852 -4.585,-3.903 -4.312,-1.766c0.448,3.498 3.632,28.352 -9.6,43.029l-0.837,-0.271c0.361,-2.619 0.247,-2.573 0.603,-5.218c-0.22,-0.163 -0.44,-0.326 -0.66,-0.489c-0.124,0.05 -0.507,-0.571 -0.816,0.327c-2.729,7.93 -10.022,51.415 -14.798,53.487c-17.774,7.712 -33.422,-0.382 -35.982,-1.706c-6.031,-6.576 -2.945,-8.147 -4.74,-17.883c-1.712,-9.286 0.506,-9.151 2.804,-19.595c0.684,-3.11 1.783,-2.14 4.776,-3.136c12.247,-4.077 22.365,-15.908 20.968,-18.482c-2.233,-4.116 -4.603,8.596 -23.207,15.465c-2.668,0.985 -1.16,-1.171 -0.779,-5.037c0.317,-3.222 -2.405,-3.739 -3.31,-0.625c-3.035,10.451 -0.826,11.014 -13.142,48.617c-2.41,7.359 -0.978,9.161 -8.309,11.716c-20.454,7.129 -39.94,-4.435 -40.421,-6.443c-4.599,-19.201 -4.463,-53.695 -6.143,-54.426c-4.29,-1.868 0.668,11.957 -4.299,11.364c-22.386,-2.671 -30.913,-19.62 -32.163,-20.196c-4.702,-2.165 1.091,8.125 5.947,12.167c11.328,9.428 15.89,8.554 19.48,10.519c1.774,0.971 -3.777,23.425 -8.266,38.323c-0.792,2.629 -1.143,4.937 -13.559,6.466c-12.382,1.525 -27.256,-3.634 -29.808,-5.183c-0.246,-0.149 -1.523,0.249 -6.938,-24.538c-0.957,-4.382 -4.019,-24.537 -3.983,-24.83c0.266,-2.171 5.007,2.255 3.818,-0.638c-0.17,-0.414 -1.928,-4.693 -2.284,-5.106c-0.243,-0.282 -0.244,-0.101 -1.287,0.487c-1.537,0.866 -7.02,-6.624 -8.786,-17.205c-7.189,-43.089 10.541,-80.877 13.722,-89.278c0.441,-1.164 -0.811,-2.923 -3.852,0.416c-4.847,5.322 -3.931,-10.942 3.032,-20.364c4.538,-6.141 1.625,-9.178 5.601,-22.758c0.698,-2.384 6.349,4.704 8.279,5.319c3.912,1.248 -3.327,-6.067 -4.152,-7.054c-15.511,-18.553 -12.759,-57.2 -7.812,-70.227c0.889,-2.34 3.05,2.684 6.236,4.861c5.758,3.933 11.683,2.782 12.475,2.776c0.194,0.295 2.475,3.774 1.446,4.172c-3.55,1.374 -7.31,-2.659 -5.629,0.806c1.238,2.553 7.422,2.705 7.281,4.614c-0.018,0.244 -0.033,0.225 -0.442,3.032c-0.761,12.336 15.234,18.252 22.32,6.895c2.392,-5.617 -1.473,-20.806 -17.43,-16.524c-1.839,0.493 -4.368,-1.973 -4.665,-2.263c-0.791,-0.771 -0.694,-1.708 -0.7,-1.724Z" style="fill:#f9cacf;stroke:#7abfbf;stroke-width:0.75px;"/><path d="M14.753,71.43c0.161,-2.425 1.151,-17.331 11.227,-28.235c12.265,-13.272 19.656,-10.723 18.556,-13.823c-0.488,-1.377 -6.428,-0.043 -2.797,-2.598c11.698,-8.233 12.412,-6.766 20.6,-8.859c0.538,-0.138 2.55,-1.364 -3.195,-6.164c-5.93,-4.955 9.149,-4.066 15.315,-0.381c5.002,2.989 -0.276,-4.706 -0.005,-5.182c1.747,-3.063 10.142,7.091 10.826,7.918c2.127,2.572 1.513,-4.753 13.893,-8.725c3.59,-1.152 -0.191,3.386 -0.487,3.934c-3.557,6.575 2.808,2.109 10.243,1.351c9.807,-1.001 15.642,3.84 15.747,4.515c0.315,2.03 -8.673,2.763 -2.276,4.588c10.742,3.064 21.638,11.972 18.144,12.893c-1.951,0.515 -2.342,1.435 -0.65,2.469c2.871,1.756 24.387,14.91 21.373,36.237c-0.548,3.876 -3.121,-4.455 -8.173,-7.243c-0.221,-0.122 -2.088,-1.152 -1.449,2.808c2.445,15.16 -19.561,15.898 -28.842,3.472c-3.184,-4.263 -4.116,1.327 -4.283,1.704c-5.667,12.833 -22.275,16.446 -28.168,6.719c-3.666,-6.051 -4.333,4.553 -13.67,5.369c-13.922,1.217 -19.626,-11.656 -20.418,-13.444c-2.72,-6.14 -2.57,5.225 -11.978,9.358c-16.804,7.381 -20.024,-8.923 -20.345,-9.151c-1.718,-1.22 -5.16,4.656 -5.256,4.78c-4.354,5.642 -3.912,-4.013 -3.932,-4.311Z" style="fill:#fbd4cf;stroke:#7abfbf;stroke-width:0.75px;"/><path d="M26.424,36.904c-5.572,-7.635 -1.798,-16.184 -1.707,-16.507c1.024,-3.626 -7.689,3.333 0.038,17.268c-0.028,0.556 -0.173,3.422 -3.616,5.949c-2.18,1.6 -7.092,-11.589 -5.954,-20.934c1.918,-15.742 6.961,-17.2 15.589,-11.052c3.387,2.413 8.988,8.772 9.315,9.461c0.821,1.727 -4.205,5.751 -4.221,5.765c-1.723,1.559 -2.885,1.031 -2.466,3.282c0.142,0.765 0.45,2.42 -6.979,6.768Z" style="fill:#fcfcfc;stroke:#7abfbf;stroke-width:0.75px;"/><path d="M148.558,36.502c-1.175,-0.789 -3.424,-1.776 -3.059,-3.381c0.786,-3.456 -1.404,-2.818 -2.097,-5.18c-0.937,-3.195 -2.282,-2.012 -6.558,-5.474c-3.04,-2.461 6.093,-10.96 11.921,-13.871c11.898,-5.944 13.824,21.592 7.291,32.757c-0.273,0.467 -1.75,2.415 -5.54,-3.877c3.931,-5.728 3.217,-12.152 2.904,-12.768c-1.842,-3.627 -1.092,8.091 -3.928,11.691c-0.194,0.246 -0.74,-0.143 -0.933,0.103Z" style="fill:#fcfcfc;stroke:#7abfbf;stroke-width:0.75px;"/><path d="M133.71,99.932c-1.32,-1.25 -1.266,-1.355 -1.423,-1.348c-2.2,0.111 0.732,3.118 -4.594,8.107c-1.101,0.796 -1.068,0.745 -2.335,1.303c0.791,0.087 0.075,0.995 0.842,1.08c0.135,0.015 0.189,0.021 1.483,-0.823c0.23,-0.15 0.387,-0.397 0.618,-0.547c0.384,-0.293 0.414,-0.149 0.838,-0.472c1.246,-0.95 1.185,0.204 1.657,0.285c-0.681,0.677 -5.006,4.978 -11.392,3.803c-17.859,-3.284 -6.635,-25.371 5.299,-23.542c4.357,0.668 4.322,0.108 8.277,-1.981c1.799,-0.95 2.732,0.207 1.448,1.38c-4.693,4.288 2.949,2.382 4.401,2.594c0.009,0.001 2.269,1.775 -3.749,3.84c-2.484,0.853 -2.032,1.602 -1.368,6.32Z" style="fill:#0d0d0d;stroke:#7abfbf;stroke-width:0.75px;"/><path d="M25.845,356.502c0.067,0.004 0.551,-0.206 1.313,0.072c29.678,10.808 37.107,0.337 39.541,2.288c2.533,2.031 -9.337,17.533 -16.383,15.024c-1.276,-0.454 1.545,-11.936 -3.815,-10.892c-1.052,0.205 1.245,5.892 0.044,9.886c-0.616,2.05 -16.616,2.708 -20.7,-16.378Z" style="fill:#fbfbfb;stroke:#7abfbf;stroke-width:0.75px;"/><path d="M41.539,85.045l0.558,-0.204c0.007,0.016 -0.09,0.953 0.7,1.724c0.297,0.29 2.826,2.756 4.665,2.263c15.957,-4.282 19.821,10.906 17.43,16.524c-0.916,-1.603 -1.29,-2.371 -2.54,-1.001c-5.176,6.241 -14.158,6.242 -16.911,-4.538c-0.312,-1.221 -0.195,-2.125 -1.388,-1.383l-1.482,0.027c0.409,-2.808 0.424,-2.788 0.442,-3.032c0.141,-1.91 -6.042,-2.062 -7.281,-4.614c-1.681,-3.465 2.08,0.568 5.629,-0.806c1.028,-0.398 -1.253,-3.877 -1.446,-4.172c0.541,-0.262 1.083,-0.524 1.624,-0.786Z" style="fill:#070707;stroke:#7abfbf;stroke-width:0.75px;"/><path d="M158.504,351.997c17.575,6.673 21.541,6.62 36.633,2.444c2.543,-0.704 -2.539,11.225 -11.223,13.942c-15.327,4.795 -9.29,-9.507 -9.254,-9.687c0.021,-0.108 0.299,-1.512 -1.334,-0.327c-0.39,0.283 -2.409,1.748 -2.293,5.567c0.058,1.924 0.569,1.814 0.596,3.721c0.063,4.329 -13.566,-4.688 -13.124,-15.659Z" style="fill:#fcfcfc;stroke:#7abfbf;stroke-width:0.75px;"/><path d="M114.954,365.09c17.162,1.911 19.462,-2.637 23.202,-2.633c3.215,0.003 -8.463,20.561 -23.161,15.547c-3.249,-1.108 -1.19,-10.174 -0.994,-11.039c0.317,-0.625 0.635,-1.25 0.952,-1.875Z" style="fill:#fcfcfc;stroke:#7abfbf;stroke-width:0.75px;"/><path d="M114.954,365.09c-0.317,0.625 -0.635,1.25 -0.952,1.875c-7.003,-1.482 -2.168,11.422 -4.319,10.975c-12.243,-2.544 -16.117,-20.049 -13.527,-19.023c2.166,0.859 5.357,3.812 18.799,6.173Z" style="fill:#fbfbfb;stroke:#7abfbf;stroke-width:0.75px;"/><path d="M87.388,124.223c11.28,12.156 15.341,-1.7 16.255,-1.908c5.82,-1.325 -4.486,13.951 -13.345,8.156c-4.087,-2.673 -4.25,0.351 -9.109,1.028c-6.098,0.85 -10.54,-6.992 -10.051,-8.459c1.347,-4.047 2.348,5.199 8.523,5.603c5.823,0.381 6.997,-3.345 7.728,-4.42Z" style="fill:#141414;stroke:#7abfbf;stroke-width:0.75px;"/><path d="M85.598,118.019c-2.668,-2.433 -2.611,-2.438 -5.721,-4.194c-4.032,-2.278 1.464,-6.599 6.323,-1.645c2.776,2.83 3.794,-3.556 8.595,-2.078c5.324,1.638 -3.991,5.998 -5.794,8.131c-1.655,1.958 -2.046,0.895 -3.403,-0.213Z" style="fill:#0c0c0c;stroke:#7abfbf;stroke-width:0.75px;"/><path d="M122.571,98.291c-4.267,-6.221 2.851,-6.609 2.859,-6.608c8.058,0.339 3.644,11.327 -2.859,6.608Z" style="fill:#fbfbfb;stroke:#7abfbf;stroke-width:0.75px;"/><path d="M54.003,97.027c-2.295,-6.348 4.36,-5.142 5.35,-4.454c5.573,3.877 -0.286,11.221 -5.35,4.454Z" style="fill:#fafafa;stroke:#7abfbf;stroke-width:0.75px;"/><path d="M42.571,98.456l1.482,-0.027c0.084,0.835 0.702,7.022 4.455,9.502c7.133,4.714 14.588,-0.97 14.447,-2.002c-0.015,-0.109 -0.336,0.147 -0.816,-1.111c-0.113,-0.295 0.324,-0.178 0.212,-0.469c1.25,-1.37 1.623,-0.602 2.54,1.001c-7.086,11.357 -23.081,5.441 -22.32,-6.895Z" style="fill:#303030;stroke:#7abfbf;stroke-width:0.75px;"/><path d="M62.352,104.35c0.111,0.291 -0.325,0.174 -0.212,0.469c0.481,1.258 0.801,1.001 0.816,1.111c0.141,1.032 -7.314,6.716 -14.447,2.002c-3.753,-2.48 -4.371,-8.667 -4.455,-9.502c1.193,-0.742 1.076,0.162 1.388,1.383c2.753,10.78 11.734,10.778 16.911,4.538Z" style="fill:#c9c9c9;stroke:#7abfbf;stroke-width:0.75px;"/><path d="M26.424,36.904c-0.317,0.298 -0.427,-0.262 -0.744,0.036c-0.324,0.305 0.289,0.444 -0.041,0.702c-0.232,0.182 -0.652,-0.16 -0.884,0.022c-7.727,-13.935 0.986,-20.894 -0.038,-17.268c-0.091,0.324 -3.865,8.872 1.707,16.507Z" style="fill:#909090;stroke:#7abfbf;stroke-width:0.75px;"/><path d="M133.71,99.932c-0.381,4.022 -0.485,4.035 -2.914,7.585c-0.472,-0.081 -0.411,-1.235 -1.657,-0.285c-0.423,0.322 -0.453,0.179 -0.838,0.472l-0.608,-1.012c5.326,-4.989 2.394,-7.997 4.594,-8.107c0.157,-0.008 0.103,0.097 1.423,1.348Z" style="fill:#838383;stroke:#7abfbf;stroke-width:0.75px;"/><path d="M148.558,36.502c0.194,-0.246 0.74,0.143 0.933,-0.103c2.835,-3.6 2.086,-15.318 3.928,-11.691c0.313,0.616 1.026,7.039 -2.904,12.768c-0.652,-0.325 -1.304,-0.649 -1.957,-0.974Z" style="fill:#888;stroke:#7abfbf;stroke-width:0.75px;"/><path d="M120.972,108.666c-0.181,0.146 -0.514,-0.216 -0.695,-0.07c-0.391,0.315 -0.388,0.989 -0.801,1.274c-1.78,1.228 -10.314,-6.624 -7.474,-8.185c1.105,-0.607 1.008,1.983 3.043,4.131c2.421,2.556 5.351,2.705 5.927,2.85Z" style="fill:#e9e9e9;stroke:#7abfbf;stroke-width:0.75px;"/><path d="M127.693,106.692l0.608,1.012c-0.23,0.15 -0.387,0.397 -0.618,0.547c-1.294,0.844 -1.348,0.838 -1.483,0.823c-0.766,-0.085 -0.05,-0.992 -0.842,-1.08c1.267,-0.558 1.233,-0.507 2.335,-1.303Z" style="fill:#888;stroke:#7abfbf;stroke-width:0.75px;"/><path d="M87.507,332.402c-1.003,-16.011 -0.669,-16.474 -1.964,-16.889c-4.119,-1.32 -3.948,0.646 -4.598,4.877c-2.131,13.868 -8.912,37.636 -12.314,45.137c-7.54,16.627 -38.327,18.503 -45.588,-4.714c-11.338,-36.251 -9.699,-53.775 -14.141,-61.216c-1.278,-2.14 -7.155,-11.984 -7.769,-30.176c-1.185,-35.066 6.984,-54.194 11.611,-68.289c0.561,-1.71 -2.246,-1.871 -2.786,-5.209c-2.77,-17.153 7.099,-24.08 7.657,-27.713c3.235,-21.074 5.255,-21.109 3.757,-24.863c-4.991,-12.509 -10.849,-19.264 -5.778,-59.217c0.348,-2.743 -4.035,-2.371 -4.59,-8.235c-1.329,-14.069 5.168,-24.636 6.204,-27.051c0.717,-1.672 -9.201,-14.976 -5.061,-31.425c6.947,-27.603 26.366,-4.203 30.276,-0.218c3.512,3.579 5.455,-0.228 12.7,-1.668c4.806,-0.956 -4.367,-1.96 -3.254,-6.373c1.395,-5.532 16.498,-4.21 16.664,-4.267c1.142,-0.393 0.132,-5.154 8.168,-2.523c8.11,2.656 7.764,8.284 11.408,4.747c8.411,-8.163 21.679,-7.292 18.801,-2.336c-3.4,5.855 5.88,-2.781 21.298,6.953c3.593,2.268 1.2,5.787 1.706,6.455c2.334,3.083 5.172,-7.5 18.109,-13.296c14.582,-6.533 20.576,21.876 10.905,39.389c-2.199,3.983 8.163,10.062 6.522,27.171c-0.538,5.612 -3.23,3.468 -4.577,4.7c-0.847,0.775 -0.296,0.956 0.211,4.338c0.767,5.121 6.243,41.674 -8.275,64.196c-4.554,7.065 -3.219,7.552 -3.317,15.99c-0.189,16.221 0.215,23.42 2.963,23.692c5.693,0.565 44.524,4.418 61.963,35.706c3.543,6.357 4.75,5.408 8.95,11.327c9.654,13.608 9.885,30.851 8.826,34.352c-1.415,4.675 -4.876,2.892 -5.328,3.172c-1.079,0.668 1.953,24.123 -12.283,38.65c-4.978,5.08 -3.273,5.992 -5.581,15.924c-6.212,26.732 -11.543,46.216 -24.374,48.36c-37.465,6.262 -29.303,-31.925 -32.946,-34.182c-1.129,-0.699 -0.234,0.837 -5.421,15.692c-4.415,12.644 -9.183,30.128 -29.832,28.636c-22.144,-1.6 -24.578,-10.343 -28.919,-49.608Z" style="fill:#fbd4cf;stroke:#7abfbf;stroke-width:2.03px;"/><path d="M14.753,71.43c0.161,-2.425 1.151,-17.331 11.227,-28.235c12.265,-13.272 19.656,-10.723 18.556,-13.823c-0.488,-1.377 -6.428,-0.043 -2.797,-2.598c11.698,-8.233 12.412,-6.766 20.6,-8.859c0.538,-0.138 2.55,-1.364 -3.195,-6.164c-5.93,-4.955 9.149,-4.066 15.315,-0.381c5.002,2.989 -0.276,-4.706 -0.005,-5.182c1.747,-3.063 10.142,7.091 10.826,7.918c2.127,2.572 1.513,-4.753 13.893,-8.725c3.59,-1.152 -0.191,3.386 -0.487,3.934c-3.557,6.575 2.808,2.109 10.243,1.351c9.807,-1.001 15.642,3.84 15.747,4.515c0.315,2.03 -8.673,2.763 -2.276,4.588c10.742,3.064 21.638,11.972 18.144,12.893c-1.951,0.515 -2.342,1.435 -0.65,2.469c2.871,1.756 24.387,14.91 21.373,36.237c-0.548,3.876 -3.121,-4.455 -8.173,-7.243c-0.221,-0.122 -2.088,-1.152 -1.449,2.808c2.445,15.16 -19.561,15.898 -28.842,3.472c-3.184,-4.263 -4.116,1.327 -4.283,1.704c-5.667,12.833 -22.275,16.446 -28.168,6.719c-3.666,-6.051 -4.333,4.553 -13.67,5.369c-13.922,1.217 -19.626,-11.656 -20.418,-13.444c-2.72,-6.14 -2.57,5.225 -11.978,9.358c-16.804,7.381 -20.024,-8.923 -20.345,-9.151c-1.718,-1.22 -5.16,4.656 -5.256,4.78c-4.354,5.642 -3.912,-4.013 -3.932,-4.311Z" style="fill:#f9cacf;stroke:#7abfbf;stroke-width:1.25px;"/><path d="M26.424,36.904c-5.572,-7.635 -1.798,-16.184 -1.707,-16.507c1.024,-3.626 -7.689,3.333 0.038,17.268c-0.028,0.556 -0.173,3.422 -3.616,5.949c-2.18,1.6 -7.092,-11.589 -5.954,-20.934c1.918,-15.742 6.961,-17.2 15.589,-11.052c3.387,2.413 8.988,8.772 9.315,9.461c0.821,1.727 -4.205,5.751 -4.221,5.765c-1.723,1.559 -2.885,1.031 -2.466,3.282c0.142,0.765 0.45,2.42 -6.979,6.768Z" style="fill:#26b9d9;stroke:#7abfbf;stroke-width:0.75px;"/><path d="M148.558,36.502c-1.175,-0.789 -3.424,-1.776 -3.059,-3.381c0.786,-3.456 -1.404,-2.818 -2.097,-5.18c-0.937,-3.195 -2.282,-2.012 -6.558,-5.474c-3.04,-2.461 6.093,-10.96 11.921,-13.871c11.898,-5.944 13.824,21.592 7.291,32.757c-0.273,0.467 -1.75,2.415 -5.54,-3.877c3.931,-5.728 3.217,-12.152 2.904,-12.768c-1.842,-3.627 -1.092,8.091 -3.928,11.691c-0.194,0.246 -0.74,-0.143 -0.933,0.103Z" style="fill:#26b9d9;stroke:#7abfbf;stroke-width:0.75px;"/><path d="M25.845,356.502c0.067,0.004 0.551,-0.206 1.313,0.072c29.678,10.808 37.107,0.337 39.541,2.288c2.533,2.031 -9.337,17.533 -16.383,15.024c-1.276,-0.454 1.545,-11.936 -3.815,-10.892c-1.052,0.205 1.245,5.892 0.044,9.886c-0.616,2.05 -16.616,2.708 -20.7,-16.378Z" style="fill:#26b9d9;stroke:#7abfbf;stroke-width:0.75px;"/><path d="M158.504,351.997c17.575,6.673 21.541,6.62 36.633,2.444c2.543,-0.704 -2.539,11.225 -11.223,13.942c-15.327,4.795 -9.29,-9.507 -9.254,-9.687c0.021,-0.108 0.299,-1.512 -1.334,-0.327c-0.39,0.283 -2.409,1.748 -2.293,5.567c0.058,1.924 0.569,1.814 0.596,3.721c0.063,4.329 -13.566,-4.688 -13.124,-15.659Z" style="fill:#26b9d9;stroke:#7abfbf;stroke-width:0.75px;"/><path d="M114.954,365.09c17.162,1.911 19.462,-2.637 23.202,-2.633c1.859,0.002 -1.26,6.873 -7.062,11.702c-4.234,3.524 -9.898,5.96 -16.099,3.845c-3.249,-1.108 -1.19,-10.174 -0.994,-11.039c0.317,-0.625 0.635,-1.25 0.952,-1.875Z" style="fill:#26b9d9;stroke:#7abfbf;stroke-width:0.75px;"/><path d="M114.954,365.09c-0.317,0.625 -0.635,1.25 -0.952,1.875c-7.003,-1.482 -2.168,11.422 -4.319,10.975c-12.243,-2.544 -16.117,-20.049 -13.527,-19.023c2.166,0.859 5.357,3.812 18.799,6.173Z" style="fill:#26b9d9;stroke:#7abfbf;stroke-width:0.75px;"/><path d="M87.388,124.223c11.28,12.156 15.341,-1.7 16.255,-1.908c5.82,-1.325 -4.486,13.951 -13.345,8.156c-4.087,-2.673 -4.25,0.351 -9.109,1.028c-6.098,0.85 -10.54,-6.992 -10.051,-8.459c1.347,-4.047 2.348,5.199 8.523,5.603c5.823,0.381 6.997,-3.345 7.728,-4.42Z" style="fill:#26b9d9;stroke:#7abfbf;stroke-width:0.75px;"/><path d="M85.598,118.019c-2.668,-2.433 -2.611,-2.438 -5.721,-4.194c-4.032,-2.278 1.464,-6.599 6.323,-1.645c2.776,2.83 3.794,-3.556 8.595,-2.078c5.324,1.638 -3.991,5.998 -5.794,8.131c-1.655,1.958 -2.046,0.895 -3.403,-0.213Z" style="fill:#26b9d9;stroke:#7abfbf;stroke-width:0.75px;"/><path d="M26.424,36.904c-0.317,0.298 -0.427,-0.262 -0.744,0.036c-0.324,0.305 0.289,0.444 -0.041,0.702c-0.232,0.182 -0.652,-0.16 -0.884,0.022c-7.727,-13.935 0.986,-20.894 -0.038,-17.268c-0.091,0.324 -3.865,8.872 1.707,16.507Z" style="fill:#909090;stroke:#7abfbf;stroke-width:0.75px;"/><path d="M148.558,36.502c0.194,-0.246 0.74,0.143 0.933,-0.103c2.835,-3.6 2.086,-15.318 3.928,-11.691c0.313,0.616 1.026,7.039 -2.904,12.768c-0.652,-0.325 -1.304,-0.649 -1.957,-0.974Z" style="fill:#888;stroke:#7abfbf;stroke-width:0.75px;"/></g><g><g><path d="M47.348,97.404c-7.632,0.749 -4.875,-11.504 -4.875,-11.504c0,0 23.336,5.117 10.357,11.964c-4.165,2.197 -4.628,0.489 -5.482,-0.461Z" style="fill:#fbd4cf;stroke:#26b9d9;stroke-width:3.13px;"/><path d="M48.611,96.647c0.625,-0.607 5.621,-5.454 0.475,-10.877c-0.776,-0.818 -1.52,-0.798 -0.771,-1.682c2.071,-2.444 13.661,6.405 2.613,12.89c-0.09,0.053 -0.155,0.144 -0.249,0.188c-1.74,0.814 -1.516,-0.381 -2.068,-0.519Z" style="fill:#fbd4cf;stroke:#26b9d9;stroke-width:3.13px;"/></g><g><path d="M122.079,98.154c-7.632,0.749 -4.875,-11.504 -4.875,-11.504c0,0 23.336,5.117 10.357,11.964c-4.165,2.197 -4.628,0.489 -5.482,-0.461Z" style="fill:#fbd4cf;stroke:#26b9d9;stroke-width:3.13px;"/><path d="M123.343,97.397c0.625,-0.607 5.621,-5.454 0.475,-10.877c-0.776,-0.818 -1.52,-0.798 -0.771,-1.682c2.071,-2.444 13.661,6.405 2.613,12.89c-0.09,0.053 -0.155,0.144 -0.249,0.188c-1.74,0.814 -1.516,-0.381 -2.068,-0.519Z" style="fill:#fbd4cf;stroke:#26b9d9;stroke-width:3.13px;"/></g></g></svg>