<?xml version="1.0" encoding="UTF-8" standalone="no"?><!DOCTYPE svg PUBLIC "-//W3C//DTD SVG 1.1//EN" "http://www.w3.org/Graphics/SVG/1.1/DTD/svg11.dtd"><svg width="100%" height="100%" viewBox="0 0 493 251" version="1.1" xmlns="http://www.w3.org/2000/svg" xmlns:xlink="http://www.w3.org/1999/xlink" xml:space="preserve" xmlns:serif="http://www.serif.com/" style="fill-rule:evenodd;clip-rule:evenodd;stroke-linejoin:round;stroke-miterlimit:2;"><g><g><path d="M395.511,203.338c-0.02,2.913 0.718,7.381 -2.13,15.671c-5.403,15.726 -27.339,30.735 -30.242,23.939c-2.285,-5.347 2.466,-18.926 -2.601,-27.596c-0.939,-1.607 -7.465,1.306 -10.418,1.723c-6.746,0.952 -6.668,1.321 -13.542,1.092c-4.378,-0.146 -7.681,10.552 -33.148,23.085c-29.255,14.397 -64.579,6.516 -43.193,-3.075c2.656,-1.191 17.476,-7.837 28.281,-22.896c3.502,-4.88 -2.441,-2.115 -21.624,-6.248c-61.68,-13.289 -85.448,-34.782 -110.631,-57.879c-32.42,-29.734 -37.834,-45.505 -72.495,-68.488c-3.593,-2.382 -14.566,-8.122 -15.851,-8.795c-3.254,-1.702 -3.446,-2.635 -7.137,-0.674c-12.091,6.421 -20.687,16.337 -46.718,18.217c-1.295,0.094 -23.186,3.092 -7.268,-10.835c12.732,-11.14 10.69,-12.838 18.136,-23.275c9.883,-13.854 16.314,-7.004 16.639,-10.714c0.231,-2.641 -0.55,-2.603 -0.152,-5.219c1.743,-11.455 10.354,-9.761 8.412,-32.269c-1.188,-13.77 10.16,-8.096 17.957,3.174c20.03,28.951 10.329,40.9 14.533,40.632c18.854,-1.204 19.299,-1.738 52.385,10.5c24.286,8.983 25.363,10.298 49.65,1.224c22.112,-8.261 26.488,9.586 39.865,16.152c47.92,23.523 61.75,17.612 119.813,29.732c30.546,6.376 68.221,-1.769 81.543,24.694c4.99,9.913 3.329,15.04 27.256,22.357c15.665,4.79 15.686,4.539 31.568,8.711c11.911,3.129 10.083,16.263 -8.342,14.812c-24.912,-1.962 -37.507,-8.062 -52.303,0.756c-5.458,3.253 -7.262,4.952 -17.483,8.576c-0.988,0.35 -0.849,0.489 -10.972,7.157c-0.815,0.537 -0.321,0.798 0.215,5.758Z" style="fill:#f68fba;stroke:#f68fba;stroke-width:2.03px;"/><g><path d="M71.652,55.538c3.66,1.142 3.734,1.013 12.891,-0.216c31.355,-4.21 60.569,22.123 82.592,17.761c22.234,-4.404 24.953,-15.824 43.123,0.084c10.573,9.256 10.619,9.24 23.402,15.002c40.951,18.461 62.529,15.056 105.968,24.182c30.372,6.381 32.253,2.373 53.981,5.992c36.6,6.097 25.808,28.654 44.134,36.445c21.251,9.035 42.861,13.211 47.4,14.564c2.049,0.611 7.679,4.565 1.448,5.591c-18.366,0.517 -20.928,-2.696 -38.224,-5.604c-18.828,-3.167 -44.631,-1.794 -38.781,-5.454c2.349,-1.469 0.251,-2.261 -0.991,-1.762c-6.589,2.648 -0.967,7.22 16.475,7.701c23.891,0.658 23.63,2.596 45.735,5.91c11.949,1.792 11.963,0.446 14.955,0.751c0.419,0.043 0.6,0.705 1.019,0.747c-11.145,5.874 -43.661,-9.242 -62.281,0.925c-3.73,2.037 -12.888,8.97 -28.613,12.748c-4.161,0.999 -10.417,1.689 -8.8,3.064c0.617,0.525 0.775,0.525 10.005,-1.584l0.987,0.441c-0.074,0.042 -2.411,1.915 -9.847,4.146c-17.19,5.159 -14.945,10.165 -32.063,15.631c-6.381,2.037 -20.665,4.425 -18.187,1.922c0.409,-0.413 4.35,-4.394 4.049,-6.029c-0.395,-2.145 -4.089,2.329 -4.348,2.643c-18.905,22.9 -46.679,35.009 -64.099,35.23c-1.106,0.014 -26.985,0.343 -12.711,-5.438c1.697,-0.687 8.889,-3.6 19.253,-12.363c12.952,-10.95 20.817,-29.051 20.714,-29.811c-0.623,-4.61 -7.18,9.491 -8.515,10.564c-1.681,1.351 -33.622,-2.891 -59.976,-12.795c-40.297,-15.144 -51.79,-27.739 -68.593,-42.341c-26.397,-22.938 -23.803,-25.479 -47.451,-48.593c-34.414,-33.635 -53.654,-34.119 -46.822,-35.964c5.923,-1.599 9.919,-1.745 10.63,-1.967c0.718,-0.225 2.08,-2.233 -1.524,-2.031c-14.301,0.802 -21.696,6.543 -29.44,11.412c-2.558,1.608 -17.511,11.011 -35.836,11.917c-6.221,0.308 -11.978,0.622 -7.279,-3.929c10.215,-9.89 11.063,-9.25 18.874,-22.513c9.844,-16.714 17.203,-10.692 19.819,-11.758c3.628,-1.478 -4.225,-4.335 1.968,-15.231c7.81,-13.741 6.229,-16.9 5.857,-29.452c-0.296,-9.963 28.745,18.346 25.514,46.541c-0.389,3.395 -3.996,0.404 -6.41,2.921Z" style="fill:#fbd4cf;stroke:#f68fba;stroke-width:2.03px;"/></g><path d="M392.48,201.11c3.666,29.321 -25.402,41.677 -26.701,40.515c-3.018,-2.7 3.217,-10.307 -2.391,-26.995c-0.905,-2.691 1.585,-1.429 13.749,-9.715c1.012,-0.689 9.082,-6.187 14.176,-5.775c1.326,0.107 0.837,0.662 1.166,1.969Z" style="fill:#fbd4cf;stroke:#f68fba;stroke-width:2.03px;"/><path d="M486.591,174.943c1.661,1.715 0.53,1.905 0.188,2.289c-0.419,-0.043 -0.6,-0.705 -1.019,-0.747c-2.992,-0.304 -3.006,1.041 -14.955,-0.751c-22.105,-3.314 -21.844,-5.252 -45.735,-5.91c-17.441,-0.481 -23.064,-5.053 -16.475,-7.701c1.242,-0.499 3.34,0.293 0.991,1.762c-5.85,3.66 19.952,2.287 38.781,5.454c17.296,2.909 19.858,6.121 38.224,5.604Z" style="fill:#f68fba;stroke:#f68fba;stroke-width:2.03px;"/><path d="M317.07,191.676c5.658,0.388 13.921,-0.212 31.277,12.679c0.229,0.17 3.644,2.706 1.638,3.166c-3.527,0.808 -12.318,-12.31 -32.905,-13.312c-7.636,-0.372 -19.683,1.593 -16.814,-0.859c1.812,-1.548 15.454,-1.662 16.805,-1.674Z" style="fill:#fbd4cf;stroke:#f68fba;stroke-width:2.03px;"/><path d="M71.194,56.61c2.718,1.594 20.912,1.999 31.972,8.205c0.902,0.506 0.913,2.11 -1.347,1.293c-26.585,-9.614 -37.185,-5.243 -49.413,-11.44c-4.538,-2.3 -1.888,-3.558 -1.582,-3.519c1.487,0.191 1.035,1.757 17.977,5.298c0.188,0.039 0.177,0.012 2.393,0.163Z" style="fill:#fbd4cf;stroke:#f68fba;stroke-width:2.03px;"/><path d="M197.713,79.901c4.733,1.629 15.263,4.909 12.774,6.19c-0.927,0.477 -11.936,-5.04 -27.594,-8.316c-3.058,-0.64 -1.714,-1.796 -1.526,-1.828c1.892,-0.327 15.056,3.573 16.346,3.955Z" style="fill:#fbd4cf;stroke:#f68fba;stroke-width:2.03px;"/><path d="M403.735,157.554c-3.001,9.503 -12.496,-0.731 -6.436,-3.776c5.444,-2.736 6.346,3.186 6.436,3.776Z" style="fill:#f68fba;stroke:#f68fba;stroke-width:2.03px;"/><path d="M388.988,169.018c-5.759,-3.897 2.158,-4.434 4.311,-1.505c0.216,0.294 1.248,3.27 -4.311,1.505Z" style="fill:#fbd4cf;stroke:#f68fba;stroke-width:2.03px;"/><path d="M381.569,194.964c-2.544,-0.111 -3.046,0.379 -3.047,-0.636c-0.003,-2.151 8.592,-0.252 3.047,0.636Z" style="fill:#fbd4cf;stroke:#f68fba;stroke-width:2.03px;"/><path d="M397.09,192.384c0.517,0.073 0.384,-0.348 0.871,-0.279c0.055,0.008 0.445,0.062 0.511,0.473c0.025,0.153 -0.42,0.094 -0.395,0.247l-0.987,-0.441Z" style="fill:#fbd4cf;stroke:#f68fba;stroke-width:2.03px;"/></g><path d="M278.885,194.892c0.973,-2.425 0.22,-3.618 2.884,-3.492c0.263,0.012 1.815,0.086 2.52,2.125c1.255,3.626 -5.255,10.712 -5.405,1.367Z" style="fill:#fbd4cf;stroke:#f68fba;stroke-width:3.13px;"/><path d="M267.163,185.868c-13.81,-3.908 -7.872,9.999 -3.271,9.76c4.229,-0.22 5.207,0.488 6.56,-3.52c1.23,-3.642 -2.34,-5.066 -3.289,-6.24Z" style="fill:#fbd4cf;stroke:#f68fba;stroke-width:3.13px;"/><path d="M337.407,213.208c-11.243,5.93 -19.325,20.961 -22.829,18.815c-3.785,-2.318 -3.147,-3.941 10.367,-26.993c-17.592,32.903 -16.11,34.711 -21.977,36.736c-6.475,2.236 -7.751,0.215 -7.415,-6.758c0.127,-2.625 3.953,-0.894 13.408,-29.986c-12.023,31.444 -9.194,39.346 -25.275,41.697c-18.158,2.654 -2.535,-8.793 13.759,-38.951c-18.573,34.716 -23.008,38.049 -30.146,40.056c-14.007,3.937 -10.316,-11.083 1.279,-12.601" style="fill:none;stroke:#f68fd2;stroke-width:3.13px;stroke-linecap:round;stroke-miterlimit:1.5;"/><path d="M364.16,215.545c0,14.736 -1.153,14.471 0.616,29.17c11.472,-8.17 8.752,-12.193 8.51,-30.57c0.862,11.787 0.416,11.615 3.426,22.914c10.062,-8.009 5.53,-10.189 6.484,-23.1c1.374,7.448 0.592,7.6 4.351,14.062c9.151,-15.934 5.392,-17.293 4.933,-27.256" style="fill:none;stroke:#f68fd2;stroke-width:3.13px;stroke-linecap:round;stroke-miterlimit:1.5;"/><path d="M290.552,194.114c1.632,-2.199 1.136,-2.939 3.31,-2.931c6.154,0.022 3.026,11.037 -2.679,5.764c-1.795,-1.659 -0.452,-2.028 -0.631,-2.833Z" style="fill:#fbd4cf;stroke:#f68fba;stroke-width:3.13px;"/></g></svg>