<?xml version="1.0" encoding="UTF-8" standalone="no"?><!DOCTYPE svg PUBLIC "-//W3C//DTD SVG 1.1//EN" "http://www.w3.org/Graphics/SVG/1.1/DTD/svg11.dtd"><svg width="100%" height="100%" viewBox="0 0 505 209" version="1.1" xmlns="http://www.w3.org/2000/svg" xmlns:xlink="http://www.w3.org/1999/xlink" xml:space="preserve" xmlns:serif="http://www.serif.com/" style="fill-rule:evenodd;clip-rule:evenodd;stroke-linejoin:round;stroke-miterlimit:2;"><g><path d="M90.885,52.873c-4.416,7.403 -9.12,16.386 -14.112,26.95c-4.992,10.564 -9.696,22.331 -14.112,35.302c6.528,-2.545 13.152,-4.53 19.872,-5.953c6.72,-1.423 13.152,-2.13 19.296,-2.12c1.344,-0.208 2.064,0.401 2.16,1.826c0.096,1.425 -0.192,3.054 -0.864,4.886c-0.672,1.832 -1.632,3.564 -2.88,5.197c-1.248,1.633 -2.544,2.457 -3.888,2.473c-3.264,0.121 -8.304,0.852 -15.12,2.194c-6.816,1.342 -14.64,3.368 -23.472,6.078c-3.84,12.114 -7.056,24.755 -9.648,37.924c-2.592,13.169 -4.176,26.518 -4.752,40.047c-0.192,0.99 -0.864,1.046 -2.016,0.168c-1.152,-0.878 -2.4,-2.077 -3.744,-3.597c-1.344,-1.52 -2.496,-3.118 -3.456,-4.794c-0.96,-1.676 -1.44,-2.897 -1.44,-3.665c-0.576,-7.015 -0.288,-15.747 0.864,-26.198c1.152,-10.45 2.976,-21.628 5.472,-33.534c-5.184,1.954 -10.368,4.195 -15.552,6.725c-2.688,0.992 -4.032,0.624 -4.032,-1.104c0,-1.728 2.112,-4.071 6.336,-7.028c2.304,-1.892 4.8,-3.622 7.488,-5.19c2.688,-1.568 5.472,-3.15 8.352,-4.748c3.072,-13.147 6.72,-25.663 10.944,-37.548c4.224,-11.885 8.64,-21.736 13.248,-29.553c0.768,-0.311 2.592,-0.881 5.472,-1.71c2.88,-0.829 5.808,-1.57 8.784,-2.222c2.976,-0.652 5.568,-1.101 7.776,-1.346c2.208,-0.245 3.216,-0.065 3.024,0.54Zm50.976,-34.955c1.344,-0.208 3.024,0.444 5.04,1.957c2.016,1.512 3.792,3.158 5.328,4.936c1.536,1.778 2.544,3.495 3.024,5.148c0.48,1.654 0.048,2.393 -1.296,2.216c-3.648,-0.204 -9.36,0.439 -17.136,1.93c-7.776,1.49 -16.512,3.513 -26.208,6.069c-9.696,2.555 -19.92,5.576 -30.672,9.063c-10.752,3.487 -20.88,7.069 -30.384,10.747c-9.504,3.678 -17.904,7.425 -25.2,11.241c-7.296,3.816 -12.384,7.387 -15.264,10.712c-0.96,0.724 -2.112,0.951 -3.456,0.678c-1.344,-0.272 -2.496,-0.766 -3.456,-1.482c-0.96,-0.716 -1.632,-1.572 -2.016,-2.568c-0.384,-0.997 -0.096,-1.953 0.864,-2.87c6.72,-6.031 14.304,-11.572 22.752,-16.622c8.448,-5.05 17.184,-9.617 26.208,-13.701c9.024,-4.083 18.144,-7.654 27.36,-10.711c9.216,-3.057 17.904,-5.697 26.064,-7.919c8.16,-2.222 15.6,-4.044 22.32,-5.468c6.72,-1.423 12.096,-2.543 16.128,-3.358Z" style="fill:#fff;fill-rule:nonzero;"/><path d="M143.877,93.35c3.072,-0.283 5.76,0.165 8.064,1.345c1.152,-1.33 3.024,-2.484 5.616,-3.46c2.592,-0.977 5.184,-1.666 7.776,-2.066c2.592,-0.401 4.896,-0.565 6.912,-0.493c2.016,0.072 3.024,0.396 3.024,0.972c-0.384,1.019 -1.2,3.45 -2.448,7.291c-1.248,3.841 -2.688,8.432 -4.32,13.772c-1.632,5.34 -3.312,10.976 -5.04,16.907c-1.728,5.931 -3.216,11.489 -4.464,16.674c-1.248,5.185 -2.208,9.605 -2.88,13.261c-0.672,3.656 -0.72,5.727 -0.144,6.214c1.728,-1.227 4.08,-4.279 7.056,-9.155c2.976,-4.876 6.096,-10.351 9.36,-16.423c3.264,-6.073 6.48,-12.09 9.648,-18.052c3.168,-5.962 5.712,-10.627 7.632,-13.996c0.576,-0.857 1.344,-1.552 2.304,-2.084c0.96,-0.532 1.968,-0.88 3.024,-1.044c1.056,-0.163 1.872,-0.049 2.448,0.341c0.576,0.391 0.672,1.096 0.288,2.115c-2.304,4.58 -4.704,9.367 -7.2,14.361c-2.496,4.994 -5.04,9.899 -7.632,14.716c-2.592,4.817 -4.992,9.316 -7.2,13.497c-2.208,4.181 -4.176,7.75 -5.904,10.705c-0.384,0.635 -1.104,1.755 -2.16,3.358c-1.056,1.603 -2.352,3.244 -3.888,4.921c-1.536,1.678 -3.168,3.178 -4.896,4.501c-1.728,1.323 -3.456,2.118 -5.184,2.386c-5.76,0.507 -9.744,-0.701 -11.952,-3.624c-2.208,-2.923 -3.504,-6.946 -3.888,-12.071c-2.688,4.832 -5.904,9.457 -9.648,13.876c-3.744,4.419 -8.4,7.155 -13.968,8.208c-6.144,1.142 -10.608,0.536 -13.392,-1.817c-2.784,-2.353 -4.608,-5.383 -5.472,-9.09c-0.864,-3.706 -1.008,-7.524 -0.432,-11.453c0.576,-3.929 1.152,-6.898 1.728,-8.907c1.344,-5.392 3.456,-11.238 6.336,-17.54c2.88,-6.301 6.336,-12.212 10.368,-17.731c4.032,-5.52 8.64,-10.168 13.824,-13.946c5.184,-3.778 10.752,-5.935 16.704,-6.471Zm4.608,7.063c-1.152,-1.934 -2.544,-2.535 -4.176,-1.802c-1.632,0.732 -3.456,2.31 -5.472,4.734c-2.016,2.424 -4.128,5.438 -6.336,9.044c-2.208,3.605 -4.272,7.285 -6.192,11.038c-1.92,3.753 -3.648,7.38 -5.184,10.882c-1.536,3.502 -2.688,6.272 -3.456,8.31c-3.456,9.174 -5.28,16.465 -5.472,21.87c-0.192,5.406 1.44,7.649 4.896,6.731c1.536,-0.238 3.072,-1.003 4.608,-2.297c1.536,-1.294 2.928,-2.709 4.176,-4.246c1.248,-1.537 2.304,-2.996 3.168,-4.378c0.864,-1.382 1.488,-2.39 1.872,-3.025c1.536,-2.926 3.504,-7.118 5.904,-12.577c2.4,-5.459 4.656,-11.136 6.768,-17.031c2.112,-5.895 3.744,-11.379 4.896,-16.453c1.152,-5.074 1.152,-8.674 0,-10.8Zm-7.776,-16.942c-0.384,-0.325 -0.048,-1.433 1.008,-3.324c1.056,-1.891 2.4,-4.115 4.032,-6.672c1.632,-2.556 3.408,-5.183 5.328,-7.88c1.92,-2.697 3.552,-5.013 4.896,-6.949c1.152,-1.522 2.64,-2.568 4.464,-3.138c1.824,-0.57 3.504,-0.782 5.04,-0.635c1.536,0.146 2.688,0.592 3.456,1.338c0.768,0.745 0.672,1.768 -0.288,3.069c-2.496,2.69 -5.664,6.204 -9.504,10.542c-3.84,4.338 -8.448,8.746 -13.824,13.226c-1.536,1.006 -2.544,1.353 -3.024,1.044c-0.48,-0.31 -1.008,-0.516 -1.584,-0.619Z" style="fill:#fff;fill-rule:nonzero;"/><path d="M209.541,103.932c-0.576,0.857 -1.152,2.05 -1.728,3.579c-0.576,1.529 -1.104,3.195 -1.584,4.997c-0.48,1.802 -0.96,3.604 -1.44,5.407c-0.48,1.802 -0.912,3.405 -1.296,4.808c-0.384,1.403 -0.624,2.688 -0.72,3.855c-0.096,1.167 -0.24,2.437 -0.432,3.811c0,1.728 0.192,3.618 0.576,5.671c0.384,2.053 1.056,3.917 2.016,5.592c0.96,1.676 2.208,3.115 3.744,4.317c1.536,1.202 3.36,1.928 5.472,2.178c1.92,-3.753 3.696,-7.964 5.328,-12.632c1.632,-4.668 3.12,-9.506 4.464,-14.514c1.152,-4.402 2.016,-8.712 2.592,-12.929c0.576,-4.217 0.864,-7.91 0.864,-11.078c0,-3.168 -0.24,-5.675 -0.72,-7.521c-0.48,-1.846 -1.2,-2.598 -2.16,-2.258c-1.536,0.43 -3.12,1.442 -4.752,3.039c-1.632,1.596 -3.12,3.266 -4.464,5.01c-1.344,1.744 -2.544,3.465 -3.6,5.165c-1.056,1.699 -1.776,2.867 -2.16,3.502Zm-6.624,55.744c1.344,0.176 2.64,-0.312 3.888,-1.465c1.248,-1.153 2.544,-2.601 3.888,-4.345c-4.992,-0.764 -8.736,-2.297 -11.232,-4.599l-0.864,3.878c0,0.192 0.096,0.273 0.288,0.243c-0.576,2.201 -0.432,3.811 0.432,4.829c0.864,1.018 2.064,1.505 3.6,1.459Zm8.64,-76.216l-2.016,10.104c2.496,-3.842 4.992,-6.676 7.488,-8.502c2.496,-1.826 5.856,-3.258 10.08,-4.295c6.144,-1.142 10.464,-0.13 12.96,3.036c2.496,3.166 3.984,7.112 4.464,11.838c0.48,4.726 0.336,9.404 -0.432,14.035c-0.768,4.631 -1.44,7.951 -2.016,9.96c-0.96,3.22 -1.92,6.345 -2.88,9.373c-0.96,3.028 -2.112,6.087 -3.456,9.174c6.336,-5.396 12.48,-11.962 18.432,-19.698c5.952,-7.736 11.232,-15.993 15.84,-24.77c0.576,-0.857 1.392,-1.559 2.448,-2.107c1.056,-0.547 2.064,-0.895 3.024,-1.044c0.96,-0.148 1.728,-0.027 2.304,0.364c0.576,0.391 0.672,1.096 0.288,2.115l-3.744,7.203c-1.728,3.531 -4.08,7.543 -7.056,12.035c-2.976,4.492 -6.432,9.059 -10.368,13.699c-3.936,4.641 -8.208,8.997 -12.816,13.07c-4.608,4.073 -9.408,7.455 -14.4,10.147c-3.264,5.305 -7.248,9.665 -11.952,13.08c-4.704,3.415 -10.128,5.214 -16.272,5.396c-2.88,0.061 -5.184,-0.254 -6.912,-0.947c0,1.92 -0.768,3.143 -2.304,3.668c-1.536,0.526 -3.264,0.601 -5.184,0.226c-1.92,-0.375 -3.648,-0.972 -5.184,-1.79c-1.536,-0.818 -2.304,-1.612 -2.304,-2.38c0,-2.304 0.336,-6.436 1.008,-12.396c0.672,-5.96 1.68,-12.98 3.024,-21.06c1.344,-8.08 2.928,-16.773 4.752,-26.079c1.824,-9.306 3.888,-18.409 6.192,-27.31c2.304,-8.9 4.8,-17.254 7.488,-25.062c2.688,-7.808 5.472,-14.142 8.352,-19.004c0.768,-2.231 2.256,-4.141 4.464,-5.73c2.208,-1.589 4.464,-2.706 6.768,-3.351c2.304,-0.644 4.272,-0.757 5.904,-0.337c1.632,0.42 2.256,1.619 1.872,3.599c-2.688,5.408 -5.616,12.964 -8.784,22.67c-3.168,9.706 -6.192,20.062 -9.072,31.067Z" style="fill:#fff;fill-rule:nonzero;"/><path d="M273.189,79.113c0.384,-1.403 1.584,-2.885 3.6,-4.445c2.016,-1.56 4.176,-2.806 6.48,-3.738c2.304,-0.932 4.464,-1.362 6.48,-1.29c2.016,0.072 3.12,1.054 3.312,2.944c-0.576,0.857 -1.488,3.206 -2.736,7.047c-1.248,3.841 -2.64,8.376 -4.176,13.606c-1.536,5.23 -3.072,10.795 -4.608,16.697c-1.536,5.902 -2.784,11.327 -3.744,16.275c-0.96,4.948 -1.488,9.014 -1.584,12.197c-0.096,3.183 0.528,4.766 1.872,4.751c1.344,-0.016 3.6,-2.141 6.768,-6.375c3.168,-4.234 6.528,-9.313 10.08,-15.239c3.552,-5.925 6.864,-11.957 9.936,-18.097c3.072,-6.139 5.376,-11.247 6.912,-15.325c0,-0.192 0.048,-0.343 0.144,-0.454c0.096,-0.111 0.144,-0.262 0.144,-0.454l6.048,-15.047c0.384,-1.787 1.68,-3.524 3.888,-5.209c2.208,-1.685 4.608,-2.969 7.2,-3.849c2.592,-0.881 4.944,-1.293 7.056,-1.235c2.112,0.057 3.168,0.854 3.168,2.39c-0.576,0.857 -1.488,3.206 -2.736,7.047c-1.248,3.841 -2.64,8.328 -4.176,13.462c-1.536,5.134 -3.024,10.596 -4.464,16.386c-1.44,5.791 -2.64,11.208 -3.6,16.253c-0.96,5.044 -1.536,9.262 -1.728,12.651c-0.192,3.39 0.192,5.298 1.152,5.726c0.576,0.103 2.256,-2.125 5.04,-6.683c2.784,-4.559 6,-9.952 9.648,-16.18c3.648,-6.228 7.2,-12.441 10.656,-18.64c3.456,-6.198 6.24,-10.901 8.352,-14.108c0.576,-0.857 1.44,-1.567 2.592,-2.129c1.152,-0.562 2.208,-0.869 3.168,-0.922c0.96,-0.052 1.728,0.117 2.304,0.508c0.576,0.391 0.576,1.015 0,1.872c-4.416,9.323 -9.216,18.609 -14.4,27.859c-5.184,9.25 -9.984,17.864 -14.4,25.843c-0.384,0.635 -1.152,1.714 -2.304,3.236c-1.152,1.522 -2.448,3.115 -3.888,4.777c-1.44,1.663 -3.024,3.156 -4.752,4.479c-1.728,1.323 -3.36,2.104 -4.896,2.341c-4.416,0.491 -7.776,-0.094 -10.08,-1.753c-2.304,-1.66 -3.936,-3.999 -4.896,-7.019c-0.96,-3.02 -1.392,-6.649 -1.296,-10.888c0.096,-4.239 0.432,-8.611 1.008,-13.116c-1.344,3.856 -3.264,7.993 -5.76,12.411c-2.496,4.418 -5.184,8.578 -8.064,12.479c-2.88,3.901 -5.76,7.227 -8.64,9.976c-2.88,2.749 -5.472,4.398 -7.776,4.946c-4.992,0.772 -8.688,0.096 -11.088,-2.029c-2.4,-2.125 -3.984,-5.048 -4.752,-8.769c-0.768,-3.721 -0.96,-8.06 -0.576,-13.015c0.384,-4.955 0.96,-9.988 1.728,-15.099c0.576,-4.121 1.44,-8.095 2.592,-11.921c1.152,-3.826 2.4,-7.379 3.744,-10.659c1.344,-3.28 2.592,-6.161 3.744,-8.643c1.152,-2.482 1.92,-4.425 2.304,-5.828Z" style="fill:#fff;fill-rule:nonzero;"/><path d="M425.541,69.953c-0.576,1.241 -1.872,3.841 -3.888,7.801c-2.016,3.96 -4.512,8.57 -7.488,13.83c-2.976,5.26 -6.288,10.764 -9.936,16.513c-3.648,5.748 -7.392,11.079 -11.232,15.993c-3.84,4.914 -7.632,8.956 -11.376,12.127c-3.744,3.171 -7.152,4.706 -10.224,4.605c-10.944,-0.036 -17.808,-5.166 -20.592,-15.392c-2.784,-10.225 -2.64,-24.6 0.432,-43.123c0.576,-3.929 1.872,-9.457 3.888,-16.585c2.016,-7.128 4.56,-14.577 7.632,-22.348c3.072,-7.771 6.672,-15.288 10.8,-22.55c4.128,-7.262 8.784,-13.214 13.968,-17.856c1.728,-1.611 3.84,-2.562 6.336,-2.852c2.496,-0.29 4.896,-0.037 7.2,0.759c2.304,0.796 4.32,2.116 6.048,3.961c1.728,1.845 2.688,4 2.88,6.467c0.576,6.631 -0.624,15.072 -3.6,25.325c-2.976,10.252 -6.864,20.741 -11.664,31.468c-4.8,10.726 -9.888,20.825 -15.264,30.296c-5.376,9.471 -10.176,16.646 -14.4,21.523c0.384,4.741 1.2,7.878 2.448,9.413c1.248,1.535 3.12,2.302 5.616,2.3c1.92,0.087 4.896,-2.197 8.928,-6.853c4.032,-4.656 8.256,-10.253 12.672,-16.792c4.416,-6.539 8.688,-13.248 12.816,-20.126c4.128,-6.878 7.44,-12.527 9.936,-16.945c0.576,-0.857 1.392,-1.559 2.448,-2.107c1.056,-0.547 2.064,-0.895 3.024,-1.044c0.96,-0.148 1.728,-0.027 2.304,0.364c0.576,0.391 0.672,1 0.288,1.827Zm-57.888,19.896c-0.96,4.564 -1.68,8.276 -2.16,11.134c-0.48,2.858 -0.816,5.646 -1.008,8.364c2.496,-3.266 5.184,-7.714 8.064,-13.343c2.88,-5.629 5.808,-11.794 8.784,-18.494c2.976,-6.7 5.76,-13.611 8.352,-20.732c2.592,-7.121 4.752,-13.791 6.48,-20.01c1.728,-6.219 2.88,-11.629 3.456,-16.23c0.576,-4.601 0.288,-7.677 -0.864,-9.226c-2.304,0.356 -4.512,1.946 -6.624,4.768c-2.112,2.823 -4.224,6.509 -6.336,11.06c-2.112,4.551 -4.08,9.655 -5.904,15.313c-1.824,5.658 -3.504,11.39 -5.04,17.195c-1.536,5.806 -2.928,11.349 -4.176,16.63c-1.248,5.281 -2.256,9.805 -3.024,13.572Z" style="fill:#fff;fill-rule:nonzero;"/><path d="M450.309,45.963c3.072,-0.283 5.76,0.165 8.064,1.345c1.152,-1.33 3.024,-2.484 5.616,-3.46c2.592,-0.977 5.184,-1.666 7.776,-2.066c2.592,-0.401 4.896,-0.565 6.912,-0.493c2.016,0.072 3.024,0.396 3.024,0.972c-0.384,1.019 -1.2,3.45 -2.448,7.291c-1.248,3.841 -2.688,8.432 -4.32,13.772c-1.632,5.34 -3.312,10.976 -5.04,16.907c-1.728,5.931 -3.216,11.489 -4.464,16.674c-1.248,5.185 -2.208,9.605 -2.88,13.261c-0.672,3.656 -0.72,5.727 -0.144,6.214c1.728,-1.227 4.08,-4.279 7.056,-9.155c2.976,-4.876 6.096,-10.351 9.36,-16.423c3.264,-6.073 6.48,-12.09 9.648,-18.052c3.168,-5.962 5.712,-10.627 7.632,-13.996c0.576,-0.857 1.344,-1.552 2.304,-2.084c0.96,-0.532 1.968,-0.88 3.024,-1.044c1.056,-0.163 1.872,-0.049 2.448,0.341c0.576,0.391 0.672,1.096 0.288,2.115c-2.304,4.58 -4.704,9.367 -7.2,14.361c-2.496,4.994 -5.04,9.899 -7.632,14.716c-2.592,4.817 -4.992,9.316 -7.2,13.497c-2.208,4.181 -4.176,7.75 -5.904,10.705c-0.384,0.635 -1.104,1.755 -2.16,3.358c-1.056,1.603 -2.352,3.244 -3.888,4.921c-1.536,1.678 -3.168,3.178 -4.896,4.501c-1.728,1.323 -3.456,2.118 -5.184,2.386c-5.76,0.507 -9.744,-0.701 -11.952,-3.624c-2.208,-2.923 -3.504,-6.946 -3.888,-12.071c-2.688,4.832 -5.904,9.457 -9.648,13.876c-3.744,4.419 -8.4,7.155 -13.968,8.208c-6.144,1.142 -10.608,0.536 -13.392,-1.817c-2.784,-2.353 -4.608,-5.383 -5.472,-9.09c-0.864,-3.706 -1.008,-7.524 -0.432,-11.453c0.576,-3.929 1.152,-6.898 1.728,-8.907c1.344,-5.392 3.456,-11.238 6.336,-17.54c2.88,-6.301 6.336,-12.212 10.368,-17.731c4.032,-5.52 8.64,-10.168 13.824,-13.946c5.184,-3.778 10.752,-5.935 16.704,-6.471Zm4.608,7.063c-1.152,-1.934 -2.544,-2.535 -4.176,-1.802c-1.632,0.732 -3.456,2.31 -5.472,4.734c-2.016,2.424 -4.128,5.438 -6.336,9.044c-2.208,3.605 -4.272,7.285 -6.192,11.038c-1.92,3.753 -3.648,7.38 -5.184,10.882c-1.536,3.502 -2.688,6.272 -3.456,8.31c-3.456,9.174 -5.28,16.465 -5.472,21.87c-0.192,5.406 1.44,7.649 4.896,6.731c1.536,-0.238 3.072,-1.003 4.608,-2.297c1.536,-1.294 2.928,-2.709 4.176,-4.246c1.248,-1.537 2.304,-2.996 3.168,-4.378c0.864,-1.382 1.488,-2.39 1.872,-3.025c1.536,-2.926 3.504,-7.118 5.904,-12.577c2.4,-5.459 4.656,-11.136 6.768,-17.031c2.112,-5.895 3.744,-11.379 4.896,-16.453c1.152,-5.074 1.152,-8.674 0,-10.8Z" style="fill:#fff;fill-rule:nonzero;"/></g><g><path d="M288.577,160.656l3.744,0l0,17.088l0.096,0c1.024,-1.216 2.216,-2.16 3.576,-2.832c1.36,-0.672 2.856,-1.008 4.488,-1.008c1.76,0 3.368,0.296 4.824,0.888c1.456,0.592 2.696,1.416 3.72,2.472c1.024,1.056 1.824,2.304 2.4,3.744c0.576,1.44 0.864,3.008 0.864,4.704c0,1.696 -0.288,3.264 -0.864,4.704c-0.576,1.44 -1.368,2.688 -2.376,3.744c-1.008,1.056 -2.2,1.88 -3.576,2.472c-1.376,0.592 -2.848,0.888 -4.416,0.888c-2.016,0 -3.784,-0.44 -5.304,-1.32c-1.52,-0.88 -2.632,-1.96 -3.336,-3.24l-0.096,0l0,3.984l-3.744,0l0,-36.288Zm3.744,25.056c0,1.184 0.184,2.28 0.552,3.288c0.368,1.008 0.904,1.888 1.608,2.64c0.704,0.752 1.544,1.344 2.52,1.776c0.976,0.432 2.072,0.648 3.288,0.648c1.216,0 2.312,-0.216 3.288,-0.648c0.976,-0.432 1.816,-1.024 2.52,-1.776c0.704,-0.752 1.24,-1.632 1.608,-2.64c0.368,-1.008 0.552,-2.104 0.552,-3.288c0,-1.184 -0.184,-2.28 -0.552,-3.288c-0.368,-1.008 -0.904,-1.888 -1.608,-2.64c-0.704,-0.752 -1.544,-1.344 -2.52,-1.776c-0.976,-0.432 -2.072,-0.648 -3.288,-0.648c-1.216,0 -2.312,0.216 -3.288,0.648c-0.976,0.432 -1.816,1.024 -2.52,1.776c-0.704,0.752 -1.24,1.632 -1.608,2.64c-0.368,1.008 -0.552,2.104 -0.552,3.288Z" style="fill:#00b4cc;fill-rule:nonzero;"/><path d="M326.353,202.08c-0.384,0.96 -0.776,1.832 -1.176,2.616c-0.4,0.784 -0.88,1.456 -1.44,2.016c-0.56,0.56 -1.232,0.992 -2.016,1.296c-0.784,0.304 -1.736,0.456 -2.856,0.456c-0.544,0 -1.112,-0.032 -1.704,-0.096c-0.592,-0.064 -1.144,-0.224 -1.656,-0.48l0.48,-3.264c0.384,0.16 0.784,0.264 1.2,0.312c0.416,0.048 0.896,0.072 1.44,0.072c1.216,0 2.112,-0.336 2.688,-1.008c0.576,-0.672 1.072,-1.568 1.488,-2.688l1.536,-4.224l-9.312,-22.608l4.368,0l6.96,17.616l0.096,0l6.672,-17.616l4.08,0l-10.848,27.6Z" style="fill:#00b4cc;fill-rule:nonzero;"/><path d="M379.057,169.968c-1.024,-1.376 -2.288,-2.408 -3.792,-3.096c-1.504,-0.688 -3.072,-1.032 -4.704,-1.032c-1.888,0 -3.624,0.384 -5.208,1.152c-1.584,0.768 -2.952,1.8 -4.104,3.096c-1.152,1.296 -2.048,2.8 -2.688,4.512c-0.64,1.712 -0.96,3.496 -0.96,5.352c0,1.984 0.32,3.832 0.96,5.544c0.64,1.712 1.528,3.2 2.664,4.464c1.136,1.264 2.496,2.264 4.08,3c1.584,0.736 3.336,1.104 5.256,1.104c2.08,0 3.936,-0.408 5.568,-1.224c1.632,-0.816 3.056,-1.992 4.272,-3.528l3.024,2.544c-1.536,2.048 -3.384,3.552 -5.544,4.512c-2.16,0.96 -4.6,1.44 -7.32,1.44c-2.432,0 -4.704,-0.448 -6.816,-1.344c-2.112,-0.896 -3.944,-2.136 -5.496,-3.72c-1.552,-1.584 -2.768,-3.464 -3.648,-5.64c-0.88,-2.176 -1.32,-4.56 -1.32,-7.152c0,-2.496 0.424,-4.832 1.272,-7.008c0.848,-2.176 2.04,-4.064 3.576,-5.664c1.536,-1.6 3.36,-2.864 5.472,-3.792c2.112,-0.928 4.432,-1.392 6.96,-1.392c2.304,0 4.52,0.416 6.648,1.248c2.128,0.832 3.912,2.192 5.352,4.08l-3.504,2.544Z" style="fill:#00b4cc;fill-rule:nonzero;"/><path d="M407.953,191.616c0,1.024 0.032,1.984 0.096,2.88c0.064,0.896 0.096,1.712 0.096,2.448l-3.552,0c0,-0.608 -0.016,-1.216 -0.048,-1.824c-0.032,-0.608 -0.048,-1.232 -0.048,-1.872l-0.096,0c-0.256,0.544 -0.616,1.072 -1.08,1.584c-0.464,0.512 -1.016,0.968 -1.656,1.368c-0.64,0.4 -1.36,0.72 -2.16,0.96c-0.8,0.24 -1.664,0.36 -2.592,0.36c-1.472,0 -2.744,-0.224 -3.816,-0.672c-1.072,-0.448 -1.96,-1.072 -2.664,-1.872c-0.704,-0.8 -1.224,-1.768 -1.56,-2.904c-0.336,-1.136 -0.504,-2.376 -0.504,-3.72l0,-13.872l3.744,0l0,13.488c0,1.888 0.416,3.376 1.248,4.464c0.832,1.088 2.128,1.632 3.888,1.632c1.216,0 2.264,-0.208 3.144,-0.624c0.88,-0.416 1.6,-1.008 2.16,-1.776c0.56,-0.768 0.976,-1.68 1.248,-2.736c0.272,-1.056 0.408,-2.224 0.408,-3.504l0,-10.944l3.744,0l0,17.136Zm-8.112,-29.424l5.28,0l-6.864,6.912l-3.408,0l4.992,-6.912Z" style="fill:#00b4cc;fill-rule:nonzero;"/><path d="M415.057,179.808c0,-1.024 -0.032,-1.984 -0.096,-2.88c-0.064,-0.896 -0.096,-1.712 -0.096,-2.448l3.552,0c0,0.608 0.016,1.216 0.048,1.824c0.032,0.608 0.048,1.232 0.048,1.872l0.096,0c0.256,-0.544 0.616,-1.072 1.08,-1.584c0.464,-0.512 1.016,-0.968 1.656,-1.368c0.64,-0.4 1.36,-0.72 2.16,-0.96c0.8,-0.24 1.664,-0.36 2.592,-0.36c1.472,0 2.744,0.224 3.816,0.672c1.072,0.448 1.96,1.072 2.664,1.872c0.704,0.8 1.224,1.768 1.56,2.904c0.336,1.136 0.504,2.376 0.504,3.72l0,13.872l-3.744,0l0,-13.488c0,-1.888 -0.416,-3.376 -1.248,-4.464c-0.832,-1.088 -2.128,-1.632 -3.888,-1.632c-1.216,0 -2.264,0.208 -3.144,0.624c-0.88,0.416 -1.6,1.008 -2.16,1.776c-0.56,0.768 -0.976,1.68 -1.248,2.736c-0.272,1.056 -0.408,2.224 -0.408,3.504l0,10.944l-3.744,0l0,-17.136Z" style="fill:#00b4cc;fill-rule:nonzero;"/><path d="M461.809,192.864c-1.344,1.728 -2.816,2.936 -4.416,3.624c-1.6,0.688 -3.456,1.032 -5.568,1.032c-1.76,0 -3.344,-0.312 -4.752,-0.936c-1.408,-0.624 -2.6,-1.464 -3.576,-2.52c-0.976,-1.056 -1.728,-2.304 -2.256,-3.744c-0.528,-1.44 -0.792,-2.976 -0.792,-4.608c0,-1.728 0.288,-3.32 0.864,-4.776c0.576,-1.456 1.376,-2.704 2.4,-3.744c1.024,-1.04 2.24,-1.848 3.648,-2.424c1.408,-0.576 2.944,-0.864 4.608,-0.864c1.568,0 3.008,0.264 4.32,0.792c1.312,0.528 2.44,1.296 3.384,2.304c0.944,1.008 1.672,2.24 2.184,3.696c0.512,1.456 0.768,3.112 0.768,4.968l0,1.2l-18.144,0c0.064,0.96 0.296,1.88 0.696,2.76c0.4,0.88 0.92,1.648 1.56,2.304c0.64,0.656 1.392,1.176 2.256,1.56c0.864,0.384 1.808,0.576 2.832,0.576c1.632,0 3.008,-0.288 4.128,-0.864c1.12,-0.576 2.128,-1.424 3.024,-2.544l2.832,2.208Zm-3.216,-9.168c-0.064,-1.92 -0.688,-3.456 -1.872,-4.608c-1.184,-1.152 -2.816,-1.728 -4.896,-1.728c-2.08,0 -3.76,0.576 -5.04,1.728c-1.28,1.152 -2.048,2.688 -2.304,4.608l14.112,0Z" style="fill:#00b4cc;fill-rule:nonzero;"/><path d="M467.137,185.712c0,-1.76 0.304,-3.36 0.912,-4.8c0.608,-1.44 1.44,-2.68 2.496,-3.72c1.056,-1.04 2.32,-1.848 3.792,-2.424c1.472,-0.576 3.072,-0.864 4.8,-0.864c1.728,0 3.328,0.288 4.8,0.864c1.472,0.576 2.736,1.384 3.792,2.424c1.056,1.04 1.888,2.28 2.496,3.72c0.608,1.44 0.912,3.04 0.912,4.8c0,1.76 -0.304,3.36 -0.912,4.8c-0.608,1.44 -1.44,2.68 -2.496,3.72c-1.056,1.04 -2.32,1.848 -3.792,2.424c-1.472,0.576 -3.072,0.864 -4.8,0.864c-1.728,0 -3.328,-0.288 -4.8,-0.864c-1.472,-0.576 -2.736,-1.384 -3.792,-2.424c-1.056,-1.04 -1.888,-2.28 -2.496,-3.72c-0.608,-1.44 -0.912,-3.04 -0.912,-4.8Zm4.032,0c0,1.184 0.184,2.28 0.552,3.288c0.368,1.008 0.904,1.888 1.608,2.64c0.704,0.752 1.544,1.344 2.52,1.776c0.976,0.432 2.072,0.648 3.288,0.648c1.216,0 2.312,-0.216 3.288,-0.648c0.976,-0.432 1.816,-1.024 2.52,-1.776c0.704,-0.752 1.24,-1.632 1.608,-2.64c0.368,-1.008 0.552,-2.104 0.552,-3.288c0,-1.184 -0.184,-2.28 -0.552,-3.288c-0.368,-1.008 -0.904,-1.888 -1.608,-2.64c-0.704,-0.752 -1.544,-1.344 -2.52,-1.776c-0.976,-0.432 -2.072,-0.648 -3.288,-0.648c-1.216,0 -2.312,0.216 -3.288,0.648c-0.976,0.432 -1.816,1.024 -2.52,1.776c-0.704,0.752 -1.24,1.632 -1.608,2.64c-0.368,1.008 -0.552,2.104 -0.552,3.288Z" style="fill:#00b4cc;fill-rule:nonzero;"/></g></svg>