<?xml version="1.0" encoding="UTF-8" standalone="no"?>
<!DOCTYPE svg PUBLIC "-//W3C//DTD SVG 1.1//EN" "http://www.w3.org/Graphics/SVG/1.1/DTD/svg11.dtd">
<svg width="100%" height="100%" viewBox="0 0 812 485" version="1.1" xmlns="http://www.w3.org/2000/svg" xmlns:xlink="http://www.w3.org/1999/xlink" xml:space="preserve" xmlns:serif="http://www.serif.com/" style="fill-rule:evenodd;clip-rule:evenodd;stroke-linejoin:round;stroke-miterlimit:2;">
    <g transform="matrix(0.965926,-0.258819,0.258819,0.965926,-461.997895,-139.885938)">
        <path d="M490.427,392.938C484.539,401.898 478.267,412.906 471.611,425.962C464.955,439.018 458.683,453.738 452.795,470.122C461.499,468.074 470.331,466.794 479.291,466.282C488.251,465.77 496.827,466.154 505.019,467.434C506.811,467.434 507.771,468.394 507.899,470.314C508.027,472.234 507.643,474.346 506.747,476.65C505.851,478.954 504.571,481.066 502.907,482.986C501.243,484.906 499.515,485.738 497.723,485.482C493.371,484.97 486.651,484.906 477.563,485.29C468.475,485.674 458.043,486.762 446.267,488.554C441.147,503.914 436.859,520.106 433.403,537.13C429.947,554.154 427.835,571.626 427.067,589.546C426.811,590.826 425.915,590.762 424.379,589.354C422.843,587.946 421.179,586.09 419.387,583.786C417.595,581.482 416.059,579.114 414.779,576.682C413.499,574.25 412.859,572.522 412.859,571.498C412.091,562.026 412.475,550.442 414.011,536.746C415.547,523.05 417.979,508.522 421.307,493.162C414.395,494.698 407.483,496.618 400.571,498.922C396.987,499.69 395.195,498.922 395.195,496.618C395.195,494.314 398.011,491.626 403.643,488.554C406.715,486.506 410.043,484.714 413.627,483.178C417.211,481.642 420.923,480.106 424.763,478.57C428.859,461.674 433.723,445.738 439.355,430.762C444.987,415.786 450.875,403.562 457.019,394.09C458.043,393.834 460.475,393.45 464.315,392.938C468.155,392.426 472.059,392.042 476.027,391.786C479.995,391.53 483.451,391.466 486.395,391.594C489.339,391.722 490.683,392.17 490.427,392.938ZM558.395,356.842C560.187,356.842 562.427,358.058 565.115,360.49C567.803,362.922 570.171,365.482 572.219,368.17C574.267,370.858 575.611,373.354 576.251,375.658C576.891,377.962 576.315,378.858 574.523,378.346C569.659,377.322 562.043,377.002 551.675,377.386C541.307,377.77 529.659,378.666 516.731,380.074C503.803,381.482 490.171,383.402 475.835,385.834C461.499,388.266 447.995,390.954 435.323,393.898C422.651,396.842 411.451,400.106 401.723,403.69C391.995,407.274 385.211,410.986 381.371,414.826C380.091,415.594 378.555,415.658 376.763,415.018C374.971,414.378 373.435,413.482 372.155,412.33C370.875,411.178 369.979,409.898 369.467,408.49C368.955,407.082 369.339,405.866 370.619,404.842C379.579,398.186 389.691,392.362 400.955,387.37C412.219,382.378 423.867,378.09 435.899,374.506C447.931,370.922 460.091,368.042 472.379,365.866C484.667,363.69 496.251,361.962 507.131,360.682C518.011,359.402 527.931,358.506 536.891,357.994C545.851,357.482 553.019,357.098 558.395,356.842Z" style="fill:rgb(0,180,204);fill-rule:nonzero;"/>
        <path d="M561.083,457.834C565.179,458.09 568.763,459.242 571.835,461.29C573.371,459.754 575.867,458.602 579.323,457.834C582.779,457.066 586.235,456.682 589.691,456.682C593.147,456.682 596.219,456.938 598.907,457.45C601.595,457.962 602.939,458.602 602.939,459.37C602.427,460.65 601.339,463.722 599.675,468.586C598.011,473.45 596.091,479.274 593.915,486.058C591.739,492.842 589.499,500.01 587.195,507.562C584.891,515.114 582.907,522.218 581.243,528.874C579.579,535.53 578.299,541.226 577.403,545.962C576.507,550.698 576.443,553.45 577.211,554.218C579.515,552.938 582.651,549.354 586.619,543.466C590.587,537.578 594.747,530.922 599.099,523.498C603.451,516.074 607.739,508.714 611.963,501.418C616.187,494.122 619.579,488.426 622.139,484.33C622.907,483.306 623.931,482.538 625.211,482.026C626.491,481.514 627.835,481.258 629.243,481.258C630.651,481.258 631.739,481.578 632.507,482.218C633.275,482.858 633.403,483.818 632.891,485.098C629.819,490.73 626.619,496.618 623.291,502.762C619.963,508.906 616.571,514.922 613.115,520.81C609.659,526.698 606.459,532.202 603.515,537.322C600.571,542.442 597.947,546.794 595.643,550.378C595.131,551.146 594.171,552.49 592.763,554.41C591.355,556.33 589.627,558.25 587.579,560.17C585.531,562.09 583.355,563.754 581.051,565.162C578.747,566.57 576.443,567.274 574.139,567.274C566.459,566.762 561.147,564.33 558.203,559.978C555.259,555.626 553.531,549.994 553.019,543.082C549.435,548.97 545.147,554.474 540.155,559.594C535.163,564.714 528.955,567.402 521.531,567.658C513.339,567.914 507.387,566.186 503.675,562.474C499.963,558.762 497.531,554.346 496.379,549.226C495.227,544.106 495.035,538.986 495.803,533.866C496.571,528.746 497.339,524.906 498.107,522.346C499.899,515.434 502.715,508.074 506.555,500.266C510.395,492.458 515.003,485.29 520.379,478.762C525.755,472.234 531.899,466.986 538.811,463.018C545.723,459.05 553.147,457.322 561.083,457.834ZM567.227,468.202C565.691,465.386 563.835,464.298 561.659,464.938C559.483,465.578 557.051,467.306 554.363,470.122C551.675,472.938 548.859,476.522 545.915,480.874C542.971,485.226 540.219,489.706 537.659,494.314C535.099,498.922 532.795,503.402 530.747,507.754C528.699,512.106 527.163,515.562 526.139,518.122C521.531,529.642 519.099,538.986 518.843,546.154C518.587,553.322 520.763,556.65 525.371,556.138C527.419,556.138 529.467,555.434 531.515,554.026C533.563,552.618 535.419,551.018 537.083,549.226C538.747,547.434 540.155,545.706 541.307,544.042C542.459,542.378 543.291,541.162 543.803,540.394C545.851,536.81 548.475,531.626 551.675,524.842C554.875,518.058 557.883,510.954 560.699,503.53C563.515,496.106 565.691,489.13 567.227,482.602C568.763,476.074 568.763,471.274 567.227,468.202ZM556.859,444.01C556.347,443.498 556.795,442.09 558.203,439.786C559.611,437.482 561.403,434.794 563.579,431.722C565.755,428.65 568.123,425.514 570.683,422.314C573.243,419.114 575.419,416.362 577.211,414.058C578.747,412.266 580.731,411.178 583.163,410.794C585.595,410.41 587.835,410.474 589.883,410.986C591.931,411.498 593.467,412.33 594.491,413.482C595.515,414.634 595.387,415.978 594.107,417.514C590.779,420.586 586.555,424.618 581.435,429.61C576.315,434.602 570.171,439.53 563.003,444.394C560.955,445.418 559.611,445.674 558.971,445.162C558.331,444.65 557.627,444.266 556.859,444.01Z" style="fill:rgb(0,180,204);fill-rule:nonzero;"/>
        <path d="M648.635,485.482C647.867,486.506 647.099,487.978 646.331,489.898C645.563,491.818 644.859,493.93 644.219,496.234C643.579,498.538 642.939,500.842 642.299,503.146C641.659,505.45 641.083,507.498 640.571,509.29C640.059,511.082 639.739,512.746 639.611,514.282C639.483,515.818 639.291,517.482 639.035,519.274C639.035,521.578 639.291,524.138 639.803,526.954C640.315,529.77 641.211,532.394 642.491,534.826C643.771,537.258 645.435,539.434 647.483,541.354C649.531,543.274 651.963,544.618 654.779,545.386C657.339,540.778 659.707,535.53 661.883,529.642C664.059,523.754 666.043,517.61 667.835,511.21C669.371,505.578 670.523,500.01 671.291,494.506C672.059,489.002 672.443,484.138 672.443,479.914C672.443,475.69 672.123,472.298 671.483,469.738C670.843,467.178 669.883,466.026 668.603,466.282C666.555,466.538 664.443,467.562 662.267,469.354C660.091,471.146 658.107,473.066 656.315,475.114C654.523,477.162 652.923,479.21 651.515,481.258C650.107,483.306 649.147,484.714 648.635,485.482ZM639.803,558.442C641.595,558.954 643.323,558.57 644.987,557.29C646.651,556.01 648.379,554.346 650.171,552.298C643.515,550.25 638.523,547.434 635.195,543.85L634.043,548.842C634.043,549.098 634.171,549.226 634.427,549.226C633.659,552.042 633.851,554.218 635.003,555.754C636.155,557.29 637.755,558.186 639.803,558.442ZM651.323,458.602L648.635,471.658C651.963,467.05 655.291,463.786 658.619,461.866C661.947,459.946 666.427,458.73 672.059,458.218C680.251,457.962 686.011,460.202 689.339,464.938C692.667,469.674 694.651,475.242 695.291,481.642C695.931,488.042 695.739,494.25 694.715,500.266C693.691,506.282 692.795,510.57 692.027,513.13C690.747,517.226 689.467,521.194 688.187,525.034C686.907,528.874 685.371,532.714 683.579,536.554C692.027,530.666 700.219,523.178 708.155,514.09C716.091,505.002 723.131,495.082 729.275,484.33C730.043,483.306 731.131,482.538 732.539,482.026C733.947,481.514 735.291,481.258 736.571,481.258C737.851,481.258 738.875,481.578 739.643,482.218C740.411,482.858 740.539,483.818 740.027,485.098L735.035,493.93C732.731,498.282 729.595,503.146 725.627,508.522C721.659,513.898 717.051,519.274 711.803,524.65C706.555,530.026 700.859,534.954 694.715,539.434C688.571,543.914 682.171,547.434 675.515,549.994C671.163,556.394 665.851,561.386 659.579,564.97C653.307,568.554 646.075,569.834 637.883,568.81C634.043,568.298 630.971,567.402 628.667,566.122C628.667,568.682 627.643,570.154 625.595,570.538C623.547,570.922 621.243,570.666 618.683,569.77C616.123,568.874 613.819,567.722 611.771,566.314C609.723,564.906 608.699,563.69 608.699,562.666C608.699,559.594 609.147,554.154 610.043,546.346C610.939,538.538 612.283,529.386 614.075,518.89C615.867,508.394 617.979,497.13 620.411,485.098C622.843,473.066 625.595,461.354 628.667,449.962C631.739,438.57 635.067,427.946 638.651,418.09C642.235,408.234 645.947,400.362 649.787,394.474C650.811,391.658 652.795,389.418 655.739,387.754C658.683,386.09 661.691,385.066 664.763,384.682C667.835,384.298 670.459,384.554 672.635,385.45C674.811,386.346 675.643,388.074 675.131,390.634C671.547,397.29 667.643,406.762 663.419,419.05C659.195,431.338 655.163,444.522 651.323,458.602Z" style="fill:rgb(0,180,204);fill-rule:nonzero;"/>
        <path d="M733.499,465.514C734.011,463.722 735.611,461.994 738.299,460.33C740.987,458.666 743.867,457.45 746.939,456.682C750.011,455.914 752.891,455.786 755.579,456.298C758.267,456.81 759.739,458.346 759.995,460.906C759.227,461.93 758.011,464.874 756.347,469.738C754.683,474.602 752.827,480.362 750.779,487.018C748.731,493.674 746.683,500.778 744.635,508.33C742.587,515.882 740.923,522.858 739.643,529.258C738.363,535.658 737.659,540.97 737.531,545.194C737.403,549.418 738.235,551.658 740.027,551.914C741.819,552.17 744.827,549.802 749.051,544.81C753.275,539.818 757.755,533.738 762.491,526.57C767.227,519.402 771.643,512.042 775.739,504.49C779.835,496.938 782.907,490.602 784.955,485.482C784.955,485.226 785.019,485.034 785.147,484.906C785.275,484.778 785.339,484.586 785.339,484.33L793.403,465.514C793.915,463.21 795.643,461.162 798.587,459.37C801.531,457.578 804.731,456.362 808.187,455.722C811.643,455.082 814.779,455.018 817.595,455.53C820.411,456.042 821.819,457.322 821.819,459.37C821.051,460.394 819.835,463.338 818.171,468.202C816.507,473.066 814.651,478.762 812.603,485.29C810.555,491.818 808.571,498.794 806.651,506.218C804.731,513.642 803.131,520.618 801.851,527.146C800.571,533.674 799.803,539.178 799.547,543.658C799.291,548.138 799.803,550.762 801.083,551.53C801.851,551.786 804.091,549.162 807.803,543.658C811.515,538.154 815.803,531.626 820.667,524.074C825.531,516.522 830.267,508.97 834.875,501.418C839.483,493.866 843.195,488.17 846.011,484.33C846.779,483.306 847.931,482.538 849.467,482.026C851.003,481.514 852.411,481.322 853.691,481.45C854.971,481.578 855.995,481.962 856.763,482.602C857.531,483.242 857.531,484.074 856.763,485.098C850.875,496.618 844.475,508.01 837.563,519.274C830.651,530.538 824.251,541.034 818.363,550.762C817.851,551.53 816.827,552.81 815.291,554.602C813.755,556.394 812.027,558.25 810.107,560.17C808.187,562.09 806.075,563.754 803.771,565.162C801.467,566.57 799.291,567.274 797.243,567.274C791.355,567.018 786.875,565.546 783.803,562.858C780.731,560.17 778.555,556.714 777.275,552.49C775.995,548.266 775.419,543.338 775.547,537.706C775.675,532.074 776.123,526.314 776.891,520.426C775.099,525.29 772.539,530.41 769.211,535.786C765.883,541.162 762.299,546.154 758.459,550.762C754.619,555.37 750.779,559.21 746.939,562.282C743.099,565.354 739.643,567.018 736.571,567.274C729.915,567.274 724.987,565.61 721.787,562.282C718.587,558.954 716.475,554.73 715.451,549.61C714.427,544.49 714.171,538.666 714.683,532.138C715.195,525.61 715.963,519.018 716.987,512.362C717.755,506.986 718.907,501.866 720.443,497.002C721.979,492.138 723.643,487.658 725.435,483.562C727.227,479.466 728.891,475.882 730.427,472.81C731.963,469.738 732.987,467.306 733.499,465.514Z" style="fill:rgb(0,180,204);fill-rule:nonzero;"/>
        <path d="M936.635,484.714C935.867,486.25 934.139,489.45 931.451,494.314C928.763,499.178 925.435,504.81 921.467,511.21C917.499,517.61 913.083,524.266 908.219,531.178C903.355,538.09 898.363,544.426 893.243,550.186C888.123,555.946 883.067,560.554 878.075,564.01C873.083,567.466 868.539,568.81 864.443,568.042C849.851,565.738 840.699,557.482 836.987,543.274C833.275,529.066 833.467,509.93 837.563,485.866C838.331,480.746 840.059,473.642 842.747,464.554C845.435,455.466 848.827,446.058 852.923,436.33C857.019,426.602 861.819,417.322 867.323,408.49C872.827,399.658 879.035,392.682 885.947,387.562C888.251,385.77 891.067,384.938 894.395,385.066C897.723,385.194 900.923,386.026 903.995,387.562C907.067,389.098 909.755,391.274 912.059,394.09C914.363,396.906 915.643,399.978 915.899,403.306C916.667,412.266 915.067,423.274 911.099,436.33C907.131,449.386 901.947,462.57 895.547,475.882C889.147,489.194 882.363,501.61 875.195,513.13C868.027,524.65 861.627,533.226 855.995,538.858C856.507,545.258 857.595,549.61 859.259,551.914C860.923,554.218 863.419,555.626 866.747,556.138C869.307,556.65 873.275,554.218 878.651,548.842C884.027,543.466 889.659,536.874 895.547,529.066C901.435,521.258 907.131,513.194 912.635,504.874C918.139,496.554 922.555,489.706 925.883,484.33C926.651,483.306 927.739,482.538 929.147,482.026C930.555,481.514 931.899,481.258 933.179,481.258C934.459,481.258 935.483,481.578 936.251,482.218C937.019,482.858 937.147,483.69 936.635,484.714ZM859.451,499.306C858.171,505.194 857.211,509.994 856.571,513.706C855.931,517.418 855.483,521.066 855.227,524.65C858.555,520.81 862.139,515.434 865.979,508.522C869.819,501.61 873.723,493.994 877.691,485.674C881.659,477.354 885.371,468.714 888.827,459.754C892.283,450.794 895.163,442.346 897.467,434.41C899.771,426.474 901.307,419.498 902.075,413.482C902.843,407.466 902.459,403.306 900.923,401.002C897.851,401.002 894.907,402.666 892.091,405.994C889.275,409.322 886.459,413.802 883.643,419.434C880.827,425.066 878.203,431.466 875.771,438.634C873.339,445.802 871.099,453.098 869.051,460.522C867.003,467.946 865.147,475.05 863.483,481.834C861.819,488.618 860.475,494.442 859.451,499.306Z" style="fill:rgb(0,180,204);fill-rule:nonzero;"/>
        <path d="M969.659,457.834C973.755,458.09 977.339,459.242 980.411,461.29C981.947,459.754 984.443,458.602 987.899,457.834C991.355,457.066 994.811,456.682 998.267,456.682C1001.723,456.682 1004.795,456.938 1007.483,457.45C1010.171,457.962 1011.515,458.602 1011.515,459.37C1011.003,460.65 1009.915,463.722 1008.251,468.586C1006.587,473.45 1004.667,479.274 1002.491,486.058C1000.315,492.842 998.075,500.01 995.771,507.562C993.467,515.114 991.483,522.218 989.819,528.874C988.155,535.53 986.875,541.226 985.979,545.962C985.083,550.698 985.019,553.45 985.787,554.218C988.091,552.938 991.227,549.354 995.195,543.466C999.163,537.578 1003.323,530.922 1007.675,523.498C1012.027,516.074 1016.315,508.714 1020.539,501.418C1024.763,494.122 1028.155,488.426 1030.715,484.33C1031.483,483.306 1032.507,482.538 1033.787,482.026C1035.067,481.514 1036.411,481.258 1037.819,481.258C1039.227,481.258 1040.315,481.578 1041.083,482.218C1041.851,482.858 1041.979,483.818 1041.467,485.098C1038.395,490.73 1035.195,496.618 1031.867,502.762C1028.539,508.906 1025.147,514.922 1021.691,520.81C1018.235,526.698 1015.035,532.202 1012.091,537.322C1009.147,542.442 1006.523,546.794 1004.219,550.378C1003.707,551.146 1002.747,552.49 1001.339,554.41C999.931,556.33 998.203,558.25 996.155,560.17C994.107,562.09 991.931,563.754 989.627,565.162C987.323,566.57 985.019,567.274 982.715,567.274C975.035,566.762 969.723,564.33 966.779,559.978C963.835,555.626 962.107,549.994 961.595,543.082C958.011,548.97 953.723,554.474 948.731,559.594C943.739,564.714 937.531,567.402 930.107,567.658C921.915,567.914 915.963,566.186 912.251,562.474C908.539,558.762 906.107,554.346 904.955,549.226C903.803,544.106 903.611,538.986 904.379,533.866C905.147,528.746 905.915,524.906 906.683,522.346C908.475,515.434 911.291,508.074 915.131,500.266C918.971,492.458 923.579,485.29 928.955,478.762C934.331,472.234 940.475,466.986 947.387,463.018C954.299,459.05 961.723,457.322 969.659,457.834ZM975.803,468.202C974.267,465.386 972.411,464.298 970.235,464.938C968.059,465.578 965.627,467.306 962.939,470.122C960.251,472.938 957.435,476.522 954.491,480.874C951.547,485.226 948.795,489.706 946.235,494.314C943.675,498.922 941.371,503.402 939.323,507.754C937.275,512.106 935.739,515.562 934.715,518.122C930.107,529.642 927.675,538.986 927.419,546.154C927.163,553.322 929.339,556.65 933.947,556.138C935.995,556.138 938.043,555.434 940.091,554.026C942.139,552.618 943.995,551.018 945.659,549.226C947.323,547.434 948.731,545.706 949.883,544.042C951.035,542.378 951.867,541.162 952.379,540.394C954.427,536.81 957.051,531.626 960.251,524.842C963.451,518.058 966.459,510.954 969.275,503.53C972.091,496.106 974.267,489.13 975.803,482.602C977.339,476.074 977.339,471.274 975.803,468.202Z" style="fill:rgb(0,180,204);fill-rule:nonzero;"/>
    </g>
    <g transform="matrix(0.965926,-0.258819,0.258819,0.965926,-258.668114,39.03606)">
        <path d="M492.731,573.802C493.243,576.874 493.755,579.306 494.267,581.098C494.779,582.89 494.907,584.298 494.651,585.322C494.395,586.346 493.563,587.114 492.155,587.626C490.747,588.138 488.251,588.778 484.667,589.546C482.107,590.058 479.995,589.866 478.331,588.97C476.667,588.074 475.259,586.794 474.107,585.13C472.955,583.466 472.059,581.61 471.419,579.562C470.779,577.514 470.331,575.722 470.075,574.186C469.307,566.506 469.179,557.482 469.691,547.114C470.203,536.746 471.419,525.226 473.339,512.554C475.259,499.882 478.139,486.314 481.979,471.85C485.819,457.386 490.683,442.09 496.571,425.962C496.571,425.45 497.083,424.81 498.107,424.042C502.459,409.962 506.811,399.594 511.163,392.938C501.947,401.898 492.411,413.482 482.555,427.69C472.699,441.898 463.227,457.002 454.139,473.002C445.051,489.002 436.667,505.002 428.987,521.002C421.307,537.002 415.035,551.274 410.171,563.818C408.123,566.122 405.819,566.634 403.259,565.354C400.699,564.074 398.331,562.026 396.155,559.21C393.979,556.394 392.251,553.258 390.971,549.802C389.691,546.346 389.307,543.594 389.819,541.546C393.915,529.002 398.011,516.266 402.107,503.338C406.203,490.41 409.979,477.418 413.435,464.362C416.891,451.306 419.899,438.378 422.459,425.578C425.019,412.778 426.939,400.234 428.219,387.946C428.987,380.778 428.539,376.042 426.875,373.738C425.211,371.434 422.843,371.114 419.771,372.778C416.699,374.442 413.243,377.642 409.403,382.378C405.563,387.114 401.787,392.874 398.075,399.658C394.363,406.442 391.099,413.866 388.283,421.93C385.467,429.994 383.675,438.25 382.907,446.698C382.139,449.77 380.859,451.05 379.067,450.538C377.275,450.026 375.483,448.682 373.691,446.506C371.899,444.33 370.363,441.642 369.083,438.442C367.803,435.242 367.291,432.362 367.547,429.802C368.059,425.706 370.363,419.562 374.459,411.37C378.555,403.178 383.419,394.986 389.051,386.794C394.683,378.602 400.635,371.434 406.907,365.29C413.179,359.146 418.619,355.818 423.227,355.306C428.347,354.794 433.339,355.754 438.203,358.186C443.067,360.618 446.907,364.138 449.723,368.746C451.515,372.074 452.475,376.554 452.603,382.186C452.731,387.818 452.347,394.218 451.451,401.386C450.555,408.554 449.211,416.17 447.419,424.234C445.627,432.298 443.643,440.17 441.467,447.85C439.291,455.53 437.051,462.762 434.747,469.546C432.443,476.33 430.267,482.026 428.219,486.634C432.315,476.65 437.563,466.538 443.963,456.298C450.363,446.058 457.083,436.266 464.123,426.922C471.163,417.578 478.203,408.874 485.243,400.81C492.283,392.746 498.491,385.898 503.867,380.266C507.451,376.17 511.419,374.57 515.771,375.466C520.123,376.362 524.027,378.474 527.483,381.802C530.939,385.13 533.499,389.162 535.163,393.898C536.827,398.634 536.507,402.922 534.203,406.762C530.363,413.162 526.459,421.098 522.491,430.57C518.523,440.042 514.811,450.218 511.355,461.098C507.899,471.978 504.699,483.114 501.755,494.506C498.811,505.898 496.507,516.714 494.843,526.954C493.179,537.194 492.091,546.41 491.579,554.602C491.067,562.794 491.451,569.194 492.731,573.802Z" style="fill:rgb(0,180,204);fill-rule:nonzero;"/>
        <path d="M574.907,457.834C579.003,458.09 582.587,459.242 585.659,461.29C587.195,459.754 589.691,458.602 593.147,457.834C596.603,457.066 600.059,456.682 603.515,456.682C606.971,456.682 610.043,456.938 612.731,457.45C615.419,457.962 616.763,458.602 616.763,459.37C616.251,460.65 615.163,463.722 613.499,468.586C611.835,473.45 609.915,479.274 607.739,486.058C605.563,492.842 603.323,500.01 601.019,507.562C598.715,515.114 596.731,522.218 595.067,528.874C593.403,535.53 592.123,541.226 591.227,545.962C590.331,550.698 590.267,553.45 591.035,554.218C593.339,552.938 596.475,549.354 600.443,543.466C604.411,537.578 608.571,530.922 612.923,523.498C617.275,516.074 621.563,508.714 625.787,501.418C630.011,494.122 633.403,488.426 635.963,484.33C636.731,483.306 637.755,482.538 639.035,482.026C640.315,481.514 641.659,481.258 643.067,481.258C644.475,481.258 645.563,481.578 646.331,482.218C647.099,482.858 647.227,483.818 646.715,485.098C643.643,490.73 640.443,496.618 637.115,502.762C633.787,508.906 630.395,514.922 626.939,520.81C623.483,526.698 620.283,532.202 617.339,537.322C614.395,542.442 611.771,546.794 609.467,550.378C608.955,551.146 607.995,552.49 606.587,554.41C605.179,556.33 603.451,558.25 601.403,560.17C599.355,562.09 597.179,563.754 594.875,565.162C592.571,566.57 590.267,567.274 587.963,567.274C580.283,566.762 574.971,564.33 572.027,559.978C569.083,555.626 567.355,549.994 566.843,543.082C563.259,548.97 558.971,554.474 553.979,559.594C548.987,564.714 542.779,567.402 535.355,567.658C527.163,567.914 521.211,566.186 517.499,562.474C513.787,558.762 511.355,554.346 510.203,549.226C509.051,544.106 508.859,538.986 509.627,533.866C510.395,528.746 511.163,524.906 511.931,522.346C513.723,515.434 516.539,508.074 520.379,500.266C524.219,492.458 528.827,485.29 534.203,478.762C539.579,472.234 545.723,466.986 552.635,463.018C559.547,459.05 566.971,457.322 574.907,457.834ZM581.051,468.202C579.515,465.386 577.659,464.298 575.483,464.938C573.307,465.578 570.875,467.306 568.187,470.122C565.499,472.938 562.683,476.522 559.739,480.874C556.795,485.226 554.043,489.706 551.483,494.314C548.923,498.922 546.619,503.402 544.571,507.754C542.523,512.106 540.987,515.562 539.963,518.122C535.355,529.642 532.923,538.986 532.667,546.154C532.411,553.322 534.587,556.65 539.195,556.138C541.243,556.138 543.291,555.434 545.339,554.026C547.387,552.618 549.243,551.018 550.907,549.226C552.571,547.434 553.979,545.706 555.131,544.042C556.283,542.378 557.115,541.162 557.627,540.394C559.675,536.81 562.299,531.626 565.499,524.842C568.699,518.058 571.707,510.954 574.523,503.53C577.339,496.106 579.515,489.13 581.051,482.602C582.587,476.074 582.587,471.274 581.051,468.202Z" style="fill:rgb(0,180,204);fill-rule:nonzero;"/>
        <path d="M653.243,552.682C654.011,552.938 656.187,550.25 659.771,544.618C663.355,538.986 667.387,532.33 671.867,524.65C676.347,516.97 680.827,509.29 685.307,501.61C689.787,493.93 693.435,488.17 696.251,484.33C697.019,483.306 698.107,482.538 699.515,482.026C700.923,481.514 702.267,481.258 703.547,481.258C704.827,481.258 705.851,481.578 706.619,482.218C707.387,482.858 707.515,483.818 707.003,485.098C701.115,496.618 695.099,508.202 688.955,519.85C682.811,531.498 676.795,542.186 670.907,551.914C670.395,552.682 669.371,553.962 667.835,555.754C666.299,557.546 664.571,559.402 662.651,561.322C660.731,563.242 658.619,564.906 656.315,566.314C654.011,567.722 651.707,568.426 649.403,568.426C642.747,568.17 637.883,566.25 634.811,562.666C631.739,559.082 629.691,554.346 628.667,548.458C627.643,541.546 627.387,533.738 627.899,525.034C628.411,516.33 629.435,507.114 630.971,497.386C632.507,487.658 634.491,477.866 636.923,468.01C639.355,458.154 641.979,448.618 644.795,439.402C639.675,441.706 634.619,444.138 629.627,446.698C624.635,449.258 619.963,451.946 615.611,454.762C613.563,454.762 612.475,453.802 612.347,451.882C612.219,449.962 612.539,447.786 613.307,445.354C614.075,442.922 615.227,440.426 616.763,437.866C618.299,435.306 619.835,433.386 621.371,432.106C624.187,430.058 628.219,427.946 633.467,425.77C638.715,423.594 644.667,421.482 651.323,419.434C653.115,414.57 654.843,410.026 656.507,405.802C658.171,401.578 659.899,397.802 661.691,394.474C662.715,391.658 664.699,389.418 667.643,387.754C670.587,386.09 673.595,385.066 676.667,384.682C679.739,384.298 682.363,384.554 684.539,385.45C686.715,386.346 687.547,388.074 687.035,390.634C684.219,395.754 681.147,403.178 677.819,412.906C683.707,411.626 689.147,410.858 694.139,410.602C699.131,410.346 702.651,410.602 704.699,411.37C708.027,412.65 709.819,413.738 710.075,414.634C710.331,415.53 709.755,416.362 708.347,417.13C706.939,417.898 705.147,418.538 702.971,419.05C700.795,419.562 698.939,419.946 697.403,420.202C696.123,420.458 693.243,421.226 688.763,422.506C684.283,423.786 678.971,425.45 672.827,427.498C669.243,439.786 665.787,452.97 662.459,467.05C659.131,481.13 656.443,494.314 654.395,506.602C652.347,518.89 651.131,529.322 650.747,537.898C650.363,546.474 651.195,551.402 653.243,552.682Z" style="fill:rgb(0,180,204);fill-rule:nonzero;"/>
        <path d="M703.163,463.21C703.675,461.418 705.339,459.69 708.155,458.026C710.971,456.362 713.979,455.082 717.179,454.186C720.379,453.29 723.323,452.97 726.011,453.226C728.699,453.482 730.171,454.506 730.427,456.298C729.915,457.322 728.891,460.33 727.355,465.322C725.819,470.314 724.091,476.202 722.171,482.986C720.251,489.77 718.395,497.066 716.603,504.874C714.811,512.682 713.339,519.914 712.187,526.57C711.035,533.226 710.395,538.922 710.267,543.658C710.139,548.394 710.843,551.018 712.379,551.53C712.891,551.786 714.107,550.634 716.027,548.074C717.947,545.514 720.315,542.186 723.131,538.09C725.947,533.994 728.955,529.386 732.155,524.266C735.355,519.146 738.555,514.026 741.755,508.906C744.955,503.786 747.963,499.05 750.779,494.698C753.595,490.346 755.899,486.89 757.691,484.33C758.459,483.306 759.547,482.538 760.955,482.026C762.363,481.514 763.707,481.258 764.987,481.258C766.267,481.258 767.291,481.578 768.059,482.218C768.827,482.858 768.955,483.818 768.443,485.098C762.555,496.618 756.091,508.074 749.051,519.466C742.011,530.858 735.547,541.418 729.659,551.146C729.147,551.914 728.187,553.194 726.779,554.986C725.371,556.778 723.707,558.57 721.787,560.362C719.867,562.154 717.755,563.754 715.451,565.162C713.147,566.57 710.843,567.274 708.539,567.274C701.883,567.018 697.019,565.29 693.947,562.09C690.875,558.89 688.891,554.666 687.995,549.418C687.099,544.17 686.907,538.346 687.419,531.946C687.931,525.546 688.571,519.018 689.339,512.362C690.875,501.354 693.243,491.306 696.443,482.218C699.643,473.13 701.883,466.794 703.163,463.21ZM713.531,412.906C715.067,409.322 717.819,406.442 721.787,404.266C725.755,402.09 729.915,401.386 734.267,402.154C738.619,402.666 741.755,404.458 743.675,407.53C745.595,410.602 745.787,414.058 744.251,417.898C742.459,421.482 739.579,424.298 735.611,426.346C731.643,428.394 727.483,429.034 723.131,428.266C718.779,427.754 715.643,425.962 713.723,422.89C711.803,419.818 711.739,416.49 713.531,412.906Z" style="fill:rgb(0,180,204);fill-rule:nonzero;"/>
        <path d="M760.763,466.282C761.019,461.674 762.811,458.282 766.139,456.106C769.467,453.93 773.051,452.714 776.891,452.458C780.731,452.202 784.059,452.522 786.875,453.418C789.691,454.314 790.971,455.53 790.715,457.066C783.035,478.314 777.275,496.746 773.435,512.362C769.595,527.978 767.675,539.626 767.675,547.306C767.675,549.61 767.739,551.594 767.867,553.258C767.995,554.922 768.315,556.394 768.827,557.674L768.827,555.754C775.483,551.402 781.883,546.474 788.027,540.97C794.171,535.466 799.419,529.002 803.771,521.578C801.211,515.69 799.803,508.65 799.547,500.458C799.291,492.266 800.059,484.394 801.851,476.842C803.643,469.29 806.523,462.89 810.491,457.642C814.459,452.394 819.515,449.642 825.659,449.386C830.267,449.13 833.339,451.242 834.875,455.722C836.411,460.202 836.667,465.962 835.643,473.002C834.619,480.042 832.635,487.914 829.691,496.618C826.747,505.322 823.099,513.898 818.747,522.346C820.795,524.65 823.099,525.674 825.659,525.418C827.195,525.674 828.859,525.354 830.651,524.458C832.443,523.562 834.299,522.346 836.219,520.81C838.139,519.274 839.995,517.546 841.787,515.626C843.579,513.706 845.115,511.85 846.395,510.058C847.163,509.034 847.995,507.946 848.891,506.794C849.787,505.642 850.875,504.17 852.155,502.378C853.435,500.586 855.099,498.218 857.147,495.274C859.195,492.33 861.755,488.682 864.827,484.33C865.595,483.306 866.747,482.538 868.283,482.026C869.819,481.514 871.227,481.258 872.507,481.258C873.787,481.258 874.747,481.578 875.387,482.218C876.027,482.858 876.091,483.818 875.579,485.098C873.275,488.938 870.331,493.802 866.747,499.69C863.163,505.578 859.067,511.21 854.459,516.586C849.851,521.962 844.795,526.57 839.291,530.41C833.787,534.25 827.835,536.042 821.435,535.786C817.595,535.786 814.651,534.89 812.603,533.098C807.227,541.802 800.571,549.29 792.635,555.562C784.699,561.834 777.403,565.866 770.747,567.658C767.419,569.194 761.915,569.194 754.235,567.658C751.675,566.378 750.075,564.138 749.435,560.938C748.795,557.738 748.347,553.834 748.091,549.226C747.835,545.386 747.899,539.946 748.283,532.906C748.667,525.866 749.371,518.378 750.395,510.442C751.419,502.506 752.827,494.634 754.619,486.826C756.411,479.018 758.459,472.17 760.763,466.282ZM812.603,492.778C812.091,497.386 812.091,501.61 812.603,505.45L814.139,501.994C816.443,496.874 818.363,491.818 819.899,486.826C821.435,481.834 822.587,477.418 823.355,473.578C824.123,469.738 824.635,466.666 824.891,464.362C825.147,462.058 825.147,460.906 824.891,460.906C824.123,460.65 823.099,461.418 821.819,463.21C820.539,465.002 819.323,467.37 818.171,470.314C817.019,473.258 815.867,476.714 814.715,480.682C813.563,484.65 812.859,488.682 812.603,492.778Z" style="fill:rgb(0,180,204);fill-rule:nonzero;"/>
        <path d="M906.299,457.834C910.395,458.09 913.979,459.242 917.051,461.29C918.587,459.754 921.083,458.602 924.539,457.834C927.995,457.066 931.451,456.682 934.907,456.682C938.363,456.682 941.435,456.938 944.123,457.45C946.811,457.962 948.155,458.602 948.155,459.37C947.643,460.65 946.555,463.722 944.891,468.586C943.227,473.45 941.307,479.274 939.131,486.058C936.955,492.842 934.715,500.01 932.411,507.562C930.107,515.114 928.123,522.218 926.459,528.874C924.795,535.53 923.515,541.226 922.619,545.962C921.723,550.698 921.659,553.45 922.427,554.218C924.731,552.938 927.867,549.354 931.835,543.466C935.803,537.578 939.963,530.922 944.315,523.498C948.667,516.074 952.955,508.714 957.179,501.418C961.403,494.122 964.795,488.426 967.355,484.33C968.123,483.306 969.147,482.538 970.427,482.026C971.707,481.514 973.051,481.258 974.459,481.258C975.867,481.258 976.955,481.578 977.723,482.218C978.491,482.858 978.619,483.818 978.107,485.098C975.035,490.73 971.835,496.618 968.507,502.762C965.179,508.906 961.787,514.922 958.331,520.81C954.875,526.698 951.675,532.202 948.731,537.322C945.787,542.442 943.163,546.794 940.859,550.378C940.347,551.146 939.387,552.49 937.979,554.41C936.571,556.33 934.843,558.25 932.795,560.17C930.747,562.09 928.571,563.754 926.267,565.162C923.963,566.57 921.659,567.274 919.355,567.274C911.675,566.762 906.363,564.33 903.419,559.978C900.475,555.626 898.747,549.994 898.235,543.082C894.651,548.97 890.363,554.474 885.371,559.594C880.379,564.714 874.171,567.402 866.747,567.658C858.555,567.914 852.603,566.186 848.891,562.474C845.179,558.762 842.747,554.346 841.595,549.226C840.443,544.106 840.251,538.986 841.019,533.866C841.787,528.746 842.555,524.906 843.323,522.346C845.115,515.434 847.931,508.074 851.771,500.266C855.611,492.458 860.219,485.29 865.595,478.762C870.971,472.234 877.115,466.986 884.027,463.018C890.939,459.05 898.363,457.322 906.299,457.834ZM912.443,468.202C910.907,465.386 909.051,464.298 906.875,464.938C904.699,465.578 902.267,467.306 899.579,470.122C896.891,472.938 894.075,476.522 891.131,480.874C888.187,485.226 885.435,489.706 882.875,494.314C880.315,498.922 878.011,503.402 875.963,507.754C873.915,512.106 872.379,515.562 871.355,518.122C866.747,529.642 864.315,538.986 864.059,546.154C863.803,553.322 865.979,556.65 870.587,556.138C872.635,556.138 874.683,555.434 876.731,554.026C878.779,552.618 880.635,551.018 882.299,549.226C883.963,547.434 885.371,545.706 886.523,544.042C887.675,542.378 888.507,541.162 889.019,540.394C891.067,536.81 893.691,531.626 896.891,524.842C900.091,518.058 903.099,510.954 905.915,503.53C908.731,496.106 910.907,489.13 912.443,482.602C913.979,476.074 913.979,471.274 912.443,468.202Z" style="fill:rgb(0,180,204);fill-rule:nonzero;"/>
    </g>
</svg>
