<?xml version="1.0" encoding="UTF-8" standalone="no"?><!DOCTYPE svg PUBLIC "-//W3C//DTD SVG 1.1//EN" "http://www.w3.org/Graphics/SVG/1.1/DTD/svg11.dtd"><svg width="100%" height="100%" viewBox="0 0 148 383" version="1.1" xmlns="http://www.w3.org/2000/svg" xmlns:xlink="http://www.w3.org/1999/xlink" xml:space="preserve" xmlns:serif="http://www.serif.com/" style="fill-rule:evenodd;clip-rule:evenodd;stroke-linejoin:round;stroke-miterlimit:2;"><g><path d="M25.509,13.383c0.035,0.281 -0.622,0.334 -0.587,0.615c0.103,0.819 17.297,14.618 18.043,34.325c1.18,3.731 -2.815,2.457 -4.861,8.85c-0.383,1.197 -3.695,11.541 -12.528,9.471c-1.101,-0.258 -0.497,-0.84 -0.576,-0.976c11.53,-0.063 11.771,-8.152 4.975,-9.731c-3.732,-0.867 1.636,-2.43 4.257,-0.099c2.866,2.549 0.813,-1.288 0.753,-1.4c-1.586,-2.964 -3.879,-4.668 -7.076,-6.433l0.158,-0.901c8.368,3.192 6.762,5.723 8.515,6.13c1.432,0.333 0.815,-8.148 -6.491,-13.514c-6.504,-4.777 -17.452,-4.887 -9.357,-5.088c2.693,-0.067 15.214,4.424 18.034,13.091c1.625,4.996 3.65,-8.048 -6.742,-23.067c-7.089,-10.245 -21.844,-24.626 -24.419,-16.015c-0.626,2.095 -3.611,12.071 -0.976,27.31c1.031,5.965 3.642,10.997 5.829,16.628c1.396,5.589 0.807,9.171 6.364,12.843c1.669,0.874 1.523,-0.17 1.935,-0.405c0.802,1.473 1.009,1.236 2.555,1.977c0.266,0.088 3.325,1.101 3.325,1.101c8.587,2.84 3.745,9.795 14,26.778c0.781,1.293 8.327,13.79 10.198,15.888c0.694,0.778 0.164,-5.404 0.915,-6.339c1.504,-1.87 0.232,4.713 1.175,7.66c4.989,15.592 22.148,6.656 17.219,5.393c-0.688,-0.176 -5.684,-1.456 -7.648,-4.501c-9.878,-15.316 25.729,-15.827 19.537,-1.901c-2.524,5.678 -8.906,6.515 -8.967,6.562c-3.298,2.477 16.824,9.233 17.905,-9.37c0.146,-2.519 -0.301,-2.456 -0.328,-3.84c-0.033,-1.673 1.382,-0.47 1.537,1.66c0.181,2.491 -0.867,2.946 0.688,3.874c8.664,-15.63 10.554,-14.783 15.65,-31.932c0.586,-1.972 1.787,-7.052 3.905,-8.882c2.35,-2.031 2.596,-1.574 8.319,-3.937c2.077,-0.638 2.07,-0.547 3.877,-1.703c5.126,-4.441 3.586,-7.129 5.099,-12.479c0.953,-4.517 8.715,-13.831 5.033,-38.417c-1.181,-7.887 -3.413,-10.226 -9.956,-5.657c-3.457,2.413 -3.305,2.543 -6.301,5.468c-0.188,-0.316 -0.685,-0.358 -0.873,-0.674c-0.04,-0.067 0.154,-1.172 -1.025,-0.157c-0.322,0.277 -0.293,0.263 -0.59,0.529c-18.706,17.093 -25.42,29.773 -23.147,31.378c0.361,0.255 3.608,2.547 4.228,3.552c1.348,2.185 -1.043,0.283 -1.115,0.227c-0.932,-0.741 -0.994,-0.553 -2.208,-0.483c-0.186,-0.458 -0.372,-0.917 -0.558,-1.375c-1.963,-0.971 -5.832,-3.989 -8.862,-1.798c-1.267,-1.745 -0.171,-1.837 0.74,-3.801c0.532,-1.147 2.629,-4.039 1.366,-3.496c-1.684,0.724 -4.647,3.348 -5.02,3.678c-3.964,3.51 0.715,-3.725 0.879,-4.031c0.45,0.195 0.9,0.391 1.35,0.586c1.392,-0.713 8.131,-5 5.774,-1.526c-3.475,5.124 -2.869,5.673 -2.377,5.743c3.464,0.492 2.86,-1.024 4.557,-4.112c9.775,-17.785 36.673,-41.881 43.125,-33.31c2.297,3.052 8.056,24.42 -1.21,45.58c-3.805,8.69 -0.136,14.852 -12.193,19.133c-7.176,2.548 -7.901,2.65 -10.003,9.941c-5.488,19.029 -8.646,18.226 -9.967,22.501c-3.549,11.479 -1.683,36.114 -0.807,37.061c4.437,4.797 0.122,6.345 3.313,14.003c13.459,32.299 26.211,57.496 20.485,93.702c-0.654,4.134 4.122,-1.658 12.386,1.719c19.133,7.819 5.399,56.794 -15.281,82.699c-1.578,1.976 -2.187,1.933 -1.689,2.817c0.729,1.296 35.262,14.85 24.479,26.522c-4.031,4.363 -16.35,4.485 -19.882,3.501c-6.415,-1.787 5.021,4.694 1.364,12.437c-1.685,3.568 -5.485,2.59 -10.71,4.308c-5.231,1.72 -6.758,-1.06 -11.084,-0.319c-2.479,0.425 -9.443,-0.073 -11.287,-6.403c-2.095,-7.192 -1.42,-23.304 -2.974,-23.273c-1.24,0.025 -6.506,2.34 -17.761,2.174c-7.41,-0.109 -12.474,-2.664 -12.705,-1.294c-1.396,8.249 1.979,25.663 -7.594,28.834c-4.73,1.567 -5.319,-0.113 -8.817,0.895c-5.726,1.651 -5.746,0.156 -11.716,-0.438c-1.17,-0.116 -13.335,-1.326 -5.022,-13.809c1.076,-1.616 1.884,-1.87 0.921,-2.275c-0.452,-0.191 -0.346,0.849 -6.092,0.727c-0.734,-0.016 -2.948,0.771 -6.088,0.29c-0.373,-0.057 -6.161,-1.617 -6.757,-1.894c-0.682,-0.316 -13.051,-6.729 4.42,-18.763c7.353,-5.065 17.096,-9.508 17.133,-10.466c0.073,-1.906 -16.891,-15.698 -26.422,-53.097c-5.023,-19.711 1.812,-37.608 18.496,-31.878c5.567,1.912 -9.691,-16.066 8.05,-66.37c9.228,-26.167 12.449,-30.379 12.135,-34.646c-0.546,-7.416 2.151,-8.576 2.374,-10.572c1.205,-10.794 -0.196,-32.044 -2.755,-36.07c-3.259,-5.128 -9.629,-14.161 -11.367,-26.057c-0.789,-5.399 -17.929,-3.888 -19.421,-16.472c-0.908,-7.657 -6.778,-15.27 -7.375,-25.463c-1.318,-22.502 -0.241,-38.319 19.125,-24.459c21.776,15.585 27.819,29.384 29.224,32.591c1.608,3.671 0.614,-3.49 0.571,-3.794c-0.249,-1.794 0.989,-0.904 1.121,-0.418c0.465,1.714 0.489,3.612 1.165,1.945c2.357,-5.808 -0.657,-6.641 0.717,-7.527c1.352,-0.872 1.347,3.442 2.812,7.202c0.426,0.351 0.852,0.702 1.278,1.053c-2.801,5.154 -3.604,4.751 -3.88,4.374c-0.268,-0.367 0.858,-0.238 1.284,-5.535c-0.116,-0.19 -0.231,-0.379 -0.347,-0.569c-3.557,6.557 -3.811,6.369 -4.43,6.669c-1.723,0.834 -1.668,0.846 -3.401,1.724c0.084,0.165 0.168,0.33 0.252,0.495c1.621,-0.096 1.58,-0.078 3.222,-0.191c1.533,-0.106 1.63,0.348 3.91,-0.798c2.921,-1.468 -1.341,2.464 -0.402,7.677c0.353,1.958 0.541,-0.536 2.694,-2.741c0.241,-0.247 1.355,-1.654 1.621,-1.548c0.751,0.296 -0.776,4.592 1.961,8.018c0.089,0.111 4.98,6.72 -0.149,1.768c-3.69,-3.562 -2.69,-8.983 -3.97,-5.468c-0.793,2.178 -0.719,2.2 -0.429,4.505l-0.7,0.086c-0.675,-1.159 -0.702,-1.096 -1.31,-2.251c-2.998,-5.693 0.931,-7.987 -1.511,-7.99c-7.555,-0.008 -8.731,1.288 -9.417,1.615c0.063,-2.179 1.083,-1.589 2.456,-3.271c1.795,-2.198 3.639,-1.739 2.488,-4.32c-5.212,-11.694 -19.951,-24.492 -23.763,-28.092Z" style="fill:#f9cacf;stroke:#7abfbf;stroke-width:3.13px;"/><path d="M29.293,371.015c-1.158,2.024 -1.16,2.044 -1.024,5.082c-1.396,-0.404 -1.564,-0.331 -2.015,-1.73c-2.182,-6.769 8.195,-9.594 11.856,-26.176c1.332,-6.032 2.644,-11.974 -8.723,-76.72c-7.952,-45.294 -8.848,-58.119 7.002,-99.604c7.388,-19.335 7.318,-20.848 8.723,-19.834c13.601,9.812 31.02,8.971 41.139,5.96c12.593,-3.747 13.439,-9.337 15.059,-5.363c9.431,23.142 21.571,47.73 21.657,73.774c0.059,17.902 -6.831,56.997 -10.642,86.94c-5.344,41.983 2.154,41.333 9.622,53.386c4.156,6.707 0.327,8.493 0.205,7.16c-0.029,-0.319 -0.286,-3.109 -1.145,-3.839c-1.597,-1.356 -0.543,0.649 -0.157,2.7c0.634,3.365 -2.662,4.277 -2.734,1.687c-0.169,-6.012 -6.917,-10.389 -7.115,-10.475c-7.143,-3.111 8.407,4.897 4.578,12.125c-0.361,-0.455 -0.479,-0.322 -0.671,-0.845c-0.04,-0.109 -0.384,-1.045 -0.952,-1.095c-0.21,-0.019 -0.158,0.116 0.049,2.633c-0.394,0.109 -2.609,0.724 -5.111,0.139c-1.971,-0.46 -1.799,-0.917 -1.898,-2.903c-0.247,-4.974 -3.054,-9.284 -4.348,-9.928c-2.179,-1.085 -0.063,1.54 0.02,1.642c2.654,3.292 1.823,3.638 2.605,7.794c-0.266,-0.152 -0.541,0.593 -0.807,0.441c-1.027,-0.586 -0.312,-1.171 -1.278,-1.893c-1.801,-1.347 0.483,2.867 0.603,3.089c0.065,1.349 -0.195,1.513 -1.524,1.451c-9.431,-0.44 -7.815,-11.881 -8.408,-16.915c-2.171,-18.447 0.453,-42.965 1.489,-70.662c0.786,-21.018 1.751,-25.292 1.904,-27.843c0.472,-7.886 4.322,-26.259 3.932,-28.448c-0.656,-3.678 -2.149,5.063 -2.289,5.637c-5.654,23.015 -5.894,31.687 -8.666,106.916c-0.14,3.808 -26.145,4.472 -30.455,1.268c-1.438,-1.069 -3.081,-70.755 -8.759,-95.314c-0.339,-1.468 -4.142,-17.915 -4.551,-18.275c-1.916,-1.683 0.154,8.625 0.301,9.36c0.645,3.211 4.559,22.701 5.586,40.553c0.619,10.754 4.509,56.021 4.13,67.833c-0.709,22.091 -2.125,23.081 -3.375,24.322c-2.962,2.941 -6.436,2.049 -6.998,1.905c0.08,-0.576 -0.078,-0.553 0.147,-1.062c0.308,-0.697 2,-4.175 0.469,-3.1c-0.249,0.175 -0.444,0.312 -1.945,3.273c-0.691,-2.067 -0.078,-6.506 2.553,-10.13c0.057,-0.078 2.209,-3.041 -0.284,-1.176c-4.008,2.999 -4.067,10.218 -4.074,11.169c-0.013,1.609 -3.528,2.716 -6.915,1.758c-1.346,-0.55 -1.747,-0.292 -1.991,-1.72c-1.074,-6.287 6.215,-10.759 6.227,-11.146c0.075,-2.519 -8.943,5.454 -8.254,10.684c0.332,2.52 -1.807,1.211 -2.432,0.893c-0.322,-2.427 -0.378,-2.433 0.3,-4.773c0.056,-0.192 0.309,-0.345 0.262,-0.54c-0.03,-0.124 -0.349,0.178 -0.379,0.054c-0.167,-0.039 -0.333,-0.078 -0.5,-0.118Z" style="fill:#f9cacf;stroke:#7abfbf;stroke-width:3.13px;"/><path d="M116.007,12.117c-0.001,0.455 0.363,0.285 0.362,0.768c-0,0.045 -0,0.055 -0.363,0.427c-1.816,1.863 -13.985,14.34 -16.357,28.108c-1.325,7.692 -0.62,8.254 -0.077,8.687c4.818,3.844 3.422,5.213 6.299,10.03c0.5,0.838 4.228,7.078 10.93,5.419c1.046,-0.259 0.5,-0.947 0.541,-1.025c-10.446,0.335 -12.091,-7.387 -5.527,-9.625c3.468,-1.182 -1.843,-2.255 -4.098,0.269c-2.331,2.61 -0.689,-3.397 3.502,-6.429c1.295,-0.936 5.801,-2.817 3.645,-2.965c-2.902,-0.198 -8.274,5.469 -8.866,6.094c-2.618,2.762 -1.52,-12.719 13.158,-16.89c0.177,-0.05 5.336,-1.516 1.688,-1.56c-0.945,-0.011 -5.868,1.335 -10.09,4.307c-6.974,4.908 -7.377,9.468 -7.631,10.287l-0.453,0.027c-0.135,-0.113 -0.198,0.523 -0.333,0.41c-0.025,-0.021 -0.297,-1.038 -0.343,-1.435c-1.7,-14.961 14.416,-32.353 16.501,-34.602c2.995,-2.925 2.843,-3.055 6.301,-5.468c6.544,-4.568 8.775,-2.23 9.956,5.657c3.682,24.586 -4.079,33.9 -5.033,38.417c-0.476,-0.147 -0.489,-1.104 -1.593,-0.164c-4.266,4.946 -2.758,9.568 -6.685,13.357c-0.456,0.44 -0.332,0.471 -0.697,0.989c-5.723,2.363 -5.969,1.905 -8.319,3.937c-2.117,1.83 -3.319,6.91 -3.905,8.882c-5.096,17.15 -6.987,16.302 -15.65,31.932c-1.554,-0.929 -0.506,-1.383 -0.688,-3.874c-0.155,-2.13 -1.57,-3.333 -1.537,-1.66c0.027,1.384 0.475,1.322 0.328,3.84c-1.081,18.603 -21.203,11.847 -17.905,9.37c0.062,-0.046 6.443,-0.884 8.967,-6.562c6.191,-13.927 -29.416,-13.415 -19.537,1.901c1.964,3.045 6.96,4.325 7.648,4.501c4.929,1.263 -12.231,10.199 -17.219,-5.393c-0.943,-2.947 0.329,-9.53 -1.175,-7.66c-0.752,0.935 -0.221,7.118 -0.915,6.339c-1.871,-2.098 -9.417,-14.595 -10.198,-15.888c-10.254,-16.983 -5.413,-23.938 -14,-26.778c-0,-0 -3.059,-1.013 -3.325,-1.101c0.123,-0.335 0.687,-0.364 0.81,-0.698c0.084,-0.227 -0.274,-0.415 -0.312,-0.654c-0.075,-0.474 0.196,-0.186 1.189,0.025c0.08,0.135 -0.524,0.718 0.576,0.976c8.833,2.071 12.145,-8.274 12.528,-9.471c2.047,-6.393 6.041,-5.119 4.861,-8.85c0.626,0.494 0.593,0.467 1.362,0.744c0.685,-0.327 1.862,-1.623 9.417,-1.615c2.442,0.003 -1.487,2.297 1.511,7.99c0.608,1.156 0.636,1.092 1.31,2.251c0.233,-0.029 0.467,-0.057 0.7,-0.086c-0.29,-2.304 -0.364,-2.327 0.429,-4.505c1.279,-3.515 0.28,1.906 3.97,5.468c5.128,4.951 0.237,-1.657 0.149,-1.768c-2.738,-3.426 -1.21,-7.722 -1.961,-8.018c-0.267,-0.105 -1.381,1.301 -1.621,1.548c-2.152,2.206 -2.341,4.7 -2.694,2.741c-0.939,-5.212 3.323,-9.145 0.402,-7.677c-2.28,1.146 -2.377,0.693 -3.91,0.798c-1.642,0.113 -1.601,0.095 -3.222,0.191l-0.252,-0.495c1.732,-0.878 1.677,-0.89 3.401,-1.724c0.619,-0.3 0.872,-0.112 4.43,-6.669c0.116,0.19 0.231,0.379 0.347,0.569c-0.426,5.297 -1.552,5.168 -1.284,5.535c0.276,0.377 1.079,0.78 3.88,-4.374c0.334,-0.958 1.822,-3.791 0.926,-8.427c-1.382,-7.152 4.333,4.39 1.594,9.407c-0.051,0.094 -2.341,4.519 0.692,1.145c6.616,-7.359 2.701,-12.681 4.643,-16.151c0.426,0.982 0.383,0.954 0.746,1.63c-0.051,0.235 -0.427,0.305 -0.478,0.54c-0.044,0.206 -0.009,0.158 0.32,1.735c0.048,0.229 0.031,0.19 0.554,2.877c0.023,0.071 0.283,0.888 0.283,0.888c0.215,-0.011 0.266,-0.443 0.482,-0.432c0.323,0.017 0.509,0.483 0.833,0.5c-0.059,0.133 -0.653,1.463 -0.72,1.674c-1.434,4.561 -2.366,5.383 -1.093,5.234c0.969,-0.113 12.629,-27.721 7.739,-13.089c-1.254,3.753 -0.312,5.613 -2.909,10.528c-6.713,12.707 4.194,-4.875 7.337,-8.271c2.247,-2.428 -0.736,2.782 -0.86,2.998c-0.406,0.796 -3.417,6.411 -3.418,6.414c-3.019,7.463 1.363,-2.427 8.167,-6.661c3.042,-1.893 -0.052,1.103 -1.856,4.2c-0.164,0.307 -4.843,7.541 -0.879,4.031c0.373,-0.33 3.336,-2.954 5.02,-3.678c1.262,-0.543 -0.834,2.349 -1.366,3.496c-0.91,1.963 -2.007,2.056 -0.74,3.801l0.76,0.865c1.096,1.637 1.205,1.66 3.495,2.9c2.66,1.441 -2.363,0.817 -2.577,0.79c-4.601,-0.596 -4.364,-1.883 -5.075,-1.573c-1.79,0.783 3.537,3.301 5.347,5.855c-6.625,-0.376 -10.144,-5.684 -10.34,-5.692c-2.434,-0.087 4.066,5.537 5.587,8.284c0.964,1.741 -0.65,0.183 -2.264,-0.979c-0.446,-0.321 -0.92,-0.604 -1.365,-0.927c-3.132,-2.276 -3.877,-6.791 -4.274,-6.728c-2.803,0.446 5.777,11.633 4.79,12.716c-0.328,0.359 -0.311,-0.092 -4.432,-4.162c-2.37,-2.341 -3.5,-7.315 -3.629,-7.558c-0.13,-0.068 0.005,-0.354 -0.124,-0.422c-0.772,-0.406 -0.688,0.14 -0.69,0.994c0.998,5.855 2.101,5.963 3.102,8.856c2.007,5.801 1.048,5.962 0.094,7.198c0.194,2.32 -0.514,5.35 0.829,2.974c2.997,-5.298 0.259,-9.417 0.797,-9.763c0.367,-0.236 3.462,3.255 3.736,3.564c0.949,1.071 1.488,3.379 2.368,3.002c0.98,-0.419 -1.765,-7.58 -2.007,-8.211c-0.583,-1.521 3.768,2.079 3.884,4.381c0.008,0.157 0.271,5.401 1.001,1.688c1.292,-6.576 -3.111,-9.123 -0.08,-8.445c0.641,0.143 5.742,1.283 8.212,-0.2c2.579,-1.548 -0.937,-0.582 -3.715,-1.661c-2.74,-1.354 -2.387,-1.735 -2.416,-2.024c0.89,0.108 0.848,0.086 1.735,0.21c3.171,0.443 7.631,-0.919 5.006,-1.652c-1.978,-0.552 1.103,-1.003 1.665,-1.106c1.214,-0.07 1.276,-0.258 2.208,0.483c0.071,0.057 2.462,1.958 1.115,-0.227c-0.619,-1.004 -3.867,-3.297 -4.228,-3.552c-2.273,-1.605 4.441,-14.285 23.147,-31.378Z" style="fill:#f9cacf;stroke:#7abfbf;stroke-width:3.13px;"/><path d="M113.114,334.293c-0.425,-6.965 7.416,-57.801 10.151,-80.599c0.234,-1.95 0.429,-5.64 10.206,-4.919c3.648,0.269 8.317,5.027 9.232,11.292c1.772,12.138 -2.48,44.259 -28.108,73.319c-0.164,0.186 -0.147,0.912 -1.48,0.907Z" style="fill:#f9cacf;stroke:#7abfbf;stroke-width:3.13px;"/><path d="M33.924,317.6c0.735,4.282 2.191,17.01 2.082,17.195c-0.722,1.231 -8.258,-7.481 -15.502,-19.371c-14.232,-23.358 -26.734,-67.855 -2.153,-65.255c1.586,0.168 4.951,1.428 5.196,2.436c1.008,4.155 0.612,4.199 8.571,52.754c1.289,7.864 1.199,7.843 1.807,12.241Z" style="fill:#f9cacf;stroke:#7abfbf;stroke-width:3.13px;"/><path d="M28.067,47.105c-0.084,-0.02 -1.044,-0.252 -1.044,-0.252c-1.132,0.265 -0.093,0.581 0.886,1.153c3.197,1.765 5.49,3.469 7.076,6.433c0.06,0.112 2.113,3.949 -0.753,1.4c-2.621,-2.331 -7.989,-0.769 -4.257,0.099c6.796,1.579 6.555,9.669 -4.975,9.731c-0.993,-0.211 -1.264,-0.498 -1.189,-0.025c0.038,0.238 0.395,0.427 0.312,0.654c-0.123,0.335 -0.687,0.364 -0.81,0.698c-1.546,-0.741 -1.753,-0.504 -2.555,-1.977c-4.15,-4.294 -1.919,-6.574 -6.467,-12.521c-0.943,-0.854 -1.176,-1.397 -1.934,-0.403c-0.1,0.132 0.202,0.354 0.102,0.486c-2.186,-5.631 -4.797,-10.662 -5.829,-16.628c-2.635,-15.239 0.349,-25.216 0.976,-27.31c2.576,-8.611 17.331,5.769 24.419,16.015c10.392,15.019 8.368,28.063 6.742,23.067c-2.82,-8.667 -15.341,-13.157 -18.034,-13.091c-8.096,0.201 2.853,0.311 9.357,5.088c7.306,5.366 7.922,13.846 6.491,13.514c-1.753,-0.407 -0.146,-2.938 -8.515,-6.13Z" style="fill:#f9cacf;stroke:#7abfbf;stroke-width:3.13px;"/><path d="M46.098,108.293l0.62,-0.118c3.107,5.062 3.325,4.851 6.397,9.922c1.978,3.266 7.996,5.754 8.033,5.788c13.003,11.78 18.917,0.884 22.473,-0.92c5.16,-2.617 5.465,-2.598 12.812,-15.032c2.115,-3.58 0.461,1.156 0.259,5.308c-0.904,18.596 2.247,25.76 0.289,27.64c-10.957,10.521 -43.066,8.346 -49.868,0.198c-0.684,-0.819 -0.409,-0.934 0.152,-13.334c0.528,-11.655 -0.887,-17.302 -1.168,-19.453Z" style="fill:#f9cacf;stroke:#7abfbf;stroke-width:3.13px;"/><path d="M7.488,359.06c-4.378,-3.637 1.626,-9.307 2.214,-9.862c4.874,-4.602 20.496,-12.935 21.372,-13.296c1.088,-0.449 5.058,2.443 4.98,5.045c-0.515,17.23 -9.483,21.262 -12.856,20.07c0.039,-0.17 0.491,-2.128 0.491,-2.128c0.128,-0.553 0.499,-0.872 -0.094,-0.812c-0.071,0.007 -1.651,1.354 -1.792,1.475c-0.127,-5.118 2.457,-6.752 2.706,-7.364c0.934,-2.3 -4.71,1.479 -4.25,7.316c0.248,3.144 -1.496,2.708 -4.429,2.312c0.02,-1.46 0.07,-1.421 0.458,-2.831c0.299,-1.086 -1.486,-0.858 -1.684,1.599c-0.038,0.474 -0.192,0.364 -0.418,0.793c-1.673,-1.229 -1.779,-1.423 -1.309,-3.48c1.244,-5.446 7.057,-7.332 7.14,-7.435c1.956,-2.442 -8.395,0.968 -8.974,8.622c-0.226,2.985 -2.107,0.848 -2.08,0.054c0.107,-3.172 0.572,-3.175 0.593,-3.945c0.07,-2.548 -1.226,0.119 -2.068,3.868Z" style="fill:#f9cacf;stroke:#7abfbf;stroke-width:3.13px;"/><path d="M142.083,357.468c-0.08,-0.259 -0.422,-0.38 -0.502,-0.639c-0.073,-0.236 0.06,-1.028 -0.434,-2.296c-0.05,-0.129 -1.216,-3.119 -1.436,-0.966c-0.086,0.847 2.14,4.577 -0.425,5.475c-1.603,0.561 0.366,-3.914 -4.122,-8.001c-3.969,-3.615 -7.694,-2.881 -5.424,-1.789c2.622,1.26 4.665,1.574 6.646,6.078c1.302,2.961 -1.512,7.225 -1.991,3.301c-0.269,-2.206 -1.187,-1.196 -1.212,-1.069c-0.144,0.742 0.11,1.508 0.115,2.264c0.004,0.691 -3.786,2.046 -3.707,-1.115c0.213,-8.521 -7.268,-10.004 -4.555,-7.597c3.348,2.97 3.35,8.112 2.603,8.19c-0.226,0.024 -0.166,-0.581 -0.392,-0.558c-0.07,-0.181 0.235,-0.377 0.165,-0.558c-0.581,-1.501 -1.976,-1.756 -1.48,-0.537c0,0 0.371,1.023 0.404,1.112c0.41,2.509 -2.205,1.047 -3.684,0.547c-9.059,-3.067 -9.887,-20.021 -9.109,-20.927c4.441,-5.175 5.299,-3.294 5.357,-3.264c25.856,13.07 26.601,17.746 23.185,22.352Z" style="fill:#f9cacf;stroke:#7abfbf;stroke-width:3.13px;"/><path d="M100.245,140.628c0.4,5.154 3.061,9.086 -12.457,14.735c-17.428,6.345 -44.332,-0.661 -43.872,-9.75c0.12,-2.373 -0.307,-5.387 1.578,-3.455c4.105,4.208 15.931,7.605 23.375,7.757c2.41,0.049 19.085,0.392 29.205,-7.435c1.15,-0.889 0.967,-1.811 2.171,-1.852Z" style="fill:#f9cacf;stroke:#7abfbf;stroke-width:3.13px;"/><path d="M42.283,83.589c-6.706,-4.649 -2.821,-7.992 -5.417,-8.703c-1.978,-0.541 0.351,-1.759 0.79,-2.291c0.021,-0.026 3.347,-5.818 10.16,-5.228c6.231,0.539 7.62,5.433 8.869,12.467c0.039,0.218 0.622,3.503 -0.797,2.652c-0.118,-0.07 -0.715,-3.314 -1.499,-1.927c-1.528,2.701 -1.741,2.559 -4.634,3.888c-1.971,0.313 -1.924,0.273 -3.907,0.269c-1.906,-0.316 -1.85,-0.349 -3.565,-1.127Z" style="fill:#f9cacf;stroke:#7abfbf;stroke-width:3.13px;"/><path d="M87.557,79.67c-0.612,1.936 -0.333,1.996 -0.428,2.143c-1.869,2.889 -1.368,-10.107 3.137,-13.375c7.837,-5.686 15.512,4.119 15.806,4.342c1.433,1.09 -1.261,0.988 -1.307,1.998c-0.13,2.853 -0.172,2.839 -1.395,5.424c-2.547,3.124 -3.562,3.339 -6.396,3.891c-2.508,0.049 -2.493,0.172 -4.878,-0.532c-1.544,-0.848 -1.547,-0.798 -2.892,-1.954c0.615,-0.781 0.953,-0.777 0.476,-1.64c-1.006,-1.821 -0.953,-1.983 -1.103,-1.893c0,0 -0.938,1.468 -1.02,1.595Z" style="fill:#f9cacf;stroke:#7abfbf;stroke-width:3.13px;"/><path d="M116.007,12.117c0.296,-0.266 0.268,-0.252 0.59,-0.529c1.179,-1.015 0.985,0.09 1.025,0.157c0.188,0.316 0.685,0.358 0.873,0.674c-2.085,2.249 -18.2,19.641 -16.501,34.602c0.045,0.397 0.317,1.414 0.343,1.435c0.135,0.113 0.198,-0.523 0.333,-0.41c0.151,-0.009 0.302,-0.018 0.453,-0.027c0.254,-0.819 0.658,-5.379 7.631,-10.287c4.222,-2.972 9.145,-4.319 10.09,-4.307c3.648,0.044 -1.511,1.51 -1.688,1.56c-14.678,4.171 -15.775,19.652 -13.158,16.89c0.592,-0.625 5.964,-6.292 8.866,-6.094c2.156,0.147 -2.35,2.028 -3.645,2.965c-4.192,3.032 -5.834,9.038 -3.502,6.429c2.255,-2.524 7.565,-1.452 4.098,-0.269c-6.564,2.238 -4.919,9.96 5.527,9.625c-0.041,0.078 0.505,0.766 -0.541,1.025c-6.703,1.659 -10.43,-4.581 -10.93,-5.419c-2.877,-4.817 -1.481,-6.187 -6.299,-10.03c-0.543,-0.433 -1.248,-0.996 0.077,-8.687c2.371,-13.768 14.54,-26.246 16.357,-28.108c0.363,-0.373 0.363,-0.382 0.363,-0.427c0.001,-0.483 -0.362,-0.313 -0.362,-0.768Z" style="fill:#f9cacf;stroke:#7abfbf;stroke-width:3.13px;"/><path d="M25.509,13.383c3.812,3.6 18.551,16.398 23.763,28.092c1.151,2.581 -0.693,2.122 -2.488,4.32c-1.374,1.682 -2.393,1.092 -2.456,3.271c-0.769,-0.277 -0.736,-0.25 -1.362,-0.744c-0.747,-19.706 -17.94,-33.506 -18.043,-34.325c-0.035,-0.281 0.622,-0.334 0.587,-0.615Z" style="fill:#f9cacf;stroke:#7abfbf;stroke-width:3.13px;"/><path d="M70.369,47.408c0.128,0.244 1.258,5.218 3.629,7.558c4.121,4.07 4.104,4.522 4.432,4.162c0.987,-1.083 -7.593,-12.27 -4.79,-12.716c0.397,-0.063 1.143,4.452 4.274,6.728c0.445,0.323 0.919,0.606 1.365,0.927c1.614,1.162 3.228,2.72 2.264,0.979c-1.522,-2.747 -8.021,-8.371 -5.587,-8.284c0.197,0.007 3.715,5.316 10.34,5.692c0.493,-0.364 0.987,-0.727 1.48,-1.091c2.779,1.079 6.294,0.113 3.715,1.661c-2.47,1.483 -7.571,0.343 -8.212,0.2c-3.031,-0.677 1.373,1.869 0.08,8.445c-0.73,3.713 -0.993,-1.531 -1.001,-1.688c-0.116,-2.302 -4.467,-5.902 -3.884,-4.381c0.242,0.631 2.987,7.792 2.007,8.211c-0.88,0.376 -1.419,-1.932 -2.368,-3.002c-0.274,-0.309 -3.369,-3.799 -3.736,-3.564c-0.538,0.346 2.199,4.465 -0.797,9.763c-1.344,2.375 -0.635,-0.655 -0.829,-2.974c0.954,-1.236 1.913,-1.397 -0.094,-7.198c-1.001,-2.894 -2.104,-3.002 -3.102,-8.856l0.814,-0.571Z" style="fill:#f9cacf;stroke:#7abfbf;stroke-width:3.13px;"/><path d="M69.676,24.57c0.327,-0.971 0.117,-1.67 0.991,-1.155c0.781,0.461 0.451,0.675 0.781,1.169c-0.037,0.394 -0.799,8.502 0.359,4.935c3.424,-10.552 13.579,-12.502 9.423,-9.504c-4.359,3.144 -4.953,10.993 -4.868,11.069c0.555,0.492 0.52,-0.102 1.706,-1.514c3.831,-4.561 9.522,-6.538 10.929,-6.297c2.893,0.496 -1.248,0.428 -4.871,3.973c-1.24,1.214 -3.375,4.413 -3.374,4.418c0.102,0.266 0.504,0.337 0.606,0.603c-0.087,0.036 -1.086,0.445 -1.086,0.445c-0.336,-0.148 -0.519,-0.549 -0.855,-0.697c0.124,-0.217 3.108,-5.426 0.86,-2.998c-3.144,3.396 -14.05,20.979 -7.337,8.271c2.597,-4.915 1.655,-6.775 2.909,-10.528c4.89,-14.632 -6.77,12.976 -7.739,13.089c-1.273,0.149 -0.341,-0.673 1.093,-5.234c0.066,-0.211 0.66,-1.541 0.72,-1.674c0.397,-2.447 0.142,-2.559 0.126,-3.93c-0.032,-2.892 0.666,-3.048 -0.374,-4.44Z" style="fill:#f9cacf;stroke:#7abfbf;stroke-width:3.13px;"/><path d="M67.184,25.203c-1.941,3.47 1.973,8.792 -4.643,16.151c-3.033,3.374 -0.744,-1.051 -0.692,-1.145c2.739,-5.017 -2.976,-16.559 -1.594,-9.407c0.896,4.636 -0.593,7.469 -0.926,8.427c-0.426,-0.351 -0.852,-0.702 -1.278,-1.053c4.678,-10.677 -6.193,-17.342 -1.389,-14.842c0.776,0.404 6.904,5.472 7.116,10.732c0.029,0.719 0.047,0.683 0.094,1.369c-0.12,1.398 -0.39,1.478 -0.269,1.489c0.215,0.02 0.157,-0.059 1.03,-1.207c1.801,-7.422 -0.348,-12.527 2.165,-15.491c2.13,-2.512 0.336,1.077 0.387,4.976Z" style="fill:#f9cacf;stroke:#7abfbf;stroke-width:3.13px;"/><path d="M64.796,123.333c5.461,-0.245 5.3,-3.184 8.303,-1.667c4.218,2.131 7.977,1.158 5.33,2.725c-5.478,3.244 -7.884,3.099 -13.015,0.125c-0.966,-0.56 -0.451,-0.864 -0.618,-1.184Z" style="fill:#f9cacf;stroke:#7abfbf;stroke-width:3.13px;"/><path d="M79.417,32.014c0.336,0.148 0.519,0.549 0.855,0.697c0,0 0.999,-0.41 1.086,-0.445c6.463,-5.114 11.447,-3.772 9.367,-2.988c-0.759,0.286 -5.46,2.057 -7.065,7.276c-0.45,-0.195 -0.9,-0.391 -1.35,-0.586c1.804,-3.097 4.898,-6.093 1.856,-4.2c-6.804,4.234 -11.185,14.124 -8.167,6.661c0.001,-0.003 3.012,-5.618 3.418,-6.414Z" style="fill:#f9cacf;stroke:#7abfbf;stroke-width:3.13px;"/><path d="M71.65,103.881c0.487,0.018 5.159,0.191 6.036,0.83c3.166,2.307 -14.369,3.064 -13.025,0.688c0.732,-1.293 1.107,-0.741 6.989,-1.518Z" style="fill:#f9cacf;stroke:#7abfbf;stroke-width:3.13px;"/><path d="M72.326,60.105c-0.293,0.506 -0.586,1.013 -0.879,1.519c0.067,3.249 0.023,3.243 0.037,3.525c-0.958,-0.289 -1.287,-0.219 -1.086,-1.181c0.949,-4.534 -5.507,-7.854 -4.424,-17.64c0.093,-0.845 0.996,-0.74 1.029,-0.015c0.347,7.563 1.505,7.256 5.323,13.792Z" style="fill:#f9cacf;stroke:#7abfbf;stroke-width:3.13px;"/><path d="M66.569,62.499c-2.252,-7.237 -5.78,-6.837 -4.676,-13.483c1.26,-7.59 0.993,2.404 1.34,3.45c1.247,3.761 6.737,9.906 6.404,10.898c-0.12,0.356 -0.714,0.403 -0.833,0.76c-0.085,-0.24 -0.169,-0.48 -0.254,-0.72c-0.709,-1.052 -0.76,-1.263 -1.981,-0.904Z" style="fill:#f9cacf;stroke:#7abfbf;stroke-width:3.13px;"/><path d="M12.459,52.58c0.1,-0.132 -0.202,-0.354 -0.102,-0.486c0.757,-0.993 0.991,-0.451 1.934,0.403l-0.449,0.592c0.126,0.374 0.252,0.749 0.377,1.123c1.59,3.462 1.267,3.525 2.579,7.106c0.457,1.247 1.262,2.181 1.405,2.347c1.101,1.277 0.598,1.432 0.62,1.758c-5.557,-3.672 -4.968,-7.255 -6.364,-12.843Z" style="fill:#f9cacf;stroke:#7abfbf;stroke-width:3.13px;"/><path d="M69.676,24.57c-0.795,3.03 -0.542,3.032 -0.548,6.144c-0.002,1.03 -0.47,0.745 -0.802,1.271c-0.523,-2.687 -0.506,-2.647 -0.554,-2.877c-0.329,-1.577 -0.364,-1.53 -0.32,-1.735c0.051,-0.235 0.427,-0.305 0.478,-0.54c0.057,-0.227 1.424,-8.115 6.558,-10.405c2.282,-1.018 -0.342,1.397 -0.433,1.481c-2.576,2.37 -2.485,5.289 -2.608,6.676c-0.33,-0.494 0.001,-0.708 -0.781,-1.169c-0.874,-0.516 -0.664,0.184 -0.991,1.155Z" style="fill:#f9cacf;stroke:#7abfbf;stroke-width:3.13px;"/><path d="M85.105,44.482c1.897,-1.485 1.757,0.81 4.13,1.26c2.046,0.388 2.089,0.53 3.972,-0.327c0.186,0.458 0.372,0.917 0.558,1.375c-0.562,0.104 -3.642,0.554 -1.665,1.106c2.625,0.733 -1.835,2.095 -5.006,1.652c-0.887,-0.124 -0.845,-0.102 -1.735,-0.21c0.221,-0.389 0.443,-0.778 0.664,-1.167c0.214,0.027 5.237,0.651 2.577,-0.79c-2.29,-1.24 -2.399,-1.263 -3.495,-2.9Z" style="fill:#f9cacf;stroke:#7abfbf;stroke-width:3.13px;"/><path d="M92.353,64.019c0.656,-0.142 4.354,-0.941 8.361,0.657c1.032,0.411 2.879,1.839 3.149,2.369c2.063,4.04 -1.471,-1.378 -5.972,-1.781c-8.204,-0.735 -7.901,2.416 -9.445,2.282c-0.419,-0.036 -1.373,-1.483 3.907,-3.527Z" style="fill:#f9cacf;stroke:#7abfbf;stroke-width:3.13px;"/><path d="M128.125,50.863c1.104,-0.94 1.117,0.016 1.593,0.164c-1.513,5.351 0.027,8.038 -5.099,12.479c-0.14,-0.299 -0.56,-0.402 -0.7,-0.701c-0.149,-0.319 1.093,0.212 1.998,-3.927c0.862,-3.942 1.217,-3.769 2.368,-6.684c0.384,-0.972 -0.111,-0.918 -0.16,-1.331Z" style="fill:#f9cacf;stroke:#7abfbf;stroke-width:3.13px;"/><path d="M47.81,64.12c7.603,1.37 6.827,3.561 6.255,3.65c-0.573,0.089 -6.07,-4.258 -12.936,-0.638c-0.118,0.062 -6.488,3.42 -1.616,-0.436c3.497,-2.769 3.876,-1.92 8.298,-2.575Z" style="fill:#f9cacf;stroke:#7abfbf;stroke-width:3.13px;"/><path d="M128.125,50.863c0.05,0.413 0.544,0.358 0.16,1.331c-1.15,2.916 -1.506,2.742 -2.368,6.684c-0.905,4.139 -2.148,3.608 -1.998,3.927c0.14,0.299 0.56,0.402 0.7,0.701c-1.806,1.156 -1.8,1.065 -3.877,1.703c0.366,-0.519 0.242,-0.55 0.697,-0.989c3.927,-3.788 2.42,-8.411 6.685,-13.357Z" style="fill:#f9cacf;stroke:#7abfbf;stroke-width:3.13px;"/><path d="M49.754,84.446c0.925,0.922 1.02,0.883 0.996,0.993c-0.22,1.026 -5.007,1.191 -5.454,1.206c-4.797,0.165 -8.89,-5.03 -8.93,-6.033c-0.107,-2.667 1.589,2.677 6.763,4.687c2.579,1.002 2.706,-0.578 2.719,-0.584c1.983,0.004 1.935,0.043 3.907,-0.269Z" style="fill:#f9cacf;stroke:#7abfbf;stroke-width:3.13px;"/><path d="M92.81,239.034c-0.519,0.591 -4.421,5.029 -7.752,6.052c-0.1,0.031 -1.859,-0.262 0.142,-1.304c9.566,-4.978 7.513,-10.666 9.536,-9.668c0.256,0.126 0.072,2.073 -1.926,4.92Z" style="fill:#f9cacf;stroke:#7abfbf;stroke-width:3.13px;"/><path d="M104.304,81.243c0.084,0.377 0.365,0.305 0.173,0.776c-2.029,4.975 -12.992,4.562 -13.038,2.569c-0.009,-0.406 0.667,-0.621 0.657,-1.027c2.385,0.704 2.371,0.581 4.878,0.532c0.373,0.178 0.369,0.816 0.742,0.994c1.537,0.734 6.136,-3.434 6.588,-3.844Z" style="fill:#f9cacf;stroke:#7abfbf;stroke-width:3.13px;"/><path d="M14.291,52.498c4.548,5.947 2.316,8.227 6.467,12.521c-0.412,0.235 -0.266,1.279 -1.935,0.405c-0.022,-0.326 0.481,-0.481 -0.62,-1.758c-0.143,-0.166 -0.948,-1.1 -1.405,-2.347c-1.312,-3.581 -0.989,-3.644 -2.579,-7.106c-0.126,-0.374 -0.252,-0.749 -0.377,-1.123l0.449,-0.592Z" style="fill:#f9cacf;stroke:#7abfbf;stroke-width:3.13px;"/><path d="M52.103,235.05l0.626,-0.121c5.568,9.671 7.764,7.494 9.919,9.58c0.191,0.184 -0.105,1.486 -3.29,-0.403c-0.461,-0.274 -6.952,-4.07 -7.255,-9.056Z" style="fill:#f9cacf;stroke:#7abfbf;stroke-width:3.13px;"/><path d="M49.039,75.673c-1.553,-0.409 -1.865,-0.286 -2.192,-1.877c-0.035,-0.171 -0.251,-1.223 0.614,-2.098c2.508,-2.535 7.072,3.052 1.578,3.974Z" style="fill:#f9cacf;stroke:#7abfbf;stroke-width:3.13px;"/><path d="M96.327,75.077c-0.334,-0.078 -4.363,-1.022 -1.606,-3.973c2.285,-2.447 6.846,2.649 1.606,3.973Z" style="fill:#f9cacf;stroke:#7abfbf;stroke-width:3.13px;"/><path d="M84.345,43.617c3.031,-2.19 6.899,0.827 8.862,1.798c-1.884,0.856 -1.927,0.715 -3.972,0.327c-2.372,-0.45 -2.232,-2.745 -4.13,-1.26l-0.76,-0.865Z" style="fill:#f9cacf;stroke:#7abfbf;stroke-width:3.13px;"/><path d="M86.024,48.172c-0.221,0.389 -0.443,0.778 -0.664,1.167c0.029,0.289 -0.324,0.67 2.416,2.024c-0.493,0.364 -0.987,0.727 -1.48,1.091c-1.81,-2.554 -7.137,-5.072 -5.347,-5.855c0.711,-0.311 0.473,0.976 5.075,1.573Z" style="fill:#f9cacf;stroke:#7abfbf;stroke-width:3.13px;"/><path d="M43.134,82.257c-0.664,-0.221 -4.358,-1.447 -4.004,-7.776c0.1,-1.782 2.203,-3.41 1.682,-1.725c-0.657,2.126 -1.745,3.79 2.322,9.501Z" style="fill:#f9cacf;stroke:#7abfbf;stroke-width:3.13px;"/><path d="M99.239,81.509c2.966,-3.977 3.734,-4.084 2.634,-8.937c-0.463,-2.042 1.504,-0.385 1.589,1.129c0.079,1.419 0.516,5.326 -3.157,7.86c-0.07,0.048 -0.079,-0.004 -1.066,-0.051Z" style="fill:#f9cacf;stroke:#7abfbf;stroke-width:3.13px;"/><path d="M103.371,80.202l0.933,1.041c-0.452,0.41 -5.051,4.578 -6.588,3.844c-0.373,-0.178 -0.369,-0.816 -0.742,-0.994c2.834,-0.552 3.85,-0.767 6.396,-3.891Z" style="fill:#f9cacf;stroke:#7abfbf;stroke-width:3.13px;"/><path d="M69.676,24.57c1.04,1.393 0.342,1.549 0.374,4.44c0.015,1.371 0.27,1.484 -0.126,3.93c-0.323,-0.017 -0.509,-0.483 -0.833,-0.5c-0.215,-0.011 -0.266,0.421 -0.482,0.432c-0,0 -0.261,-0.817 -0.283,-0.888c0.332,-0.526 0.8,-0.241 0.802,-1.271c0.006,-3.112 -0.247,-3.114 0.548,-6.144Z" style="fill:#f9cacf;stroke:#7abfbf;stroke-width:3.13px;"/><path d="M29.293,371.015l0.5,0.118c0.03,0.124 0.349,-0.178 0.379,-0.054c0.047,0.194 -0.207,0.347 -0.262,0.54c-0.677,2.341 -0.621,2.347 -0.3,4.773c-0.447,-0.098 -0.894,-0.196 -1.34,-0.295c-0.136,-3.038 -0.134,-3.058 1.024,-5.082Z" style="fill:#f9cacf;stroke:#7abfbf;stroke-width:3.13px;"/><path d="M105.272,373.525c0.134,1.531 -0.039,2.075 -1.482,1.637c-0.12,-0.221 -2.404,-4.436 -0.603,-3.089c0.966,0.723 0.251,1.307 1.278,1.893c0.266,0.152 0.541,-0.593 0.807,-0.441Z" style="fill:#f9cacf;stroke:#7abfbf;stroke-width:3.13px;"/><path d="M44.779,376.061c1.501,-2.961 1.696,-3.098 1.945,-3.273c1.531,-1.075 -0.161,2.403 -0.469,3.1c-0.225,0.509 -0.067,0.486 -0.147,1.062c-0.512,-0.269 -0.445,-0.263 -1.329,-0.889Z" style="fill:#f9cacf;stroke:#7abfbf;stroke-width:3.13px;"/><path d="M87.557,79.67c0.082,-0.128 1.02,-1.595 1.02,-1.595c0.15,-0.09 0.097,0.071 1.103,1.893c0.476,0.863 0.139,0.858 -0.476,1.64c-0.779,-1.045 -0.736,-1.02 -1.647,-1.937Z" style="fill:#f9cacf;stroke:#7abfbf;stroke-width:3.13px;"/><path d="M14.186,361.377c0.226,-0.429 0.38,-0.319 0.418,-0.793c0.197,-2.456 1.982,-2.685 1.684,-1.599c-0.388,1.409 -0.438,1.371 -0.458,2.831c-1.534,-0.393 -1.509,-0.422 -1.644,-0.439Z" style="fill:#f9cacf;stroke:#7abfbf;stroke-width:3.13px;"/><path d="M21.804,359.551c0.141,-0.12 1.722,-1.468 1.792,-1.475c0.592,-0.059 0.221,0.259 0.094,0.812c0,0 -0.452,1.958 -0.491,2.128c-1.04,-0.337 -1.04,-0.382 -1.395,-1.466Z" style="fill:#f9cacf;stroke:#7abfbf;stroke-width:3.13px;"/><path d="M66.569,62.499c1.221,-0.359 1.272,-0.148 1.981,0.904c-0.253,0.146 -0.623,-0.147 -0.876,-0.001c-0.072,0.042 0.466,0.256 -0.4,0.957c-0.758,0.615 -0.443,-0.263 -0.706,-1.86Z" style="fill:#f9cacf;stroke:#7abfbf;stroke-width:3.13px;"/><path d="M115.578,376.088c-0.86,0.267 -0.743,0.426 -1.574,0.692c-0.207,-2.517 -0.259,-2.651 -0.049,-2.633c0.568,0.05 0.912,0.986 0.952,1.095c0.192,0.523 0.31,0.39 0.671,0.845Z" style="fill:#f9cacf;stroke:#7abfbf;stroke-width:3.13px;"/><path d="M72.326,60.105c0.058,0.162 0.725,2.029 0.725,2.029c-0.035,0.321 -0.622,0.389 -0.658,0.71c-0.315,-0.407 -0.631,-0.813 -0.946,-1.22c0.293,-0.506 0.586,-1.013 0.879,-1.519Z" style="fill:#f9cacf;stroke:#7abfbf;stroke-width:3.13px;"/><path d="M126.334,358.761c-0.032,-0.089 -0.404,-1.112 -0.404,-1.112c-0.496,-1.219 0.899,-0.964 1.48,0.537c0.07,0.181 -0.235,0.377 -0.165,0.558l-0.912,0.016Z" style="fill:#f9cacf;stroke:#7abfbf;stroke-width:3.13px;"/><path d="M65.556,112.106c0.292,1.983 -0.807,0.925 -0.865,0.848c-0.54,-0.723 -0.018,-0.774 0.865,-0.848Z" style="fill:#f9cacf;stroke:#7abfbf;stroke-width:3.13px;"/><path d="M28.067,47.105l-0.158,0.901c-0.979,-0.572 -2.018,-0.888 -0.886,-1.153c0,0 0.96,0.232 1.044,0.252Z" style="fill:#f9cacf;stroke:#7abfbf;stroke-width:3.13px;"/><path d="M78.446,111.875c0.808,0.465 0.868,0.421 0.87,0.501c0.022,0.727 -0.822,0.628 -0.909,0.617c-0.783,-0.093 -0.238,-0.422 0.039,-1.119Z" style="fill:#f9cacf;stroke:#7abfbf;stroke-width:3.13px;"/><path d="M36.149,376.54c-0.594,-0.993 -0.704,-0.993 -0.64,-1.069c1.666,-1.946 0.672,0.974 0.64,1.069Z" style="fill:#f9cacf;stroke:#7abfbf;stroke-width:3.13px;"/><path d="M63.871,35.435l0.761,0.282c-0.873,1.148 -0.814,1.228 -1.03,1.207c-0.121,-0.011 0.149,-0.091 0.269,-1.489Z" style="fill:#f9cacf;stroke:#7abfbf;stroke-width:3.13px;"/><path d="M117.343,64.532c0.129,-0.04 2.01,-0.617 1.692,0.018c-0.116,0.232 -0.321,0.563 -0.578,0.523c-0.07,-0.011 0.282,-0.295 -0.544,-0.696c-0.316,-0.153 -0.26,0.305 -0.57,0.155Z" style="fill:#f9cacf;stroke:#7abfbf;stroke-width:3.13px;"/><path d="M70.369,47.408l-0.814,0.571c0.002,-0.854 -0.083,-1.4 0.69,-0.994c0.13,0.068 -0.005,0.354 0.124,0.422Z" style="fill:#f9cacf;stroke:#7abfbf;stroke-width:3.13px;"/><path d="M24.909,12.907c-0.103,-0.001 -1.922,-0.013 -1.108,-0.661c0.081,-0.064 0.079,0.047 1.108,0.661Z" style="fill:#f9cacf;stroke:#7abfbf;stroke-width:3.13px;"/></g></svg>