<?xml version="1.0" encoding="UTF-8" standalone="no"?><!DOCTYPE svg PUBLIC "-//W3C//DTD SVG 1.1//EN" "http://www.w3.org/Graphics/SVG/1.1/DTD/svg11.dtd"><svg width="100%" height="100%" viewBox="0 0 335 222" version="1.1" xmlns="http://www.w3.org/2000/svg" xmlns:xlink="http://www.w3.org/1999/xlink" xml:space="preserve" xmlns:serif="http://www.serif.com/" style="fill-rule:evenodd;clip-rule:evenodd;stroke-linejoin:round;stroke-miterlimit:2;"><g><g><path d="M13.059,9.414c32.532,-12.811 83.395,-3.459 107.254,11.931c20.329,13.112 19.321,15.828 43.741,21.272c55.794,12.437 56.852,3.353 86.23,8.377c-4.799,11.396 -4.838,11.375 -6.471,13.724c-8.745,12.583 -3.722,16.04 -9.548,27.43c-4.696,9.181 -4.247,9.349 -5.732,20.377c-0.025,0.183 -6.631,16.642 12.052,21.505c15.022,3.91 15.203,2.766 30.649,1.426c10.702,-0.929 11.334,-9.424 32.27,-13.26c11.363,-2.082 11.323,-2.357 21.186,-8.296c1.343,4.809 4.954,16.736 5.94,28.616c2.083,25.089 -18.225,47.531 -25.114,52.936c-15.086,11.835 -46.962,3.02 -52.211,0.976c-10.302,-4.011 -10.515,-3.858 -60.788,-5.87c-31.142,-1.247 -41.581,-6.288 -90.025,-13.055c-3.771,-0.189 -4.769,-0.1 -5.182,-0.063c-2.55,1.117 -2.667,4.051 -5.592,15.995c-3.408,-0.508 -3.346,-0.553 -6.693,-1.354c-0.191,-0.784 0.018,-0.83 -3.028,-11.986c-4.405,-16.13 -5.611,-15.646 -14.176,-29.955c-10.094,-16.862 -17.374,-17.045 -31.136,-31.03c-21.283,-21.628 -32.923,-66.657 -32.655,-76.365c0.047,-1.711 0.794,-1.137 2.509,-1.032c7.207,0.44 8.452,-4.78 8.241,-5.694c-0.508,-2.195 -1.087,-0.039 -2.63,1.905c-1.383,1.743 -5.002,2.26 -7.31,1.469c-1.331,-0.456 -1.992,-0.898 -0.314,-17.579c0.203,-2.018 2.289,-1.03 2.147,-3.089c4.139,-2.505 6.104,-8.452 6.387,-9.31Z" style="fill:#fefefe;stroke:#f68fba;stroke-width:3.13px;"/><path d="M250.284,50.993c5.303,1.016 5.276,0.908 10.447,2.415c43.91,12.803 55.125,30.973 63.959,60.491c-9.863,5.938 -9.823,6.214 -21.186,8.296c-20.936,3.836 -21.569,12.331 -32.27,13.26c-15.446,1.341 -15.627,2.484 -30.649,-1.426c-18.683,-4.863 -12.077,-21.321 -12.052,-21.505c1.485,-11.028 1.035,-11.196 5.732,-20.377c5.826,-11.39 0.803,-14.848 9.548,-27.43c1.633,-2.349 1.672,-2.328 6.471,-13.724Z" style="fill:#fbd4cf;stroke:#f68fba;stroke-width:3.13px;"/><path d="M90.622,48.055c-3.222,2.321 -3.567,7.186 -6.997,10.326c-4.913,4.498 -4.887,4.444 -9.181,9.584c-0.24,0.287 -0.36,0.43 -3.691,2.865c-1.525,0.086 -1.941,0.482 -1.2,1.824c-3.365,2.622 -6.603,6.726 -21.655,-0.887c-8.232,-4.164 -5.484,-8.317 -12.571,-17.245c-4.766,-6.004 -1.975,-7.729 -5.545,-20.002c-0.973,-3.344 2.146,-3.069 4.33,-5.39c3.894,-4.137 -2.992,-8.821 4.591,-12.723c16.732,-8.61 40.289,-7.079 45.779,-2.837c12.643,9.77 13.187,9.376 13.745,11.133c2.963,9.326 -1.161,11.155 -7.605,23.353Z" style="fill:#fbd4cf;stroke:#fbd4cf;stroke-width:3.13px;"/><path d="M68.774,2.37l2.068,0.21c3.068,0.774 3.012,0.713 6.163,1.407c15.393,3.376 15.365,3.34 16.464,3.652c2.448,0.707 17.044,4.92 29.127,12.885c21.351,14.074 20.911,15.715 45.943,21.024l2.915,0.604c3.77,0.893 3.725,0.822 7.526,1.564c1.746,0.295 3.493,0.59 5.239,0.884c2.973,0.494 20.292,3.371 37.542,3.134c16.343,-0.225 20.708,-1.663 44.236,5.14c0.703,0.212 1.406,0.423 2.109,0.635c9.081,3.75 9.119,3.467 18.07,7.487c10.344,5.155 11.739,6.771 12.679,7.42c0.028,0.025 16.846,12.132 24.95,35.843c10.715,31.349 8.769,46.909 8.256,51.011c-0.276,1.434 -1.593,8.286 -6.216,17.163c-18.363,35.258 -38.529,30.52 -39.583,30.829c-1.436,0.42 0.069,2.818 -4.528,3.471c-11.004,1.563 -9.647,4.315 -15.163,11.394c-2.759,3.541 -6.498,1.413 -4.011,-3.484c3.161,-6.227 -2.331,1.132 -9.226,2.375c-4.382,0.79 -3.381,-3.727 3.108,-7.475c10.638,-6.144 -14.275,2.913 -13.078,-3.311c0.509,-2.646 14.714,-4.834 16.043,-5.039c2.733,-0.421 -4.749,-1.952 -8.256,-3.483c-4.316,-1.884 -4.426,-0.256 -9.139,0.267c-8.34,0.925 -7.845,2.439 -15.7,5.421c-5.301,2.012 -6.953,-1.17 -4.117,-3.477c4.778,-3.886 -1.787,-1.297 -7.929,-1.184c-3.319,0.061 -5.957,-2.234 -1.627,-4.053c4.994,-2.097 -1.243,-1.379 -3.61,-1.462c-28.835,-1.014 -29.657,-1.137 -32.208,-1.52c-32.622,-4.892 -32.465,-5.443 -35.302,-5.818c-2.145,-0.284 -1.658,5.847 -2.461,7.502c-0.406,0.838 -0.65,0.442 -1.23,0.837c-0.26,-1.112 -0.269,-1.034 -0.292,-2.227c0.593,-5.603 0.642,-5.611 0.514,-6.083c-0.249,-0.915 -0.534,-0.842 -11.53,-2.742c-3.369,-0.582 0.916,1.125 5.343,8.808c-0.279,6.043 -8.862,0.168 -12.079,0.205c-1.645,0.019 -0.12,1.953 6.663,3.779c6.87,1.85 -6.957,2.686 -8.828,5.124c-1.71,2.229 5.166,-0.809 5.867,-0.969c8.677,-1.975 2.357,4.02 1.729,5.449c-1.366,3.111 3.488,-1.842 3.727,-2.086c4.035,-4.117 6.463,-1.501 8.922,-6.887c0.22,0.119 0.72,-0.439 1.33,0.723c1.104,2.103 -2.685,4.018 -3.056,4.205c-4.408,2.228 -4.327,2.259 -8.108,5.515c-4.186,3.605 -6.152,-0.323 -3.576,-3.639c3.936,-5.067 -6.019,1.473 -8.332,0.336c-0.627,-0.308 -3.365,-3.074 5.936,-6.411c2.118,-0.76 -2.655,-1.814 -4.427,-3.22c-0.311,-0.247 -4.016,-4.648 3.604,-3.412c4.334,0.703 4.028,1.617 8.269,2.438c2.8,0.543 -3.94,-6.489 -5.503,-8.297c-1.849,-2.138 -1.979,-2.316 -19.315,-5.35c-1.465,-0.256 -3.061,0.491 -2.197,-1.983c48.444,6.767 58.883,11.809 90.025,13.055c50.273,2.013 50.485,1.859 60.788,5.87c5.249,2.044 37.125,10.859 52.211,-0.976c6.889,-5.405 27.196,-27.847 25.114,-52.936c-0.986,-11.88 -4.597,-23.806 -5.94,-28.616c-8.833,-29.518 -20.049,-47.688 -63.959,-60.491c-5.171,-1.508 -5.144,-1.4 -10.447,-2.415c-29.377,-5.024 -30.436,4.06 -86.23,-8.377c-24.42,-5.443 -23.412,-8.16 -43.741,-21.272c-23.859,-15.389 -74.723,-24.742 -107.254,-11.931c-3.854,1.486 -11.713,3.836 -6.387,9.31c0.142,2.058 -1.945,1.071 -2.147,3.089c-1.677,16.682 -1.016,17.124 0.314,17.579c2.309,0.791 5.927,0.274 7.31,-1.469c1.542,-1.943 2.122,-4.1 2.63,-1.905c0.211,0.914 -1.033,6.134 -8.241,5.694c-1.715,-0.105 -2.462,-0.679 -2.509,1.032c-0.268,9.707 11.372,54.737 32.655,76.365c13.762,13.985 21.042,14.168 31.136,31.03c8.565,14.309 9.771,13.825 14.176,29.955c3.046,11.156 2.837,11.202 3.028,11.986c-0.039,0.856 0.03,0.834 -0.272,1.625c-0.116,-0.083 -1.453,-1.043 -1.453,-1.043c-4.667,-13.217 -0.857,-16.13 -16.581,-40.445c-2.395,-4.138 -5.169,-9.367 -12.9,-15.794c-0.684,-0.538 -1.369,-1.076 -2.053,-1.613c-14.234,-12.419 -29.244,-18.85 -45.645,-71.144c-1.025,-3.269 -6.88,-21.935 -3.54,-42.672c1.08,-6.702 -0.841,-8.345 5.585,-11.674c21.285,-11.025 57.704,-7.119 60.607,-6.95Z" style="fill:#26b9d9;stroke:#f68fba;stroke-width:3.13px;"/><path d="M90.622,48.055l0.651,1.373c-2.442,2.828 7.372,3.994 1.999,12.684c-1.519,2.457 -5.435,4.64 -7.033,7.059c-1.434,2.17 -4.85,8.597 -10.555,6.235c-2.396,-0.992 -1.737,-1.748 -4.931,-4.575c3.331,-2.434 3.451,-2.578 3.691,-2.865c4.294,-5.14 4.269,-5.086 9.181,-9.584c3.43,-3.141 3.775,-8.006 6.997,-10.326Z" style="fill:#fbd4cf;stroke:#fbd4cf;stroke-width:3.13px;"/><path d="M264.475,202.208c2.805,-0.121 2.788,-0.154 3.029,-0.131c15.079,1.469 16.074,0.712 15.877,1.976c-0.09,0.578 -4.977,1.134 -5.418,1.184c-8.729,0.993 -12.136,12.659 -14.117,12.71c-1.048,0.027 -0.256,-0.653 2.764,-7.215c2.335,-5.075 -12.587,4.829 -13.299,4.428c-1.961,-1.103 8.181,-6.159 9.255,-7.178c4.566,-4.329 -15.963,-1.107 -16.004,-1.111c-7.169,-0.692 16.45,-4.433 17.912,-4.665Z" style="fill:#e8bfaa;stroke:#f68fba;stroke-width:3.13px;"/><path d="M85.025,192.08c3.348,0.802 3.285,0.846 6.693,1.354c-0.41,1.934 -0.537,1.883 -0.363,3.797c-0.315,2.346 -1.176,1.74 -8.232,5.495c-2.366,1.259 -4.617,5.17 -5.614,6.267c-4.426,4.871 1.062,-4.466 1.263,-4.809c3.051,-5.191 -2.756,-0.77 -8.514,-2.409c1.827,-1.911 12.383,-2.385 8.061,-4.146c-1.475,-0.601 -8.339,-2.807 -8.681,-3.4c-0.092,-0.16 0.228,-0.378 0.136,-0.538c5.101,-0.22 11.812,4.158 14.116,1.349c0.522,-0.613 0.497,-0.569 0.862,-1.336c0.302,-0.791 0.232,-0.769 0.272,-1.625Z" style="fill:#e8bba4;stroke:#f68fba;stroke-width:3.13px;"/><path d="M131.866,191.979c1.569,-0.587 1.7,-2.259 5.673,0.016c0.023,1.192 0.032,1.115 0.292,2.227c0.236,0.561 0.124,0.55 0.037,2.373c-2.459,5.386 -4.887,2.77 -8.922,6.887c-0.239,0.244 -5.093,5.197 -3.727,2.086c0.628,-1.429 6.947,-7.424 -1.729,-5.449c-0.701,0.159 -7.577,3.198 -5.867,0.969c1.871,-2.439 15.697,-3.274 8.828,-5.124c-6.783,-1.827 -8.308,-3.76 -6.663,-3.779c3.217,-0.037 11.799,5.838 12.079,-0.205Z" style="fill:#e6bca6;stroke:#f68fba;stroke-width:3.13px;"/><path d="M91.274,49.428c3.84,1.291 5.986,5.05 5.52,9.13c-0.702,6.139 -6.117,7.471 -9.687,12.922c-8.529,13.02 -15.42,2.783 -17.553,1.174c-0.741,-1.342 -0.325,-1.738 1.2,-1.824c3.194,2.827 2.535,3.583 4.931,4.575c5.705,2.362 9.121,-4.065 10.555,-6.235c1.598,-2.418 5.514,-4.602 7.033,-7.059c5.373,-8.69 -4.441,-9.856 -1.999,-12.684Z" style="fill:#150806;stroke:#f68fba;stroke-width:3.13px;"/><path d="M244.498,195.885c-0.775,0.137 -0.71,0.23 -1.482,0.262c-9.003,0.365 -8.675,1.682 -16.877,5.299c-11.016,4.859 1.903,-3.507 2.192,-3.694c7.864,-5.092 -22.317,1.566 -14.703,-1.842c7.226,-3.235 22.358,-1.444 27.683,-1.077c2.632,0.182 2.417,0.645 3.187,1.053Z" style="fill:#e2bfaf;stroke:#f68fba;stroke-width:3.13px;"/><path d="M131.866,191.979c-4.427,-7.683 -8.712,-9.39 -5.343,-8.808c10.996,1.899 11.281,1.827 11.53,2.742c0.128,0.471 0.079,0.48 -0.514,6.083c-3.973,-2.275 -4.104,-0.603 -5.673,-0.016Z" style="fill:#fbfbf9;stroke:#f68fba;stroke-width:3.13px;"/><path d="M63.498,34.278c-4.447,-0.126 -6.905,0.21 -12.316,-6.372c-1.594,-1.939 0.365,-1.89 0.929,-1.386c0.885,0.792 5.363,6.935 12.129,5.609c1.466,-0.288 5.514,-3.446 4.381,-0.647c-0.764,1.889 -4.666,2.7 -5.123,2.795Z" style="fill:#360300;stroke:#f68fba;stroke-width:3.13px;"/><path d="M97.31,177.439c0.047,1.515 0.134,4.311 -4.392,18.428c-0.553,1.723 -1.56,1.363 -1.562,1.364c-0.175,-1.914 -0.048,-1.863 0.363,-3.797c2.925,-11.944 3.042,-14.879 5.592,-15.995Z" style="fill:#1a1810;stroke:#f68fba;stroke-width:3.13px;"/><path d="M13.059,9.414c-0.283,0.858 -2.248,6.805 -6.387,9.31c-5.326,-5.474 2.533,-7.824 6.387,-9.31Z" style="fill:#e5bba4;stroke:#f68fba;stroke-width:3.13px;"/><path d="M69.775,193.691c-0.626,0.505 -1.252,1.01 -1.878,1.515c-7.645,-7.108 14.767,-0.526 15.995,-0.166c-2.304,2.809 -9.015,-1.569 -14.116,-1.349Z" style="fill:#110903;stroke:#f68fba;stroke-width:3.13px;"/><path d="M69.775,193.691c0.092,0.16 -0.228,0.378 -0.136,0.538c0.342,0.593 7.206,2.799 8.681,3.4c4.322,1.761 -6.234,2.235 -8.061,4.146l-1.567,-1.659c0.795,-0.344 1.095,-0.636 3.171,-1.063c1.206,-0.248 1.278,-0.052 2.071,-0.988c-4.715,-2.084 -4.754,-1.949 -6.038,-2.859c0.626,-0.505 1.252,-1.01 1.878,-1.515Z" style="fill:#0e0402;stroke:#f68fba;stroke-width:3.13px;"/></g></g></svg>