<?xml version="1.0" encoding="UTF-8" standalone="no"?><!DOCTYPE svg PUBLIC "-//W3C//DTD SVG 1.1//EN" "http://www.w3.org/Graphics/SVG/1.1/DTD/svg11.dtd"><svg width="100%" height="100%" viewBox="0 0 415 326" version="1.1" xmlns="http://www.w3.org/2000/svg" xmlns:xlink="http://www.w3.org/1999/xlink" xml:space="preserve" xmlns:serif="http://www.serif.com/" style="fill-rule:evenodd;clip-rule:evenodd;stroke-linejoin:round;stroke-miterlimit:2;"><g><path d="M327.015,49.202c-3.279,1.428 -3.229,1.628 -3.521,1.533c-0.786,-0.256 -0.045,-0.98 -0.87,-1.249c19.365,-14.51 21.62,-22.814 13.659,-21.068c-11.821,2.592 -17.476,7.2 -40.777,16.847c-19.596,8.113 -51.167,36.242 -50.575,32.282c0.5,-3.34 54.354,-38.695 61.953,-45.251c25.349,-21.871 22.223,-28.748 16.453,-28.931c-8.312,-0.263 -40.464,18.83 -75.193,53.007c-46.639,45.898 -57.515,60.604 -57.051,61.843c0.496,1.326 9.508,8.651 12.643,6.858c2.985,-1.707 2.782,-1.946 9.441,-7.394c0.314,0.64 0.643,0.259 0.932,0.849c0.423,0.863 -0.149,0.8 -0.1,0.848c0.132,0.128 0.155,0.013 2.053,-1.033c2.379,-1.449 3.137,-1.948 3.405,-2.125c26.683,-17.588 47.238,-21.432 49.23,-15.378c0.912,2.77 2.043,1.447 3.557,0.778c25.242,-11.147 24.844,-11.971 68.933,-30.183c0.037,0.597 0.533,0.351 0.569,0.944c0.036,0.576 -0.602,0.386 -0.45,0.98c0.101,0.398 0.23,-0.192 4.842,-1.712c8.744,-2.681 53.709,-19.82 58.658,-10.668c6.562,12.137 -22.369,25.936 -28.318,29.021c-22.109,11.465 -35.279,15.107 -34.576,16.471c0.339,0.658 21.782,-8.212 41.624,-6.881c22.365,1.501 5.97,19.61 -53.539,39.956c-14.65,5.009 -20.132,5.358 -25.894,7.202l-1.143,0.14c-0.244,0.126 -0.581,-0.128 -0.825,-0.002c-1.16,0.599 0.711,0.816 0.802,0.827l1.424,-0.254c18.081,-1.786 55.683,-12.149 46.349,2.518c-11.302,17.759 -54.545,26.711 -59.704,27.779c-0.177,0.181 -0.354,0.363 -0.532,0.544c0.092,0.021 17.733,1.372 23.576,6.679c7.054,6.407 -6.606,14.345 -34.538,14.44c-11.347,0.039 11.963,4.98 10.032,12.457c-1.224,4.738 -12.233,2.091 -13.275,1.84c-2.865,-0.689 2.419,4.641 -2.633,6.165c-4.79,1.445 -9.941,-1.868 -10.676,-2.341c-0.095,-0.061 -4.01,-1.847 -1.041,0.956c8.625,8.139 51.646,63.872 72.699,81.32c0.874,0.725 14.16,11.735 5.324,13.16c-3.173,0.511 3.114,4.306 1.77,8.688c-1.056,3.441 -6.548,1.429 -14.049,-0.543c-36.457,-9.587 -46.122,-40.507 -62.809,-43.09c-57.498,-8.9 -69.367,-20.69 -62.559,-11.178c2.578,3.601 9.705,4.359 6.156,5.7c-1.124,0.425 -6.362,-0.424 -9.663,-6.966c-0.188,-0.373 -2.799,-5.546 -3.504,-3.877c-0.297,0.702 0.304,7.534 3.605,9.985c0.418,0.31 3.613,1.699 2.544,2.955c-1.727,2.029 -7.77,-2.829 -8.208,-10.265c-0.212,-3.593 0.612,-4.378 -2.617,-5.874c-8.339,-3.862 -15.531,-8.598 -10.578,-3.512c1.903,1.954 -2.278,1.411 -2.333,1.481c-0.575,0.74 2.724,9.802 -0.676,6.027c-1.928,-2.14 -1.58,-10.352 -4.471,-10.473c-1.183,-0.05 -1.792,6.313 0.469,9.77c2.191,3.351 1.517,3.674 1.213,3.761c-2.923,0.835 -6.226,-7.754 -4.653,-13.315c0.558,-1.973 2.575,-3.325 -1.456,-5.98c-34.558,-22.761 -48.595,-38.027 -60.799,-81.883c-8.708,-31.293 -12.677,-29.585 -29.602,-62.795c-0.466,-0.914 -0.844,-1.354 -1.798,-1.702c-13.571,-4.945 -73.906,-28.048 -74.22,-29.143c-0.987,-3.443 2.134,-0.988 43.247,11.595c2.011,0.616 29.408,8.65 30.694,8.912c4.207,0.858 23.527,-46.898 69.068,-22.675c27.72,14.744 41.56,50.709 45.231,46.56c10.233,-11.566 8.863,-12.842 55.001,-58.414c38.204,-37.736 74.407,-60.2 82.404,-54.196c8.194,6.151 -8.808,25.209 -29.981,39.143c-22.76,14.978 53.668,-31.124 45.003,-9.802c-2.717,6.687 -13.493,14.564 -14.885,15.581c-0.65,0.475 -1.013,0.027 -1.235,0.851c-0.187,0.696 0.941,0.241 0.764,0.9Z" style="fill:#fbd4cf;stroke:#26b9d9;stroke-width:3.13px;"/><path d="M263.361,274.367l0.162,0.622c-0.161,0.125 -0.363,0.19 -0.524,0.314c-1.385,1.071 -43.379,-7.959 -58.832,-13.473c-2.882,-1.029 0.82,-3.098 0.271,-4.532c-0.964,-2.515 -4.681,2.853 -5.293,2.86c-1.725,0.018 -2.669,-5.698 -2.928,-6.225c-1.548,-3.146 -2.055,3.053 -3.387,3.089c-0.944,0.025 -16.512,-8.226 -18.002,-9.322c-0.989,-0.727 -0.027,-2.97 -1.753,-2.598c-2.073,0.448 -2.122,0.364 -3.961,-0.753c-39.559,-24.023 -49.967,-51.452 -53.462,-60.712c-0.473,-1.254 -5.096,-13.502 -5.238,-15.916c-0.144,-2.444 8.214,8.431 10.347,-2.337c0.442,-2.231 3.468,4.482 9.316,2.32c5.895,-2.18 1.52,-11.354 5.413,-7.501c2.953,2.923 8.04,4.482 11.02,0.587c1.123,-1.467 1.515,-1.299 2.948,-0.177c9.549,7.477 8.788,-5.355 6.736,-5.582c-2.275,-0.252 1.105,7.63 -4.19,5.215c-5.357,-2.444 -3.666,-6.99 -4.561,-8.239c-3.631,-5.066 1.588,4.868 -3.645,8.23c-5.857,3.763 -11.819,-7.972 -13.228,-7.189c-0.776,0.431 -0.257,0.674 0.727,3.826c0.37,1.186 0.785,5.324 -0.118,6.944c-4.641,8.331 -14.209,-8.325 -14.642,-8.35c-2.535,-0.142 2.648,5.62 2.58,7.955c-0.255,8.72 -7.515,2.21 -7.907,2.048c-2.764,-1.14 -1.874,-1.914 -2.679,-4.747c-7.214,-25.361 -9.893,-24.221 -27.558,-57.301c-2.742,-5.135 5.456,2.019 22.699,-1.287c7.534,-1.444 -1.136,-3.417 -6.392,-4.892c-16.462,-4.618 -18.747,-4.587 -17.097,-6.691c9.314,-11.878 20.617,-26.974 39.553,-26.612c31.548,0.603 50.876,30.796 59.598,43.142c16.226,22.97 21.493,18.34 21.606,20.732c0.034,0.721 -17.882,13.044 -3.289,5.141c1.582,-0.857 4.206,3.945 4.552,4.729c2.298,5.209 -4.16,8.363 -0.233,8.263c5.546,-0.142 6.222,5.027 3.149,9.098c-2.042,2.706 2.26,1.898 3.75,4.158c2.234,3.388 -0.027,8.053 -0.069,8.203c-0.848,3.039 8.673,12.508 14.936,16.819c25.842,17.786 22.386,21.495 95.228,103.442c9.907,11.146 25.512,21.5 21.097,23.005c-12.226,4.169 -64.565,-59.367 -65.933,-60.195c-3.901,-2.359 2.764,5.597 3.112,6.012c40.26,48.06 51.944,52.612 56.438,54.939c3.584,1.856 9.591,11.981 2.952,9.761c-18.669,-6.243 -42.134,-44.082 -70.709,-67.919c-0.091,-0.076 -4.182,-1.838 -1.053,1.032c29.316,26.894 45.673,52.952 60.412,62.288c8.109,5.136 -5.515,-0.254 -5.959,-0.43c-26.775,-10.594 -61.164,-57.801 -63.241,-58.916c-3.763,-2.021 3.43,7.33 14.196,19.006l-0.555,0.823c-15.679,-12.145 -23.801,-23.047 -25.239,-21.739c-0.881,0.801 9.166,11.77 18.878,19.028Z" style="fill:#fbd4cf;stroke:#26b9d9;stroke-width:3.13px;"/><path d="M322.624,49.486c-14.262,9.759 -15.056,8.234 -31.699,17.289c-49.289,26.817 -58.347,35.358 -77.748,50.904c-6.659,5.449 -6.456,5.688 -9.441,7.394c-3.135,1.793 -12.147,-5.532 -12.643,-6.858c-0.463,-1.239 10.412,-15.946 57.051,-61.843c34.729,-34.177 66.88,-53.27 75.193,-53.007c5.77,0.183 8.896,7.059 -16.453,28.931c-7.598,6.556 -61.453,41.911 -61.953,45.251c-0.592,3.96 30.979,-24.169 50.575,-32.282c23.301,-9.647 28.957,-14.255 40.777,-16.847c7.96,-1.745 5.706,6.559 -13.659,21.068Z" style="fill:#fbd4cf;stroke:#26b9d9;stroke-width:3.13px;"/><path d="M229.95,132.38c0.693,-1.958 12.232,-6.43 26.356,-15.536c10.717,-6.91 11.047,-10.717 13.22,-11.703c5.933,-2.692 64.626,-31.372 116.79,-43.455c16.609,-3.847 17.048,0.577 17.184,1.954c0.606,6.122 -2.428,14.672 -65.053,41.649c-20.358,8.77 -33.595,11.49 -67.202,24.582c-4.344,1.693 -4.357,-0.411 -9.033,-0.77c-10.221,-0.786 -29.71,2.808 -32.262,3.279Z" style="fill:#fbd4cf;stroke:#26b9d9;stroke-width:3.13px;"/><path d="M341.186,71.436c-44.089,18.212 -43.691,19.037 -68.933,30.183c-1.514,0.669 -2.645,1.992 -3.557,-0.778c-1.993,-6.054 -22.547,-2.211 -49.23,15.378c-0.268,0.177 -1.025,0.676 -3.405,2.125c0.003,-0.149 -0.83,-0.427 0.027,-1.236c8.307,-7.848 70.13,-50.851 128.879,-73.287c15.223,-5.814 50.79,-20.22 65.209,-13.788c3.987,1.779 -4.933,12.3 -13.099,16.74c-4.293,2.335 -10.65,5.792 -55.892,24.663Z" style="fill:#fbd4cf;stroke:#26b9d9;stroke-width:3.13px;"/><path d="M240.758,171.382c-7.592,-1.507 -7.885,-1.441 -8.561,-1.288c-5.051,1.143 10.39,3.97 20.827,12.159c8.982,7.048 -1.278,9.574 -7.062,9.684c-10.356,0.198 -15.687,-5.895 -17.7,-7.291c-1.526,-1.058 -13.243,-9.18 -16.892,-15.91c-1.697,-3.131 4.771,-5.972 -2.719,-12.75c-0.943,-0.853 0.997,-3.118 0.186,-6.701c-1.063,-4.697 -4.372,-3.513 -4.084,-8.304c0.343,-5.709 -4.206,-8.503 -4.069,-9.747c0.28,-2.542 56.589,-38.167 65.72,-30.119c6.792,5.986 -30.32,24.82 -38.067,29.338c-18.519,10.799 9.169,0.225 30.454,0.641c4.74,0.093 12.64,0.009 6.341,6.66c-13.057,13.786 -39.237,11.997 -39.36,12.03c-3.987,1.079 6.97,2.987 13.289,4.332c13.467,2.866 30.41,10.132 26.469,14.107c-4.527,4.566 -22.777,3.298 -24.77,3.159Z" style="fill:#fbd4cf;stroke:#26b9d9;stroke-width:3.13px;"/><path d="M236.16,151.554c0.321,-0.053 0.502,-0.472 0.823,-0.524c1.048,-0.172 3.485,0.399 11.728,-1.659c8.505,-2.123 19.545,-9.383 20.762,-14.392c0.455,-1.873 0.002,-2.317 1.805,-3.027c2.228,-0.877 79.086,-30.366 107.431,-30.507c38.787,-0.193 -24.933,30.626 -69.639,42.213c-18.021,4.671 -31.035,6.743 -51.145,13.254c-3.798,1.23 -3.405,-2.278 -20.299,-4.774c-0.972,-0.144 -1.373,-0.546 -1.467,-0.584Z" style="fill:#fbd4cf;stroke:#26b9d9;stroke-width:3.13px;"/><path d="M242.276,173.721c2.559,-0.992 12.539,1.636 22.759,-2.615c2.328,-0.968 4.974,-3.707 1.841,-7.449c-2.715,-3.243 -6.295,-3.692 -6.367,-4.877c-0.064,-1.053 0.44,-0.889 12.57,-3.983c23.016,-5.871 68.865,-10.702 74.405,-10.376c6.407,0.377 0.883,13.024 -35.182,25.645c-4.453,1.558 -25.977,9.09 -58.228,9.307c-1.047,0.007 -1.091,-0.03 -11.799,-5.651Z" style="fill:#fbd4cf;stroke:#26b9d9;stroke-width:3.13px;"/><path d="M273.94,197.764c-9.147,2.722 23.525,12.224 10.695,14.939c-7.574,1.603 -30.573,-11.149 -33.045,-12.519c-2.516,-1.395 -2.045,0.402 -1.958,0.539c1.448,2.275 32.105,15.363 22.594,17.211c-10.718,2.084 -25.678,-18.184 -31.873,-23.243c-3.276,-2.675 6.863,1.167 15.222,-2.722c7.169,-3.335 -0.004,-10.008 0.816,-10.623c1.238,-0.927 1.491,0.184 19.276,-1.47c17.789,-1.654 54.471,6.536 29.533,14.36c-9.849,3.09 -19.475,2.912 -31.259,3.526Z" style="fill:#fbd4cf;stroke:#26b9d9;stroke-width:3.13px;"/><path d="M132.84,96.201c-7.632,0.749 -7.624,-7.454 -4.875,-11.504c8.181,-12.05 23.336,5.117 10.357,11.964c-4.165,2.197 -4.628,0.489 -5.482,-0.461Z" style="fill:#fbd4cf;stroke:#26b9d9;stroke-width:3.13px;"/><path d="M32.518,80.177c28.452,10.221 67.066,19.479 67.09,20.217c0.022,0.674 -0.273,0.971 -8.417,0.5c-4.902,-0.284 -9.326,-0.539 -58.232,-19.404c-0.102,-0.039 -0.084,-0.057 -1.128,-0.765l0.687,-0.548Z" style="fill:#fbd4cf;stroke:#26b9d9;stroke-width:3.13px;"/><path d="M130.351,189.196c-0.376,0.538 -0.46,0.483 -0.38,1.14c1.232,10.077 -9.581,0.824 -9.677,-1.225c-0.117,-2.501 4.733,2.9 5.94,3.379c5.526,2.191 -1.357,-11.606 -1.333,-11.661c0.552,-1.248 2.669,2.145 2.826,2.397c6.436,10.313 16.024,8.254 12.391,-2.161c-2.47,-7.082 2.623,0.056 6.743,1.533c9.126,3.271 -1.221,-11.234 -0.79,-12.002c1.651,-2.941 15.947,21.527 -2.583,12.319c-1.832,-0.91 1.135,6.574 -4.029,8.717c-4.46,1.851 -8.245,-1.843 -9.109,-2.434Z" style="fill:#fbd4cf;stroke:#26b9d9;stroke-width:3.13px;"/><path d="M127.622,140.255c-0.021,-1.797 -0.089,-1.8 -0.023,-1.941c0.936,-2.005 5.634,5.028 6.95,-1.6c0.467,-2.353 2.29,-1.073 2.117,1.326c-0.41,5.679 -6.908,2.245 -7.303,4.245c-1.516,7.683 -7.196,5.04 -8.831,3.663c-1.748,-1.471 -1.865,-0.236 -2.945,1.352c-5.477,8.054 -14.797,-1.586 -12.967,-10.033c1.311,-6.051 1.682,2.444 1.694,2.698c0.144,3.292 2.099,8.142 5.885,8.046c6.087,-0.154 4.62,-11.166 7.138,-6.416c1.502,2.833 7.498,7.705 8.287,-1.34Z" style="fill:#fbd4cf;stroke:#26b9d9;stroke-width:3.13px;"/><path d="M176.1,222.88c-0.664,0.766 -5.171,5.967 -12.406,-2.546c-1.007,-1.185 -0.094,-2.082 1.12,-1.1c12.015,9.717 10.285,-2.146 8.916,-5.219c-4.808,-10.793 8.154,7.377 13.46,6.297c3.009,-0.612 -5.366,-7.675 -1.479,-6.284c4.958,1.774 7.349,12.411 -2.426,7.141c-4.029,-2.172 -7.264,-8.139 -6.446,-2.417c0.251,1.754 -0.609,3.818 -0.739,4.128Z" style="fill:#fbd4cf;stroke:#26b9d9;stroke-width:3.13px;"/><path d="M160.977,203.731c-0.324,6.515 -5.752,2.74 -6.364,4.395c-1.468,3.969 -0.108,5.477 -4.283,6.408c-6.464,1.442 -10.793,-13.201 -7.478,-10.844c0.017,0.012 3.079,11.258 7.881,8.237c2.953,-1.857 0.934,-7.518 3.594,-6.796c3.226,0.876 4.771,1.236 4.398,-2.085c-0.024,-0.211 -0.53,-4.719 1.284,-2.318c0.431,0.57 0.316,0.594 0.969,3.001Z" style="fill:#fbd4cf;stroke:#26b9d9;stroke-width:3.13px;"/><path d="M196.206,237.904c-2.115,7.783 -17.738,-2.703 -14.925,-3.228c0.377,-0.07 16.239,8.657 11.861,0.486c-1.047,-1.953 -9.086,-8.478 -4.33,-6.828c0.362,0.125 2.969,1.807 4.873,4.108c1.979,2.391 2.437,4.987 2.52,5.461Z" style="fill:#fbd4cf;stroke:#26b9d9;stroke-width:3.13px;"/><path d="M134.103,95.444c0.625,-0.607 5.621,-5.454 0.475,-10.877c-0.776,-0.818 -1.52,-0.798 -0.771,-1.682c2.071,-2.444 13.661,6.405 2.613,12.89c-0.09,0.053 -0.155,0.144 -0.249,0.188c-1.74,0.814 -1.516,-0.381 -2.068,-0.519Z" style="fill:#fbd4cf;stroke:#26b9d9;stroke-width:3.13px;"/><path d="M170.84,198.13c3.989,-0.097 1.047,-4.326 0.067,-7.14c-0.046,-0.133 0.32,-2.715 1.752,0.086c5.776,11.303 -1.788,9.387 -2.471,9.072c-5.606,-2.579 -7.833,-7.478 -4.931,-5.571c2.829,1.859 2.573,2.141 5.583,3.552Z" style="fill:#fbd4cf;stroke:#26b9d9;stroke-width:3.13px;"/><path d="M205.759,235.323c-0.342,-0.168 -3.604,-1.77 -4.045,-2.525c-1.415,-2.42 4.23,0.299 4.596,0.309c4.732,0.128 -0.839,-6.644 -0.19,-7.299c2.099,-2.118 8.585,10.178 -0.361,9.515Z" style="fill:#fbd4cf;stroke:#26b9d9;stroke-width:3.13px;"/><path d="M160.92,230.979c4.065,5.695 -2.781,5.011 -3.38,4.098c-0.721,-1.099 4.036,-0.078 2.009,-2.706c-0.428,-0.555 -6.079,-4.935 -3.458,-4.753c1.136,0.079 4.477,3.049 4.829,3.361Z" style="fill:#fbd4cf;stroke:#26b9d9;stroke-width:3.13px;"/><path d="M141.37,217.248c1.298,5.017 -4.756,-0.475 -2.82,-1.027c1.337,-0.381 2.646,0.862 2.82,1.027Z" style="fill:#fbd4cf;stroke:#26b9d9;stroke-width:3.13px;"/><path d="M176.085,250.704c2.149,3.085 -2.689,0.482 -2.103,-0.532c0.231,-0.401 1.948,0.455 2.103,0.532Z" style="fill:#fbd4cf;stroke:#26b9d9;stroke-width:3.13px;"/><path d="M270.277,276.255c0.274,0.492 0.685,0.262 0.955,1.713c0.242,1.296 -0.373,-0.149 -1.511,-0.89l0.555,-0.823Z" style="fill:#fbd4cf;stroke:#26b9d9;stroke-width:3.13px;"/><path d="M302.959,146.89l1.143,-0.14l0.258,0.71l-1.424,0.254l0.023,-0.824Z" style="fill:#fbd4cf;stroke:#26b9d9;stroke-width:3.13px;"/><path d="M302.959,146.89l-0.023,0.824c-0.092,-0.011 -1.963,-0.227 -0.802,-0.827c0.244,-0.126 0.581,0.128 0.825,0.002Z" style="fill:#fbd4cf;stroke:#26b9d9;stroke-width:3.13px;"/><path d="M263.361,274.367c0.579,0.939 1.946,1.268 0.791,1.282c-0.304,0.004 -0.325,-0.664 -0.629,-0.66l-0.162,-0.622Z" style="fill:#fbd4cf;stroke:#26b9d9;stroke-width:3.13px;"/><path d="M291.005,177.757l-0.532,0.544c0.177,-0.181 0.354,-0.363 0.532,-0.544Z" style="fill:#fbd4cf;stroke:#26b9d9;stroke-width:3.13px;"/><path d="M327.015,49.202c3.957,-1.852 21.017,-9.839 51.127,-19.183c15.564,-4.83 47.847,-8.102 29.904,11.034c-3.587,3.825 -8.827,9.414 -58.999,28.569c-2.631,1.004 -2.851,0.734 -3.233,1.477c-0.098,0.19 0.432,0.358 0.334,0.549c-4.612,1.52 -4.741,2.11 -4.842,1.712c-0.151,-0.594 0.486,-0.404 0.45,-0.98c-0.037,-0.593 -0.532,-0.347 -0.569,-0.944c45.243,-18.871 51.599,-22.328 55.892,-24.663c8.165,-4.441 17.086,-14.962 13.099,-16.74c-14.419,-6.432 -49.986,7.974 -65.209,13.788c-58.749,22.437 -120.572,65.44 -128.879,73.287c-0.857,0.81 -0.024,1.087 -0.027,1.236c-1.898,1.046 -1.921,1.161 -2.053,1.033c-0.049,-0.048 0.523,0.015 0.1,-0.848c-0.289,-0.59 -0.618,-0.209 -0.932,-0.849c19.401,-15.546 28.459,-24.087 77.748,-50.904c16.643,-9.055 17.437,-7.53 31.699,-17.289c0.825,0.269 0.085,0.993 0.87,1.249c0.292,0.095 0.241,-0.105 3.521,-1.533Z" style="fill:#fbd4cf;stroke:#26b9d9;stroke-width:3.13px;"/></g></svg>